SplineFontDB: 3.0
FontName: Rokkitt-Thin
FullName: Rokkitt Thin
FamilyName: Rokkitt
Weight: Regular
Copyright: Digitized data Copyright (c) 2011-2013, vernon adams.
Version: 2
ItalicAngle: 0
UnderlinePosition: 0
UnderlineWidth: 0
Ascent: 1638
Descent: 410
UFOAscent: 1152
UFODescent: -410
LayerCount: 2
Layer: 0 0 "Back"  1
Layer: 1 0 "Fore"  0
FSType: 0
OS2Version: 0
OS2_WeightWidthSlopeOnly: 0
OS2_UseTypoMetrics: 1
CreationTime: 1390514597
ModificationTime: 1390527769
PfmFamily: 17
TTFWeight: 100
TTFWidth: 5
LineGap: 0
VLineGap: 0
OS2TypoAscent: 1638
OS2TypoAOffset: 0
OS2TypoDescent: -410
OS2TypoDOffset: 0
OS2TypoLinegap: 0
OS2WinAscent: 1638
OS2WinAOffset: 0
OS2WinDescent: 410
OS2WinDOffset: 0
HheadAscent: 1638
HheadAOffset: 0
HheadDescent: -410
HheadDOffset: 0
OS2Vendor: 'NeWT'
Lookup: 258 0 0 "'kern' Horizontal Kerning in Latin lookup 0"  {"'kern' Horizontal Kerning in Latin lookup 0 subtable"  } ['kern' ('latn' <'dflt' > ) ]
MarkAttachClasses: 1
DEI: 91125
LangName: 1033 "" "" "" "" "" "" "" "Rokkitt is a trademark of Vernon Adams and may be registered in certain jurisdictions." "newtypography" "Vernon Adams" "" "newtypography.co.uk" "newtypography.co.uk" "Copyright (c) 2013, vernon adams.+AAoACgAA-This Font Software is licensed under the SIL Open Font License, Version 1.1.+AAoA-This license is copied below, and is also available with a FAQ at:+AAoA-http://scripts.sil.org/OFL+AAoA" "http://scripts.sil.org/OFL" 
PickledData: "(dp1
S'com.typemytype.robofont.shouldAddPointsInSplineConversion'
p2
I1
sS'com.petr.ptt'
p3
(dp4
S'originals'
p5
(dp6
S'maxp'
p7
(dp8
S'tableTag'
p9
S'maxp'
p10
sS'numGlyphs'
p11
I423
sS'tableVersion'
p12
I20480
ssssS'com.schriftgestaltung.weight'
p13
S'Light'
p14
sS'com.typemytype.robofont.compileSettings.autohint'
p15
I0
sS'GSDimensionPlugin.Dimensions'
p16
(dp17
S'1F09728C-766D-4240-AE17-E499EF32E23D'
p18
(dp19
sS'98C086B7-81AA-4491-8494-0C6A76849168'
p20
(dp21
sS'EFCDB4D9-E20B-4A8D-9DB5-150AD166B0AE'
p22
(dp23

StartChar: A
Encoding: 65 65 0
Width: 1383
VWidth: 0
Flags: HW
PickledData: "(dp1
S'org.robofab.postScriptHintData'
p2
(dp3
sS'com.typemytype.robofont.layerData'
p4
(dp5
S'b'
(dp6
S'name'
p7
S'A'
sS'lib'
p8
(dp9
sS'unicodes'
p10
(tsS'width'
p11
I1383
sS'contours'
p12
(tsS'components'
p13
(tsS'anchors'
p14
(tsss."
AnchorPoint: "top" 692 1152 basechar 0
LayerCount: 2
Fore
SplineSet
92 0 m 1
 442 0 l 1
 442 34 l 1
 294 34 l 1
 462 488 l 1
 922 488 l 1
 1090 34 l 1
 941 34 l 1
 941 0 l 1
 1291 0 l 1
 1291 34 l 1
 1136 34 l 1
 732 1118 l 1
 883 1118 l 1
 883 1152 l 1
 505 1152 l 1
 505 1118 l 1
 652 1118 l 1
 247 34 l 1
 92 34 l 1
 92 0 l 1
472 520 m 1
 690 1111 l 1
 693 1111 l 1
 912 520 l 1
 472 520 l 1
EndSplineSet
EndChar

StartChar: AE
Encoding: 198 198 1
Width: 2243
VWidth: 0
Flags: W
PickledData: "(dp1
S'org.robofab.postScriptHintData'
p2
(dp3
sS'com.typemytype.robofont.layerData'
p4
(dp5
S'b'
(dp6
S'name'
p7
S'AE'
p8
sS'lib'
p9
(dp10
sS'unicodes'
p11
(tsS'width'
p12
I2243
sS'contours'
p13
(tsS'components'
p14
(tsS'anchors'
p15
(tsss."
AnchorPoint: "top" 1257 1152 basechar 0
LayerCount: 2
Fore
SplineSet
651 471 m 1
 1006 1118 l 1
 1014 1118 l 1
 1117 471 l 1
 651 471 l 1
174 0 m 1
 555 0 l 1
 555 34 l 1
 407 34 l 1
 631 437 l 1
 1121 437 l 1
 1187 34 l 1
 1024 34 l 1
 1024 0 l 1
 2037 0 l 1
 1972 395 l 1
 1933 395 l 1
 1990 34 l 1
 1233 34 l 1
 1150 546 l 1
 1601 546 l 1
 1640 343 l 1
 1678 343 l 1
 1600 759 l 1
 1562 759 l 1
 1594 580 l 1
 1144 580 l 1
 1059 1118 l 1
 1757 1118 l 1
 1815 754 l 1
 1854 754 l 1
 1791 1152 l 1
 821 1152 l 1
 821 1118 l 1
 963 1118 l 1
 354 34 l 1
 174 34 l 1
 174 0 l 1
EndSplineSet
EndChar

StartChar: B
Encoding: 66 66 13
Width: 1315
VWidth: 0
Flags: HW
PickledData: "(dp1
S'org.robofab.postScriptHintData'
p2
(dp3
sS'com.typemytype.robofont.layerData'
p4
(dp5
S'b'
(dp6
S'name'
p7
S'B'
sS'lib'
p8
(dp9
sS'unicodes'
p10
(tsS'width'
p11
I1315
sS'contours'
p12
((dp13
S'points'
p14
((dp15
S'segmentType'
p16
S'line'
p17
sS'x'
I353
sS'smooth'
p18
I0
sS'y'
I1095
s(dp19
g16
S'line'
p20
sS'x'
I740
sg18
I1
sS'y'
I1095
s(dp21
S'y'
I1095
sS'x'
I917
sg18
I0
s(dp22
S'y'
I983
sS'x'
I1004
sg18
I0
s(dp23
g16
S'curve'
p24
sS'x'
I1004
sg18
I1
sS'y'
I868
s(dp25
S'y'
I751
sS'x'
I1004
sg18
I0
s(dp26
S'y'
I634
sS'x'
I928
sg18
I0
s(dp27
g16
S'curve'
p28
sS'x'
I784
sg18
I1
sS'y'
I634
s(dp29
g16
S'line'
p30
sS'x'
I353
sg18
I0
sS'y'
I634
stp31
s(dp32
g14
((dp33
g16
S'line'
p34
sS'x'
I353
sg18
I0
sS'y'
I573
s(dp35
g16
S'line'
p36
sS'x'
I793
sg18
I1
sS'y'
I573
s(dp37
S'y'
I573
sS'x'
I979
sg18
I0
s(dp38
S'y'
I439
sS'x'
I1072
sg18
I0
s(dp39
g16
S'curve'
p40
sS'x'
I1072
sg18
I1
sS'y'
I320
s(dp41
S'y'
I187
sS'x'
I1072
sg18
I0
s(dp42
S'y'
I58
sS'x'
I985
sg18
I0
s(dp43
g16
S'curve'
p44
sS'x'
I807
sg18
I1
sS'y'
I58
s(dp45
g16
S'line'
p46
sS'x'
I353
sg18
I0
sS'y'
I58
stp47
s(dp48
g14
((dp49
g16
S'line'
p50
sS'x'
I807
sg18
I1
sS'y'
I0
s(dp51
S'y'
I0
sS'x'
I1031
sg18
I0
s(dp52
S'y'
I158
sS'x'
I1146
sg18
I0
s(dp53
g16
S'curve'
p54
sS'x'
I1146
sg18
I1
sS'y'
I316
s(dp55
S'y'
I439
sS'x'
I1146
sg18
I0
s(dp56
S'y'
I568
sS'x'
I1074
sg18
I0
s(dp57
g16
S'curve'
p58
sS'x'
I919
sg18
I0
sS'y'
I611
s(dp59
S'y'
I669
sS'x'
I1029
sg18
I0
s(dp60
S'y'
I769
sS'x'
I1079
sg18
I0
s(dp61
g16
S'curve'
p62
sS'x'
I1079
sg18
I1
sS'y'
I870
s(dp63
S'y'
I1012
sS'x'
I1079
sg18
I0
s(dp64
S'y'
I1154
sS'x'
I964
sg18
I0
s(dp65
g16
S'curve'
p66
sS'x'
I740
sg18
I1
sS'y'
I1154
s(dp67
g16
S'line'
p68
sS'x'
I122
sg18
I0
sS'y'
I1154
s(dp69
g16
S'line'
p70
sS'x'
I122
sg18
I0
sS'y'
I1095
s(dp71
g16
S'line'
p72
sS'x'
I278
sg18
I0
sS'y'
I1095
s(dp73
g16
S'line'
p74
sS'x'
I278
sg18
I0
sS'y'
I58
s(dp75
g16
S'line'
p76
sS'x'
I135
sg18
I0
sS'y'
I58
s(dp77
g16
S'line'
p78
sS'x'
I135
sg18
I0
sS'y'
I0
stp79
stp80
sS'components'
p81
(tsS'anchors'
p82
(tsss."
HStem: 0 34<897 989.674> 589 34<864 965.031> 1118 34<795 920.134>
VStem: 130 396 1084 39<752.606 982.556> 1153 42<193.147 427.407>
AnchorPoint: "top" 594 1152 basechar 0
LayerCount: 2
Fore
SplineSet
329 1152 m 1
 130 1152 l 1
 130 1118 l 1
 306 1118 l 1
 306 34 l 1
 130 34 l 1
 130 0 l 1
 328 0 l 1
 526 0 l 1
 897 0 l 2
 1074 0 1195 127 1195 314 c 0
 1195 442 1143 578 949 609 c 1
 1059 628 1123 732 1123 873 c 0
 1123 1060 1007 1152 795 1152 c 2
 526 1152 l 1
 329 1152 l 1
526 1118 m 1
 795 1118 l 2
 981 1118 1084 1043 1084 873 c 0
 1084 731 1022 623 864 623 c 2
 350 623 l 1
 350 1118 l 1
 526 1118 l 1
350 589 m 1
 864 589 l 2
 1065 589 1153 467 1153 314 c 0
 1153 146 1050 34 897 34 c 2
 526 34 l 1
 350 34 l 1
 350 589 l 1
EndSplineSet
EndChar

StartChar: C
Encoding: 67 67 15
Width: 1411
VWidth: 0
Flags: HW
PickledData: "(dp1
S'org.robofab.postScriptHintData'
p2
(dp3
sS'com.typemytype.robofont.layerData'
p4
(dp5
S'b'
(dp6
S'name'
p7
S'C'
sS'lib'
p8
(dp9
sS'unicodes'
p10
(tsS'width'
p11
I1411
sS'contours'
p12
(tsS'components'
p13
(tsS'anchors'
p14
(tsss."
HStem: -22 36<576.841 876.439> 1136 36<574.162 879.439>
VStem: 122 44<414.947 740.729> 1197 46<836 885.692>
AnchorPoint: "top" 722 1152 basechar 0
LayerCount: 2
Fore
SplineSet
715 -22 m 0
 938 -22 1117 53 1241 245 c 1
 1215 268 l 1
 1096 72 897 14 715 14 c 0
 453 14 166 193 166 580 c 0
 166 867 362 1136 715 1136 c 0
 978 1136 1104 1032 1211 820 c 1
 1243 836 l 1
 1243 1152 l 1
 1197 1152 l 1
 1197 904 l 1
 1108 1070 980 1172 715 1172 c 0
 361 1172 122 908 122 582 c 0
 122 154 449 -22 715 -22 c 0
EndSplineSet
EndChar

StartChar: D
Encoding: 68 68 22
Width: 1434
VWidth: 0
Flags: HW
PickledData: "(dp1
S'org.robofab.postScriptHintData'
p2
(dp3
sS'com.typemytype.robofont.layerData'
p4
(dp5
S'b'
(dp6
S'name'
p7
S'D'
sS'lib'
p8
(dp9
sS'unicodes'
p10
(tsS'width'
p11
I1434
sS'contours'
p12
(tsS'components'
p13
(tsS'anchors'
p14
(tsss."
HStem: 0 34<822 930.017> 1118 34<826 941.172>
VStem: 130 396 1264 42<414.08 728.366>
AnchorPoint: "top" 656 1152 basechar 0
LayerCount: 2
Fore
SplineSet
328 1152 m 1
 130 1152 l 1
 130 1118 l 1
 306 1118 l 1
 306 34 l 1
 130 34 l 1
 130 0 l 1
 328 0 l 1
 526 0 l 1
 832 0 l 2
 1148 0 1306 321 1306 570 c 0
 1306 823 1156 1152 826 1152 c 2
 526 1152 l 1
 328 1152 l 1
526 1118 m 1
 828 1118 l 2
 1116 1118 1264 823 1264 570 c 0
 1264 319 1116 34 822 34 c 2
 526 34 l 1
 350 34 l 1
 350 1118 l 1
 526 1118 l 1
EndSplineSet
EndChar

StartChar: Delta
Encoding: 916 916 26
Width: 1167
VWidth: 0
Flags: W
PickledData: "(dp1
S'org.robofab.postScriptHintData'
p2
(dp3
s."
LayerCount: 2
Fore
SplineSet
129 34 m 1
 563 1117 l 1
 1040 34 l 1
 129 34 l 1
84 0 m 1
 1083 0 l 1
 1083 26 l 1
 588 1152 l 1
 542 1152 l 1
 84 26 l 1
 84 0 l 1
EndSplineSet
EndChar

StartChar: E
Encoding: 69 69 29
Width: 1227
VWidth: 0
Flags: HW
PickledData: "(dp1
S'org.robofab.postScriptHintData'
p2
(dp3
sS'com.typemytype.robofont.layerData'
p4
(dp5
S'b'
(dp6
S'name'
p7
S'E'
sS'lib'
p8
(dp9
sS'unicodes'
p10
(tsS'width'
p11
I1227
sS'contours'
p12
(tsS'components'
p13
(tsS'anchors'
p14
(tsss."
VStem: 130 396
AnchorPoint: "top" 676 1152 basechar 0
LayerCount: 2
Fore
SplineSet
782 380 m 1
 821 380 l 1
 821 780 l 1
 781 780 l 1
 781 603 l 1
 350 603 l 1
 350 1118 l 1
 526 1118 l 1
 1019 1118 l 1
 1019 826 l 1
 1059 826 l 1
 1059 1152 l 1
 526 1152 l 1
 323 1152 l 1
 130 1152 l 1
 130 1118 l 1
 306 1118 l 1
 306 34 l 1
 130 34 l 1
 130 0 l 1
 323 0 l 1
 526 0 l 1
 1087 0 l 1
 1087 332 l 1
 1047 332 l 1
 1047 34 l 1
 526 34 l 1
 350 34 l 1
 350 569 l 1
 782 569 l 1
 782 380 l 1
EndSplineSet
EndChar

StartChar: Eng
Encoding: 330 330 38
Width: 1444
VWidth: 0
Flags: HW
PickledData: "(dp1
S'org.robofab.postScriptHintData'
p2
(dp3
s."
HStem: -374 34<870 996.865>
VStem: 1194 44<-158.508 -17>
LayerCount: 2
Fore
SplineSet
867 -374 m 1
 1100 -374 1238 -261 1238 -17 c 2
 1238 0 l 2
 1238 1118 l 1
 1361 1118 l 1
 1361 1152 l 1
 1043 1152 l 1
 1043 1118 l 1
 1194 1118 l 1
 1194 63 l 1
 318 1152 l 1
 140 1152 l 1
 140 1118 l 1
 284 1118 l 1
 284 34 l 1
 140 34 l 1
 140 0 l 1
 477 0 l 1
 477 34 l 1
 328 34 l 1
 328 1073 l 1
 1194 0 l 1
 1194 -31 l 2
 1194 -220 1091 -340 870 -340 c 1
 867 -374 l 1
EndSplineSet
EndChar

StartChar: Euro
Encoding: 8364 8364 41
Width: 1408
VWidth: 0
Flags: HW
PickledData: "(dp1
S'org.robofab.postScriptHintData'
p2
(dp3
s."
HStem: -22 36<576.841 876.439> 1136 36<574.162 879.439>
VStem: 122 44<414.947 740.729> 1197 46<836 885.692>
LayerCount: 2
Fore
SplineSet
-25 636 m 1
 602 636 l 1
 628 669 l 1
 1 669 l 1
 -25 636 l 1
-25 446 m 1
 602 446 l 1
 628 479 l 1
 1 479 l 1
 -25 446 l 1
EndSplineSet
Refer: 15 67 N 1 0 0 1 0 0 2
EndChar

StartChar: F
Encoding: 70 70 42
Width: 1177
VWidth: 0
Flags: HW
PickledData: "(dp1
S'org.robofab.postScriptHintData'
p2
(dp3
sS'com.typemytype.robofont.layerData'
p4
(dp5
S'b'
(dp6
S'name'
p7
S'F'
sS'lib'
p8
(dp9
sS'unicodes'
p10
(tsS'width'
p11
I1177
sS'contours'
p12
((dp13
S'points'
p14
((dp15
S'segmentType'
p16
S'line'
p17
sS'x'
I990
sS'smooth'
p18
I0
sS'y'
I1086
s(dp19
g16
S'line'
p20
sS'x'
I990
sg18
I0
sS'y'
I802
s(dp21
g16
S'line'
p22
sS'x'
I1062
sg18
I0
sS'y'
I802
s(dp23
g16
S'line'
p24
sS'x'
I1062
sg18
I0
sS'y'
I1152
s(dp25
g16
S'line'
p26
sS'x'
I122
sg18
I0
sS'y'
I1152
s(dp27
g16
S'line'
p28
sS'x'
I122
sg18
I0
sS'y'
I1086
s(dp29
g16
S'line'
p30
sS'x'
I286
sg18
I0
sS'y'
I1086
s(dp31
g16
S'line'
p32
sS'x'
I286
sg18
I0
sS'y'
I1039
s(dp33
g16
S'line'
p34
sS'x'
I363
sg18
I0
sS'y'
I1039
s(dp35
g16
S'line'
p36
sS'x'
I363
sg18
I0
sS'y'
I1086
stp37
s(dp38
g14
((dp39
g16
S'line'
p40
sS'x'
I286
sg18
I0
sS'y'
I1039
s(dp41
g16
S'line'
p42
sS'x'
I286
sg18
I0
sS'y'
I677
s(dp43
g16
S'line'
p44
sS'x'
I363
sg18
I0
sS'y'
I677
s(dp45
g16
S'line'
p46
sS'x'
I363
sg18
I0
sS'y'
I1039
stp47
s(dp48
g14
((dp49
g16
S'line'
p50
sS'x'
I286
sg18
I0
sS'y'
I677
s(dp51
g16
S'line'
p52
sS'x'
I286
sg18
I0
sS'y'
I65
s(dp53
g16
S'line'
p54
sS'x'
I122
sg18
I0
sS'y'
I65
s(dp55
g16
S'line'
p56
sS'x'
I122
sg18
I0
sS'y'
I0
s(dp57
g16
S'line'
p58
sS'x'
I552
sg18
I0
sS'y'
I0
s(dp59
g16
S'line'
p60
sS'x'
I552
sg18
I0
sS'y'
I65
s(dp61
g16
S'line'
p62
sS'x'
I363
sg18
I0
sS'y'
I65
s(dp63
g16
S'line'
p64
sS'x'
I363
sg18
I0
sS'y'
I539
s(dp65
g16
S'line'
p66
sS'x'
I824
sg18
I0
sS'y'
I539
s(dp67
g16
S'line'
p68
sS'x'
I824
sg18
I0
sS'y'
I378
s(dp69
g16
S'line'
p70
sS'x'
I886
sg18
I0
sS'y'
I378
s(dp71
g16
S'line'
p72
sS'x'
I886
sg18
I0
sS'y'
I764
s(dp73
g16
S'line'
p74
sS'x'
I824
sg18
I0
sS'y'
I764
s(dp75
g16
S'line'
p76
sS'x'
I824
sg18
I0
sS'y'
I601
s(dp77
g16
S'line'
p78
sS'x'
I363
sg18
I0
sS'y'
I601
s(dp79
g16
S'line'
p80
sS'x'
I363
sg18
I0
sS'y'
I677
stp81
stp82
sS'components'
p83
(tsS'anchors'
p84
(tsss."
VStem: 130 396
AnchorPoint: "top" 649 1152 basechar 0
LayerCount: 2
Fore
SplineSet
851 390 m 1
 887 390 l 1
 887 770 l 1
 851 770 l 1
 851 609 l 1
 350 609 l 1
 350 1118 l 1
 526 1118 l 1
 1039 1118 l 1
 1039 796 l 1
 1075 796 l 1
 1075 1152 l 1
 526 1152 l 1
 323 1152 l 1
 130 1152 l 1
 130 1118 l 1
 306 1118 l 1
 306 34 l 1
 130 34 l 1
 130 0 l 1
 526 0 l 1
 526 34 l 1
 350 34 l 1
 350 575 l 1
 851 575 l 1
 851 390 l 1
EndSplineSet
EndChar

StartChar: G
Encoding: 71 71 44
Width: 1394
VWidth: 0
Flags: HW
PickledData: "(dp1
S'org.robofab.postScriptHintData'
p2
(dp3
sS'com.typemytype.robofont.layerData'
p4
(dp5
S'b'
(dp6
S'name'
p7
S'G'
sS'lib'
p8
(dp9
sS'unicodes'
p10
(tsS'width'
p11
I1394
sS'contours'
p12
(tsS'components'
p13
(tsS'anchors'
p14
(tsss."
HStem: -22 36<561.147 838.126> 1138 36<553.667 848.523>
VStem: 119 42<408.718 751.865> 1157 44<851 945> 1203 42<361.825 509>
AnchorPoint: "top" 707 1152 basechar 0
LayerCount: 2
Fore
SplineSet
707 -22 m 0
 897 -22 1245 59 1245 543 c 1
 948 543 l 1
 948 509 l 1
 1203 509 l 1
 1198 110 884 14 707 14 c 0
 372 14 161 233 161 582 c 0
 161 924 372 1138 707 1138 c 0
 913 1138 1091 1034 1169 851 c 1
 1201 851 l 1
 1201 1152 l 1
 1157 1152 l 1
 1157 945 l 1
 1066 1093 892 1174 707 1174 c 0
 346 1174 119 946 119 582 c 0
 119 211 346 -22 707 -22 c 0
EndSplineSet
EndChar

StartChar: H
Encoding: 72 72 51
Width: 1506
VWidth: 0
Flags: HW
PickledData: "(dp1
S'org.robofab.postScriptHintData'
p2
(dp3
sS'com.typemytype.robofont.layerData'
p4
(dp5
S'b'
(dp6
S'name'
p7
S'H'
sS'lib'
p8
(dp9
sS'unicodes'
p10
(tsS'width'
p11
I1506
sS'contours'
p12
(tsS'components'
p13
(tsS'anchors'
p14
(tsss."
VStem: 130 396 979 396
AnchorPoint: "top" 750 1152 basechar 0
LayerCount: 2
Fore
SplineSet
130 0 m 1
 526 0 l 1
 526 34 l 1
 350 34 l 1
 350 564 l 1
 1155 564 l 1
 1155 34 l 1
 979 34 l 1
 979 0 l 1
 1375 0 l 1
 1375 34 l 1
 1199 34 l 1
 1199 1118 l 1
 1375 1118 l 1
 1375 1152 l 1
 979 1152 l 1
 979 1118 l 1
 1155 1118 l 1
 1155 598 l 1
 350 598 l 1
 350 1118 l 1
 526 1118 l 1
 526 1152 l 1
 130 1152 l 1
 130 1118 l 1
 306 1118 l 1
 306 34 l 1
 130 34 l 1
 130 0 l 1
EndSplineSet
EndChar

StartChar: Hbar
Encoding: 294 294 52
Width: 1471
VWidth: 0
Flags: HW
PickledData: "(dp1
S'org.robofab.postScriptHintData'
p2
(dp3
sS'com.typemytype.robofont.layerData'
p4
(dp5
S'b'
(dp6
S'name'
p7
S'Hbar'
p8
sS'lib'
p9
(dp10
sS'unicodes'
p11
(tsS'width'
p12
I1471
sS'contours'
p13
(tsS'components'
p14
(tsS'anchors'
p15
(tsss."
VStem: 130 396 979 396
LayerCount: 2
Fore
SplineSet
151 839 m 1
 1316 839 l 1
 1316 877 l 1
 151 877 l 1
 151 839 l 1
EndSplineSet
Refer: 51 72 N 1 0 0 1 0 0 2
EndChar

StartChar: I
Encoding: 73 73 54
Width: 626
VWidth: 0
Flags: HW
PickledData: "(dp1
S'org.robofab.postScriptHintData'
p2
(dp3
sS'com.typemytype.robofont.layerData'
p4
(dp5
S'b'
(dp6
S'name'
p7
S'I'
sS'lib'
p8
(dp9
sS'unicodes'
p10
(tsS'width'
p11
I626
sS'contours'
p12
(tsS'components'
p13
(tsS'anchors'
p14
(tsss."
VStem: 114 396
AnchorPoint: "top" 316 1152 basechar 0
LayerCount: 2
Fore
SplineSet
114 0 m 1
 510 0 l 1
 510 34 l 1
 334 34 l 1
 334 1118 l 1
 510 1118 l 1
 510 1152 l 1
 114 1152 l 1
 114 1118 l 1
 290 1118 l 1
 290 34 l 1
 114 34 l 1
 114 0 l 1
EndSplineSet
EndChar

StartChar: J
Encoding: 74 74 65
Width: 551
VWidth: 0
Flags: HW
PickledData: "(dp1
S'org.robofab.postScriptHintData'
p2
(dp3
sS'com.typemytype.robofont.layerData'
p4
(dp5
S'b'
(dp6
S'name'
p7
S'J'
sS'lib'
p8
(dp9
sS'unicodes'
p10
(tsS'width'
p11
I551
sS'contours'
p12
(tsS'components'
p13
(tsS'anchors'
p14
(tsss."
HStem: -40 34<212 284.946>
VStem: 318 44<25.9224 173>
AnchorPoint: "top" 346 1152 basechar 0
LayerCount: 2
Fore
SplineSet
107 -40 m 1
 212 -40 l 2
 313 -39 362 -20 362 161 c 2
 362 1118 l 1
 483 1118 l 1
 483 1152 l 1
 189 1152 l 1
 189 1118 l 1
 318 1118 l 1
 318 173 l 2
 318 42 307 -6 229 -6 c 2
 107 -6 l 1
 107 -40 l 1
EndSplineSet
EndChar

StartChar: K
Encoding: 75 75 67
Width: 1304
VWidth: 0
Flags: HW
PickledData: "(dp1
S'org.robofab.postScriptHintData'
p2
(dp3
sS'com.typemytype.robofont.guides'
p4
((dp5
S'y'
I593
sS'x'
I467
sS'magnetic'
p6
I5
sS'angle'
p7
I0
sS'isGlobal'
p8
I0
stp9
sS'com.typemytype.robofont.layerData'
p10
(dp11
S'b'
(dp12
S'name'
p13
S'K'
sS'lib'
p14
(dp15
sS'unicodes'
p16
(tsS'width'
p17
I1304
sS'contours'
p18
(tsS'components'
p19
(tsS'anchors'
p20
(tsss."
VStem: 130 396
AnchorPoint: "top" 663 1152 basechar 0
LayerCount: 2
Fore
SplineSet
840 0 m 1
 1215 0 l 1
 1215 34 l 1
 1052 34 l 1
 408 588 l 1
 1004 1118 l 1
 1179 1118 l 1
 1179 1152 l 1
 794 1152 l 1
 794 1118 l 1
 954 1118 l 1
 350 589.749174917 l 1
 350 1118 l 1
 526 1118 l 1
 526 1152 l 1
 130 1152 l 1
 130 1118 l 1
 306 1118 l 1
 306 34 l 1
 130 34 l 1
 130 0 l 1
 526 0 l 1
 526 34 l 1
 350 34 l 1
 350 586.292758089 l 1
 997 34 l 1
 840 34 l 1
 840 0 l 1
EndSplineSet
EndChar

StartChar: L
Encoding: 76 76 69
Width: 1055
VWidth: 0
Flags: HW
PickledData: "(dp1
S'org.robofab.postScriptHintData'
p2
(dp3
sS'com.typemytype.robofont.layerData'
p4
(dp5
S'b'
(dp6
S'name'
p7
S'L'
sS'lib'
p8
(dp9
sS'unicodes'
p10
(tsS'width'
p11
I1055
sS'contours'
p12
(tsS'components'
p13
(tsS'anchors'
p14
(tsss."
VStem: 130 396
AnchorPoint: "caron.alt" 510 804 basechar 0
AnchorPoint: "top" 712 1152 basechar 0
LayerCount: 2
Fore
SplineSet
350 34 m 1
 350 1118 l 1
 526 1118 l 1
 526 1152 l 1
 130 1152 l 1
 130 1118 l 1
 306 1118 l 1
 306 34 l 1
 130 34 l 1
 130 0 l 1
 322 0 l 1
 526 0 l 1
 1002 0 l 1
 1002 358 l 1
 966 358 l 1
 966 34 l 1
 526 34 l 1
 350 34 l 1
EndSplineSet
EndChar

StartChar: Lslash
Encoding: 321 321 75
Width: 1243
VWidth: 0
Flags: HW
PickledData: "(dp1
S'org.robofab.postScriptHintData'
p2
(dp3
sS'com.typemytype.robofont.layerData'
p4
(dp5
S'b'
(dp6
S'name'
p7
S'Lslash'
p8
sS'lib'
p9
(dp10
sS'unicodes'
p11
(tsS'width'
p12
I1243
sS'contours'
p13
(tsS'components'
p14
(tsS'anchors'
p15
(tsss."
VStem: 130 396
LayerCount: 2
Fore
SplineSet
124 434 m 1
 524 691 l 1
 524 742 l 1
 124 481 l 1
 124 434 l 1
EndSplineSet
Refer: 69 76 N 1 0 0 1 0 0 2
EndChar

StartChar: M
Encoding: 77 77 76
Width: 1606
VWidth: 0
Flags: HW
PickledData: "(dp1
S'org.robofab.postScriptHintData'
p2
(dp3
sS'com.typemytype.robofont.layerData'
p4
(dp5
S'b'
(dp6
S'name'
p7
S'M'
sS'lib'
p8
(dp9
sS'unicodes'
p10
(tsS'width'
p11
I1606
sS'contours'
p12
(tsS'components'
p13
(tsS'anchors'
p14
(tsss."
AnchorPoint: "top" 795 1152 basechar 0
LayerCount: 2
Fore
SplineSet
146 0 m 1
 499 0 l 1
 499 34 l 1
 343 34 l 1
 343 1058 l 1
 818 105 l 1
 822 105 l 1
 1270 1058 l 1
 1270 34 l 1
 1112 34 l 1
 1112 0 l 1
 1467 0 l 1
 1467 34 l 1
 1314 34 l 1
 1314 1118 l 1
 1467 1118 l 1
 1467 1152 l 1
 1267 1152 l 1
 819 190 l 1
 342 1152 l 1
 146 1152 l 1
 146 1118 l 1
 299 1118 l 1
 299 34 l 1
 146 34 l 1
 146 0 l 1
EndSplineSet
EndChar

StartChar: N
Encoding: 78 78 78
Width: 1444
VWidth: 0
Flags: HW
PickledData: "(dp1
S'org.robofab.postScriptHintData'
p2
(dp3
sS'com.typemytype.robofont.layerData'
p4
(dp5
S'b'
(dp6
S'name'
p7
S'N'
sS'lib'
p8
(dp9
sS'unicodes'
p10
(tsS'width'
p11
I1444
sS'contours'
p12
(tsS'components'
p13
(tsS'anchors'
p14
(tsss."
AnchorPoint: "top" 721 1152 basechar 0
LayerCount: 2
Fore
SplineSet
140 0 m 1
 477 0 l 1
 477 34 l 1
 328 34 l 1
 328 1073 l 1
 1194 0 l 1
 1238 0 l 1
 1238 1118 l 1
 1361 1118 l 1
 1361 1152 l 1
 1043 1152 l 1
 1043 1118 l 1
 1194 1118 l 1
 1194 63 l 1
 318 1152 l 1
 140 1152 l 1
 140 1118 l 1
 284 1118 l 1
 284 34 l 1
 140 34 l 1
 140 0 l 1
EndSplineSet
EndChar

StartChar: O
Encoding: 79 79 84
Width: 1456
VWidth: 0
Flags: HW
PickledData: "(dp1
S'org.robofab.postScriptHintData'
p2
(dp3
sS'com.typemytype.robofont.layerData'
p4
(dp5
S'b'
(dp6
S'name'
p7
S'O'
sS'lib'
p8
(dp9
sS'unicodes'
p10
(tsS'width'
p11
I1456
sS'contours'
p12
(tsS'components'
p13
(tsS'anchors'
p14
(tsss."
HStem: -22 36<581.92 874.08> 1138 36<580.246 875.119>
VStem: 128 42<416.126 719.515> 1286 42<424.266 719.338>
AnchorPoint: "top" 727 1152 basechar 0
LayerCount: 2
Fore
SplineSet
728 14 m 0
 337 14 170 300 170 572 c 0
 170 832 341 1138 728 1138 c 0
 1110 1138 1286 832 1286 572 c 0
 1286 310 1110 14 728 14 c 0
728 -22 m 0
 1147 -22 1328 289 1328 572 c 0
 1328 851 1144 1174 728 1174 c 0
 313 1174 128 852 128 572 c 0
 128 291 309 -23 728 -22 c 0
EndSplineSet
EndChar

StartChar: OE
Encoding: 338 338 85
Width: 1953
VWidth: 0
Flags: W
PickledData: "(dp1
S'org.robofab.postScriptHintData'
p2
(dp3
sS'com.typemytype.robofont.layerData'
p4
(dp5
S'b'
(dp6
S'name'
p7
S'OE'
p8
sS'lib'
p9
(dp10
sS'unicodes'
p11
(tsS'width'
p12
I1953
sS'contours'
p13
(tsS'components'
p14
(tsS'anchors'
p15
(tsss."
HStem: 0 40<603.932 783> 1112 40<603.932 783>
VStem: 128 42<412.426 731.905>
LayerCount: 2
Fore
SplineSet
783 40 m 2
 403 40 170 240 170 570 c 0
 170 913 408 1112 783 1112 c 2
 998 1112 l 1
 998 40 l 1
 783 40 l 2
783 0 m 2
 1813 0 l 1
 1813 395 l 1
 1773 395 l 1
 1773 40 l 1
 1041 40 l 1
 1041 542 l 1
 1530 542 l 1
 1530 343 l 1
 1570 343 l 1
 1570 759 l 1
 1530 759 l 1
 1530 580 l 1
 1042 580 l 1
 1042 1112 l 1
 1743 1112 l 1
 1743 782 l 1
 1783 782 l 1
 1783 1152 l 1
 783 1152 l 2
 375 1152 129 935 128 570 c 0
 129 212 375 0 783 0 c 2
EndSplineSet
EndChar

StartChar: Omega
Encoding: 937 937 93
Width: 1426
VWidth: 0
Flags: W
PickledData: "(dp1
S'org.robofab.postScriptHintData'
p2
(dp3
s."
HStem: 1139 35<570.876 855.124>
VStem: 172 41<476.931 782.79> 1213 41<476.931 782.79>
LayerCount: 2
Fore
SplineSet
191 0 m 1
 548 0 l 1
 548 38 l 1
 324 177 213 420 213 636 c 0
 213 901 380 1139 713 1139 c 0
 1046 1139 1213 901 1213 636 c 0
 1213 420 1102 177 878 38 c 1
 878 0 l 1
 1235 0 l 1
 1235 34 l 1
 915 34 l 1
 1143 168 1254 409 1254 629 c 0
 1254 913 1070 1174 713 1174 c 0
 356 1174 172 913 172 629 c 0
 172 409 283 168 511 34 c 1
 191 34 l 1
 191 0 l 1
EndSplineSet
EndChar

StartChar: Oslash
Encoding: 216 216 94
Width: 1598
VWidth: 0
Flags: HW
PickledData: "(dp1
S'org.robofab.postScriptHintData'
p2
(dp3
sS'com.typemytype.robofont.layerData'
p4
(dp5
S'b'
(dp6
S'name'
p7
S'Oslash'
p8
sS'lib'
p9
(dp10
sS'unicodes'
p11
(tsS'width'
p12
I1598
sS'contours'
p13
(tsS'components'
p14
(tsS'anchors'
p15
(tsss."
HStem: -32 36<589.92 882.08> 1128 36<588.246 883.119>
VStem: 136 42<406.126 709.515> 1294 42<414.266 709.338>
LayerCount: 2
Fore
SplineSet
266 -71 m 1
 1239 1195 l 1
 1215 1213 l 1
 239 -51 l 1
 266 -71 l 1
EndSplineSet
Refer: 84 79 N 1 0 0 1 8 -10 2
EndChar

StartChar: P
Encoding: 80 80 97
Width: 1226
VWidth: 0
Flags: HW
PickledData: "(dp1
S'org.robofab.postScriptHintData'
p2
(dp3
sS'com.typemytype.robofont.layerData'
p4
(dp5
S'b'
(dp6
S'name'
p7
S'P'
sS'lib'
p8
(dp9
sS'unicodes'
p10
(tsS'width'
p11
I1226
sS'contours'
p12
((dp13
S'points'
p14
((dp15
S'segmentType'
p16
S'line'
p17
sS'x'
I353
sS'smooth'
p18
I0
sS'y'
I1095
s(dp19
g16
S'line'
p20
sS'x'
I759
sg18
I1
sS'y'
I1095
s(dp21
S'y'
I1095
sS'x'
I936
sg18
I0
s(dp22
S'y'
I960
sS'x'
I1024
sg18
I0
s(dp23
g16
S'curve'
p24
sS'x'
I1024
sg18
I1
sS'y'
I823
s(dp25
S'y'
I683
sS'x'
I1024
sg18
I0
s(dp26
S'y'
I544
sS'x'
I934
sg18
I0
s(dp27
g16
S'curve'
p28
sS'x'
I759
sg18
I1
sS'y'
I544
s(dp29
g16
S'line'
p30
sS'x'
I353
sg18
I0
sS'y'
I544
stp31
s(dp32
g14
((dp33
g16
S'line'
p34
sS'x'
I135
sg18
I0
sS'y'
I0
s(dp35
g16
S'line'
p36
sS'x'
I512
sg18
I0
sS'y'
I0
s(dp37
g16
S'line'
p38
sS'x'
I512
sg18
I0
sS'y'
I58
s(dp39
g16
S'line'
p40
sS'x'
I353
sg18
I0
sS'y'
I58
s(dp41
g16
S'line'
p42
sS'x'
I353
sg18
I0
sS'y'
I483
s(dp43
g16
S'line'
p44
sS'x'
I759
sg18
I1
sS'y'
I483
s(dp45
S'y'
I483
sS'x'
I984
sg18
I0
s(dp46
S'y'
I656
sS'x'
I1098
sg18
I0
s(dp47
g16
S'curve'
p48
sS'x'
I1098
sg18
I1
sS'y'
I826
s(dp49
S'y'
I989
sS'x'
I1098
sg18
I0
s(dp50
S'y'
I1154
sS'x'
I984
sg18
I0
s(dp51
g16
S'curve'
p52
sS'x'
I759
sg18
I1
sS'y'
I1154
s(dp53
g16
S'line'
p54
sS'x'
I122
sg18
I0
sS'y'
I1154
s(dp55
g16
S'line'
p56
sS'x'
I122
sg18
I0
sS'y'
I1095
s(dp57
g16
S'line'
p58
sS'x'
I278
sg18
I0
sS'y'
I1095
s(dp59
g16
S'line'
p60
sS'x'
I278
sg18
I0
sS'y'
I58
s(dp61
g16
S'line'
p62
sS'x'
I135
sg18
I0
sS'y'
I58
stp63
stp64
sS'components'
p65
(tsS'anchors'
p66
(tsss."
HStem: 500 34<766 866.374> 1118 34<753 858.634>
VStem: 130 396 1031 44<703.766 964.489>
AnchorPoint: "top" 680 1152 basechar 0
LayerCount: 2
Fore
SplineSet
448 500 m 1
 766 500 l 2
 960 500 1075 631 1075 852 c 0
 1075 1041 956 1152 754 1152 c 2
 526 1152 l 1
 326 1152 l 1
 130 1152 l 1
 130 1118 l 1
 306 1118 l 1
 306 34 l 1
 130 34 l 1
 130 0 l 1
 526 0 l 1
 526 34 l 1
 350 34 l 1
 350 1118 l 1
 526 1118 l 1
 753 1118 l 2
 927 1118 1030 1019 1031 851 c 0
 1032 652 934 534 767 534 c 2
 449 534 l 1
 448 500 l 1
EndSplineSet
EndChar

StartChar: Q
Encoding: 81 81 99
Width: 1438
VWidth: 0
Flags: HW
PickledData: "(dp1
S'org.robofab.postScriptHintData'
p2
(dp3
sS'com.typemytype.robofont.layerData'
p4
(dp5
S'b'
(dp6
S'name'
p7
S'Q'
sS'lib'
p8
(dp9
sS'unicodes'
p10
(tsS'width'
p11
I1438
sS'contours'
p12
(tsS'components'
p13
(tsS'anchors'
p14
(tsss."
HStem: -22 36<581.92 874.08> 1138 36<580.246 875.119>
VStem: 128 42<416.126 719.515> 1286 42<424.266 719.338>
LayerCount: 2
Fore
SplineSet
1154 -174 m 1
 1143 -146 l 1
 962 -206 907 -132 746 -4 c 1
 697 -6 l 1
 893 -156 948 -245 1154 -174 c 1
EndSplineSet
Refer: 84 79 N 1 0 0 1 0 0 2
EndChar

StartChar: R
Encoding: 82 82 100
Width: 1296
VWidth: 0
Flags: HW
PickledData: "(dp1
S'org.robofab.postScriptHintData'
p2
(dp3
sS'com.typemytype.robofont.layerData'
p4
(dp5
S'b'
(dp6
S'name'
p7
S'R'
sS'lib'
p8
(dp9
sS'unicodes'
p10
(tsS'width'
p11
I1296
sS'contours'
p12
((dp13
S'points'
p14
((dp15
S'segmentType'
p16
S'line'
p17
sS'x'
I135
sS'smooth'
p18
I0
sS'y'
I0
s(dp19
g16
S'line'
p20
sS'x'
I512
sg18
I0
sS'y'
I0
s(dp21
g16
S'line'
p22
sS'x'
I512
sg18
I0
sS'y'
I58
s(dp23
g16
S'line'
p24
sS'x'
I353
sg18
I0
sS'y'
I58
s(dp25
g16
S'line'
p26
sS'x'
I353
sg18
I0
sS'y'
I539
s(dp27
g16
S'line'
p28
sS'x'
I641
sg18
I0
sS'y'
I539
s(dp29
g16
S'line'
p30
sS'x'
I961
sg18
I0
sS'y'
I0
s(dp31
g16
S'line'
p32
sS'x'
I1178
sg18
I0
sS'y'
I0
s(dp33
g16
S'line'
p34
sS'x'
I1178
sg18
I0
sS'y'
I58
s(dp35
g16
S'line'
p36
sS'x'
I1015
sg18
I0
sS'y'
I58
s(dp37
g16
S'line'
p38
sS'x'
I721
sg18
I0
sS'y'
I539
s(dp39
S'y'
I539
sS'x'
I945
sg18
I0
s(dp40
S'y'
I696
sS'x'
I1059
sg18
I0
s(dp41
g16
S'curve'
p42
sS'x'
I1059
sg18
I1
sS'y'
I848
s(dp43
S'y'
I1000
sS'x'
I1059
sg18
I0
s(dp44
S'y'
I1154
sS'x'
I945
sg18
I0
s(dp45
g16
S'curve'
p46
sS'x'
I721
sg18
I1
sS'y'
I1154
s(dp47
g16
S'line'
p48
sS'x'
I122
sg18
I0
sS'y'
I1154
s(dp49
g16
S'line'
p50
sS'x'
I122
sg18
I0
sS'y'
I1095
s(dp51
g16
S'line'
p52
sS'x'
I278
sg18
I0
sS'y'
I1095
s(dp53
g16
S'line'
p54
sS'x'
I278
sg18
I0
sS'y'
I58
s(dp55
g16
S'line'
p56
sS'x'
I135
sg18
I0
sS'y'
I58
stp57
s(dp58
g14
((dp59
g16
S'line'
p60
sS'x'
I353
sg18
I0
sS'y'
I1095
s(dp61
g16
S'line'
p62
sS'x'
I721
sg18
I1
sS'y'
I1095
s(dp63
S'y'
I1095
sS'x'
I898
sg18
I0
s(dp64
S'y'
I971
sS'x'
I985
sg18
I0
s(dp65
g16
S'curve'
p66
sS'x'
I985
sg18
I1
sS'y'
I845
s(dp67
S'y'
I723
sS'x'
I985
sg18
I0
s(dp68
S'y'
I600
sS'x'
I896
sg18
I0
s(dp69
g16
S'curve'
p70
sS'x'
I721
sg18
I1
sS'y'
I600
s(dp71
g16
S'line'
p72
sS'x'
I353
sg18
I0
sS'y'
I600
stp73
stp74
sS'components'
p75
(tsS'anchors'
p76
(tsss."
HStem: 539 34<711 835.312> 1118 34<759 867.484>
VStem: 130 396 1036 42<735.265 959.594>
AnchorPoint: "top" 658 1152 basechar 0
LayerCount: 2
Fore
SplineSet
1000 0 m 1
 1198 0 l 1
 1198 34 l 1
 1029 34 l 1
 711 539 l 1
 996 539 1078 698 1078 845 c 0
 1078 988 995 1152 759 1152 c 2
 526 1152 l 1
 327 1152 l 1
 130 1152 l 1
 130 1118 l 1
 306 1118 l 1
 306 34 l 1
 130 34 l 1
 130 0 l 1
 526 0 l 1
 526 34 l 1
 350 34 l 1
 350 1118 l 1
 526 1118 l 1
 764 1118 l 2
 971 1118 1036 973 1036 845 c 0
 1036 727 978 573 702 573 c 2
 419 573 l 1
 419 539 l 1
 661 539 l 1
 1000 0 l 1
EndSplineSet
EndChar

StartChar: S
Encoding: 83 83 104
Width: 1143
VWidth: 0
Flags: HW
PickledData: "(dp1
S'org.robofab.postScriptHintData'
p2
(dp3
sS'com.typemytype.robofont.layerData'
p4
(dp5
S'b'
(dp6
S'name'
p7
S'S'
sS'lib'
p8
(dp9
sS'unicodes'
p10
(tsS'width'
p11
I1143
sS'contours'
p12
((dp13
S'points'
p14
((dp15
S'segmentType'
p16
S'curve'
p17
sS'x'
I636
sS'smooth'
p18
I1
sS'y'
S'-23'
p19
s(dp20
S'y'
S'-23'
p21
sS'x'
I930
sg18
I0
s(dp22
S'y'
I171
sS'x'
I1026
sg18
I0
s(dp23
g16
S'curve'
p24
sS'x'
I1026
sg18
I1
sS'y'
I295
s(dp25
S'y'
I543
sS'x'
I1026
sg18
I0
s(dp26
S'y'
I599
sS'x'
I829
sg18
I0
s(dp27
g16
S'curve'
p28
sS'x'
I606
sg18
I1
sS'y'
I622
s(dp29
S'y'
I643
sS'x'
I405
sg18
I0
s(dp30
S'y'
I667
sS'x'
I269
sg18
I0
s(dp31
g16
S'curve'
p32
sS'x'
I269
sg18
I1
sS'y'
I851
s(dp33
S'y'
I998
sS'x'
I269
sg18
I0
s(dp34
S'y'
I1104
sS'x'
I360
sg18
I0
s(dp35
g16
S'curve'
p36
sS'x'
I573
sg18
I1
sS'y'
I1104
s(dp37
S'y'
I1104
sS'x'
I719
sg18
I0
s(dp38
S'y'
I1024
sS'x'
I885
sg18
I0
s(dp39
g16
S'curve'
p40
sS'x'
I885
sg18
I1
sS'y'
I941
s(dp41
g16
S'line'
p42
sS'x'
I885
sg18
I0
sS'y'
I839
s(dp43
g16
S'line'
p44
sS'x'
I959
sg18
I0
sS'y'
I839
s(dp45
g16
S'line'
p46
sS'x'
I959
sg18
I0
sS'y'
I1152
s(dp47
g16
S'line'
p48
sS'x'
I885
sg18
I0
sS'y'
I1152
s(dp49
g16
S'line'
p50
sS'x'
I885
sg18
I0
sS'y'
I1049
s(dp51
S'y'
I1131
sS'x'
I828
sg18
I0
s(dp52
S'y'
I1172
sS'x'
I673
sg18
I0
s(dp53
g16
S'curve'
p54
sS'x'
I561
sg18
I1
sS'y'
I1172
s(dp55
S'y'
I1172
sS'x'
I360
sg18
I0
s(dp56
S'y'
I1066
sS'x'
I184
sg18
I0
s(dp57
g16
S'curve'
p58
sS'x'
I184
sg18
I1
sS'y'
I863
s(dp59
S'y'
I635
sS'x'
I184
sg18
I0
s(dp60
S'y'
I579
sS'x'
I332
sg18
I0
s(dp61
g16
S'curve'
p62
sS'x'
I584
sg18
I1
sS'y'
I553
s(dp63
S'y'
I531
sS'x'
I805
sg18
I0
s(dp64
S'y'
I488
sS'x'
I942
sg18
I0
s(dp65
g16
S'curve'
p66
sS'x'
I942
sg18
I1
sS'y'
I300
s(dp67
S'y'
I169
sS'x'
I942
sg18
I0
s(dp68
S'y'
I47
sS'x'
I831
sg18
I0
s(dp69
g16
S'curve'
p70
sS'x'
I644
sg18
I1
sS'y'
I47
s(dp71
S'y'
I47
sS'x'
I448
sg18
I0
s(dp72
S'y'
I118
sS'x'
I261
sg18
I0
s(dp73
g16
S'curve'
p74
sS'x'
I261
sg18
I1
sS'y'
I247
s(dp75
g16
S'line'
p76
sS'x'
I261
sg18
I0
sS'y'
I387
s(dp77
g16
S'line'
p78
sS'x'
I187
sg18
I0
sS'y'
I387
s(dp79
g16
S'line'
p80
sS'x'
I187
sg18
I0
sS'y'
S'-1'
p81
s(dp82
g16
S'line'
p83
sS'x'
I261
sg18
I0
sS'y'
S'-1'
p84
s(dp85
g16
S'line'
p86
sS'x'
I261
sg18
I0
sS'y'
I122
s(dp87
S'y'
I22
sS'x'
I335
sg18
I0
s(dp88
S'y'
S'-23'
p89
sS'x'
I496
sg18
I0
stp90
stp91
sS'components'
p92
(tsS'anchors'
p93
(tsss."
HStem: -22 36<453.017 781.758> 1138 36<435.413 707.617>
VStem: 181 44<178.322 231 745.34 973.82> 917 44<958 1018.47> 988 42<189.603 409.051>
AnchorPoint: "top" 584 1152 basechar 0
LayerCount: 2
Fore
SplineSet
641 -22 m 0
 985 -22 1030 197 1030 292 c 0
 1030 562 831 578 614 598 c 0
 410 617 222 638 222 856 c 0
 222 1011 325 1138 577 1138 c 0
 779 1138 918 1044 918 958 c 2
 917 847 l 1
 961 847 l 1
 961 1152 l 1
 917 1152 l 1
 917 1037 l 1
 868 1127 690 1174 573 1174 c 0
 357 1174 180 1074 180 859 c 0
 180 599 402 576 609 560 c 0
 836 542 988 512 988 300 c 0
 988 158 906 14 644 14 c 0
 390 14 266 80 225 231 c 1
 225 387 l 1
 181 387 l 1
 181 -1 l 1
 225 -1 l 1
 225 153 l 1
 276 24 434 -22 641 -22 c 0
EndSplineSet
EndChar

StartChar: Sigma
Encoding: 931 931 112
Width: 838
VWidth: 0
Flags: W
PickledData: "(dp1
S'org.robofab.postScriptHintData'
p2
(dp3
s."
LayerCount: 2
Fore
SplineSet
122 0 m 1
 811 0 l 1
 811 34 l 1
 177 34 l 1
 599 569 l 1
 193 1118 l 1
 777 1118 l 1
 777 1152 l 1
 139 1152 l 1
 139 1124 l 1
 549 569 l 1
 122 31 l 1
 122 0 l 1
EndSplineSet
EndChar

StartChar: T
Encoding: 84 84 113
Width: 1147
VWidth: 0
Flags: HW
PickledData: "(dp1
S'org.robofab.postScriptHintData'
p2
(dp3
sS'com.typemytype.robofont.layerData'
p4
(dp5
S'b'
(dp6
S'name'
p7
S'T'
sS'lib'
p8
(dp9
sS'unicodes'
p10
(tsS'width'
p11
I1147
sS'contours'
p12
(tsS'components'
p13
(tsS'anchors'
p14
(tsss."
VStem: 367 396
AnchorPoint: "top" 566 1152 basechar 0
LayerCount: 2
Fore
SplineSet
52 777 m 1
 92 777 l 1
 92 1118 l 1
 367 1118 l 1
 543 1118 l 1
 543 34 l 1
 367 34 l 1
 367 0 l 1
 763 0 l 1
 763 34 l 1
 587 34 l 1
 587 1118 l 1
 763 1118 l 1
 1053 1118 l 1
 1053 777 l 1
 1097 777 l 1
 1097 1152 l 1
 763 1152 l 1
 367 1152 l 1
 52 1152 l 1
 52 777 l 1
EndSplineSet
EndChar

StartChar: Thorn
Encoding: 222 222 118
Width: 1226
VWidth: 0
Flags: W
PickledData: "(dp1
S'org.robofab.postScriptHintData'
p2
(dp3
sS'com.typemytype.robofont.layerData'
p4
(dp5
S'b'
(dp6
S'name'
p7
S'Thorn'
p8
sS'lib'
p9
(dp10
sS'unicodes'
p11
(tsS'width'
p12
I1226
sS'contours'
p13
(tsS'components'
p14
(tsS'anchors'
p15
(tsss."
HStem: 342 34<743 843.556> 880 34<730 846.703>
VStem: 130 396 1008 44<529.835 751.17>
AnchorPoint: "top" 680 1152 basechar 0
LayerCount: 2
Fore
SplineSet
130 0 m 1
 526 0 l 1
 526 34 l 1
 350 34 l 1
 350 1118 l 1
 526 1118 l 1
 526 1152 l 1
 130 1152 l 1
 130 1118 l 1
 306 1118 l 1
 306 34 l 1
 130 34 l 1
 130 0 l 1
448 342 m 1
 743 342 l 2
 937 342 1052 458 1052 654 c 0
 1052 817 933 914 731 914 c 2
 326 914 l 1
 326 880 l 1
 730 880 l 2
 904 880 1007 796 1008 653 c 0
 1009 479 911 376 744 376 c 2
 449 376 l 1
 448 342 l 1
EndSplineSet
EndChar

StartChar: U
Encoding: 85 85 119
Width: 1514
VWidth: 0
Flags: HW
PickledData: "(dp1
S'org.robofab.postScriptHintData'
p2
(dp3
sS'com.typemytype.robofont.layerData'
p4
(dp5
S'b'
(dp6
S'name'
p7
S'U'
sS'lib'
p8
(dp9
sS'unicodes'
p10
(tsS'width'
p11
I1514
sS'contours'
p12
(tsS'components'
p13
(tsS'anchors'
p14
(tsss."
HStem: -22 36<590.549 910.985>
VStem: 243 45<255.36 372> 1238 45<256.979 368>
AnchorPoint: "top" 758 1152 basechar 0
LayerCount: 2
Fore
SplineSet
745 -22 m 0
 1061 -22 1283 136 1283 368 c 2
 1283 1118 l 1
 1442 1118 l 1
 1442 1152 l 1
 1087 1152 l 1
 1087 1118 l 1
 1238 1118 l 1
 1238 368 l 2
 1238 157 1035 14 745 14 c 0
 474 14 288 159 288 372 c 2
 288 1118 l 1
 439 1118 l 1
 439 1152 l 1
 90 1152 l 1
 90 1118 l 1
 243 1118 l 1
 243 368 l 2
 243 136 452 -22 745 -22 c 0
EndSplineSet
EndChar

StartChar: V
Encoding: 86 86 130
Width: 1228
VWidth: 0
Flags: HW
PickledData: "(dp1
S'org.robofab.postScriptHintData'
p2
(dp3
sS'com.typemytype.robofont.layerData'
p4
(dp5
S'b'
(dp6
S'name'
p7
S'V'
sS'lib'
p8
(dp9
sS'unicodes'
p10
(tsS'width'
p11
I1228
sS'contours'
p12
(tsS'components'
p13
(tsS'anchors'
p14
(tsss."
LayerCount: 2
Fore
SplineSet
591 0 m 1
 641 0 l 1
 1063 1118 l 1
 1184 1118 l 1
 1184 1152 l 1
 847 1152 l 1
 847 1118 l 1
 1004 1118 l 1
 615 58 l 1
 224 1118 l 1
 385 1118 l 1
 385 1152 l 1
 39 1152 l 1
 39 1118 l 1
 175 1118 l 1
 591 0 l 1
EndSplineSet
EndChar

StartChar: W
Encoding: 87 87 131
Width: 1962
VWidth: 0
Flags: HW
PickledData: "(dp1
S'org.robofab.postScriptHintData'
p2
(dp3
sS'com.typemytype.robofont.layerData'
p4
(dp5
S'b'
(dp6
S'name'
p7
S'W'
sS'lib'
p8
(dp9
sS'unicodes'
p10
(tsS'width'
p11
I1962
sS'contours'
p12
(tsS'components'
p13
(tsS'anchors'
p14
(tsss."
AnchorPoint: "top" 977 1152 basechar 0
LayerCount: 2
Fore
SplineSet
601 0 m 1
 654 0 l 1
 980 984 l 1
 1318 0 l 1
 1369 0 l 1
 1748 1118 l 1
 1886 1118 l 1
 1886 1152 l 1
 1535 1152 l 1
 1535 1118 l 1
 1692 1118 l 1
 1343 48 l 1
 993 1087 l 1
 958 1087 l 1
 627 48 l 1
 264 1118 l 1
 427 1118 l 1
 427 1152 l 1
 76 1152 l 1
 76 1118 l 1
 213 1118 l 1
 601 0 l 1
EndSplineSet
EndChar

StartChar: X
Encoding: 88 88 136
Width: 1293
VWidth: 0
Flags: HW
PickledData: "(dp1
S'org.robofab.postScriptHintData'
p2
(dp3
sS'com.typemytype.robofont.layerData'
p4
(dp5
S'b'
(dp6
S'name'
p7
S'X'
sS'lib'
p8
(dp9
sS'unicodes'
p10
(tsS'width'
p11
I1293
sS'contours'
p12
(tsS'components'
p13
(tsS'anchors'
p14
(tsss."
LayerCount: 2
Fore
SplineSet
118 0 m 1
 458 0 l 1
 458 34 l 1
 308 34 l 1
 649 555 l 1
 998 34 l 1
 843 34 l 1
 843 0 l 1
 1180 0 l 1
 1180 34 l 1
 1033 34 l 1
 668 585 l 1
 1015 1118 l 1
 1161 1118 l 1
 1161 1152 l 1
 814 1152 l 1
 814 1118 l 1
 966 1118 l 1
 642 628 l 1
 315 1118 l 1
 469 1118 l 1
 469 1152 l 1
 130 1152 l 1
 130 1118 l 1
 278 1118 l 1
 624 597 l 1
 254 34 l 1
 118 34 l 1
 118 0 l 1
EndSplineSet
EndChar

StartChar: Y
Encoding: 89 89 137
Width: 1254
VWidth: 0
Flags: HW
PickledData: "(dp1
S'org.robofab.postScriptHintData'
p2
(dp3
sS'com.typemytype.robofont.layerData'
p4
(dp5
S'b'
(dp6
S'name'
p7
S'Y'
sS'lib'
p8
(dp9
sS'unicodes'
p10
(tsS'width'
p11
I1254
sS'contours'
p12
(tsS'components'
p13
(tsS'anchors'
p14
(tsss."
AnchorPoint: "top" 632 1152 basechar 0
LayerCount: 2
Fore
SplineSet
436 0 m 1
 816 0 l 1
 816 34 l 1
 648 34 l 1
 648 459 l 1
 1085 1118 l 1
 1237 1118 l 1
 1237 1152 l 1
 873 1152 l 1
 873 1118 l 1
 1035 1118 l 1
 626 501 l 1
 217 1118 l 1
 369 1118 l 1
 369 1152 l 1
 12 1152 l 1
 12 1118 l 1
 169 1118 l 1
 604 459 l 1
 604 34 l 1
 436 34 l 1
 436 0 l 1
EndSplineSet
EndChar

StartChar: Z
Encoding: 90 90 142
Width: 1241
VWidth: 0
Flags: HW
PickledData: "(dp1
S'org.robofab.postScriptHintData'
p2
(dp3
sS'com.typemytype.robofont.layerData'
p4
(dp5
S'b'
(dp6
S'name'
p7
S'Z'
sS'lib'
p8
(dp9
sS'unicodes'
p10
(tsS'width'
p11
I1241
sS'contours'
p12
(tsS'components'
p13
(tsS'anchors'
p14
(tsss."
AnchorPoint: "top" 648 1152 basechar 0
LayerCount: 2
Fore
SplineSet
143 0 m 1
 1091 0 l 1
 1091 359 l 1
 1051 359 l 1
 1051 34 l 1
 191 34 l 1
 1062 1117 l 1
 1062 1152 l 1
 171 1152 l 1
 171 808 l 1
 211 808 l 1
 211 1118 l 1
 1014 1118 l 1
 143 36 l 1
 143 0 l 1
EndSplineSet
EndChar

StartChar: a
Encoding: 97 97 146
Width: 951
VWidth: 0
Flags: HW
PickledData: "(dp1
S'org.robofab.postScriptHintData'
p2
(dp3
sS'com.typemytype.robofont.layerData'
p4
(dp5
S'b'
(dp6
S'name'
p7
S'a'
sS'lib'
p8
(dp9
sS'unicodes'
p10
(tsS'width'
p11
I951
sS'contours'
p12
((dp13
S'points'
p14
((dp15
S'segmentType'
p16
S'curve'
p17
sS'x'
I391
sS'smooth'
p18
I1
sS'y'
S'-14'
p19
s(dp20
S'y'
S'-14'
p21
sS'x'
I507
sg18
I0
s(dp22
S'y'
I21
sS'x'
I593
sg18
I0
s(dp23
g16
S'curve'
p24
sS'x'
I687
sg18
I0
sS'y'
I91
s(dp25
g16
S'line'
p26
sS'x'
I703
sg18
I0
sS'y'
S'-1'
p27
s(dp28
g16
S'line'
p29
sS'x'
I890
sg18
I0
sS'y'
S'-1'
p30
s(dp31
g16
S'line'
p32
sS'x'
I890
sg18
I0
sS'y'
I57
s(dp33
g16
S'line'
p34
sS'x'
I764
sg18
I0
sS'y'
I57
s(dp35
g16
S'line'
p36
sS'x'
I764
sg18
I1
sS'y'
I569
s(dp37
S'y'
I672
sS'x'
I764
sg18
I0
s(dp38
S'y'
I819
sS'x'
I710
sg18
I0
s(dp39
g16
S'curve'
p40
sS'x'
I461
sg18
I1
sS'y'
I819
s(dp41
S'y'
I819
sS'x'
I332
sg18
I0
s(dp42
S'y'
I792
sS'x'
I226
sg18
I0
s(dp43
g16
S'curve'
p44
sS'x'
I155
sg18
I0
sS'y'
I724
s(dp45
g16
S'line'
p46
sS'x'
I190
sg18
I0
sS'y'
I668
s(dp47
S'y'
I726
sS'x'
I247
sg18
I0
s(dp48
S'y'
I755
sS'x'
I339
sg18
I0
s(dp49
g16
S'curve'
p50
sS'x'
I459
sg18
I1
sS'y'
I755
s(dp51
S'y'
I755
sS'x'
I600
sg18
I0
s(dp52
S'y'
I706
sS'x'
I687
sg18
I0
s(dp53
g16
S'curve'
p54
sS'x'
I687
sg18
I1
sS'y'
I551
s(dp55
g16
S'line'
p56
sS'x'
I687
sg18
I0
sS'y'
I428
s(dp57
S'y'
I443
sS'x'
I609
sg18
I0
s(dp58
S'y'
I455
sS'x'
I539
sg18
I0
s(dp59
g16
S'curve'
p60
sS'x'
I465
sg18
I1
sS'y'
I455
s(dp61
S'y'
I455
sS'x'
I295
sg18
I0
s(dp62
S'y'
I433
sS'x'
I117
sg18
I0
s(dp63
g16
S'curve'
p64
sS'x'
I117
sg18
I1
sS'y'
I222
s(dp65
S'y'
I96
sS'x'
I117
sg18
I0
s(dp66
S'y'
S'-14'
p67
sS'x'
I206
sg18
I0
stp68
s(dp69
g14
((dp70
g16
S'curve'
p71
sS'x'
I401
sg18
I1
sS'y'
I50
s(dp72
S'y'
I50
sS'x'
I246
sg18
I0
s(dp73
S'y'
I142
sS'x'
I195
sg18
I0
s(dp74
g16
S'curve'
p75
sS'x'
I195
sg18
I1
sS'y'
I220
s(dp76
S'y'
I390
sS'x'
I195
sg18
I0
s(dp77
S'y'
I393
sS'x'
I346
sg18
I0
s(dp78
g16
S'curve'
p79
sS'x'
I462
sg18
I1
sS'y'
I393
s(dp80
S'y'
I393
sS'x'
I559
sg18
I0
s(dp81
S'y'
I368
sS'x'
I687
sg18
I0
s(dp82
g16
S'curve'
p83
sS'x'
I687
sg18
I0
sS'y'
I368
s(dp84
g16
S'line'
p85
sS'x'
I687
sg18
I0
sS'y'
I151
s(dp86
S'y'
I76
sS'x'
I606
sg18
I0
s(dp87
S'y'
I50
sS'x'
I511
sg18
I0
stp88
stp89
sS'components'
p90
(tsS'anchors'
p91
(tsss."
HStem: -22 34<303.9 517.817> 416 34<300.419 586.385> 792 34<346.423 578.943>
VStem: 133 42<124.626 310.04> 719 44<107.486 118 379 382.052 540 658.056> 735 28<34 83.9333>
AnchorPoint: "top" 475 805 basechar 0
LayerCount: 2
Fore
SplineSet
402 -22 m 0
 493 -22 596 11 721 84 c 1
 721 84 735 -8 735 0 c 1
 886 0 l 1
 886 34 l 1
 763 34 l 1
 763 558 l 2
 763 669 714 826 468 826 c 0
 398 826 293 805 182 763 c 1
 195 726 l 1
 279 759 377 792 477 792 c 0
 618 792 719 714 719 540 c 2
 719 414 l 1
 617 432 506 450 406 450 c 0
 262 450 133 395 133 217 c 0
 133 73 240 -22 402 -22 c 0
400 12 m 0
 255 12 175 108 175 215 c 0
 175 364 283 416 407 416 c 0
 502 416 607 395 719 379 c 1
 719 118 l 1
 579 41 498 12 400 12 c 0
EndSplineSet
EndChar

StartChar: acute
Encoding: 180 180 150
Width: 129
VWidth: 0
Flags: W
PickledData: "(dp1
S'org.robofab.postScriptHintData'
p2
(dp3
sS'com.typemytype.robofont.layerData'
p4
(dp5
S'b'
(dp6
S'name'
p7
S'acute'
p8
sS'lib'
p9
(dp10
sS'unicodes'
p11
(tsS'width'
p12
I129
sS'contours'
p13
(tsS'components'
p14
(tsS'anchors'
p15
(tsss."
HStem: 991 245
AnchorPoint: "top" 4 804 mark 0
LayerCount: 2
Fore
SplineSet
87 1236 m 1
 0 991 l 1
 21 991 l 1
 129 1236 l 1
 87 1236 l 1
EndSplineSet
EndChar

StartChar: ae
Encoding: 230 230 152
Width: 1657
VWidth: 0
Flags: W
PickledData: "(dp1
S'org.robofab.postScriptHintData'
p2
(dp3
sS'com.typemytype.robofont.layerData'
p4
(dp5
S'b'
(dp6
S'name'
p7
S'ae'
p8
sS'lib'
p9
(dp10
sS'unicodes'
p11
(tsS'width'
p12
I1657
sS'contours'
p13
(tsS'components'
p14
(tsS'anchors'
p15
(tsss."
HStem: -22 34<321.101 612.008 1018.08 1268.74> 394 34<354.922 563> 792 34<383.712 632.15 1044.74 1264.95>
VStem: 154 42<114.285 295.69> 767 39<245.421 394 428 648.5> 1475 36<427 552.837>
AnchorPoint: "top" 889 804 basechar 0
LayerCount: 2
Fore
SplineSet
1475 427 m 1
 806 428 l 1
 813 613 923 792 1154 792 c 0
 1352 792 1475 655 1475 427 c 1
439 12 m 0
 269 12 196 86 196 215 c 0
 196 366 338 394 561 394 c 2
 767 394 l 1
 767 325 784 212 820 140 c 1
 725 44 602 12 439 12 c 0
439 -22 m 0
 551 -22 706 -12 838 111 c 1
 913 13 1019 -22 1148 -22 c 0
 1322 -22 1394 25 1520 142 c 1
 1504 173 l 1
 1409 68 1279 12 1148 12 c 0
 907 12 804 140 806 394 c 1
 1511 394 l 1
 1511 685 1364 826 1154 826 c 0
 977 826 838 733 799 556 c 1
 793 738 719 826 504 826 c 0
 375 826 267 782 194 712 c 1
 217 682 l 1
 277 743 377 792 504 792 c 0
 680 792 767 729 767 535 c 2
 767 428 l 1
 563 428 l 2
 327 428 154 391 154 215 c 0
 154 62 243 -22 439 -22 c 0
EndSplineSet
EndChar

StartChar: ampersand
Encoding: 38 38 157
Width: 1088
VWidth: 0
Flags: W
PickledData: "(dp1
S'org.robofab.postScriptHintData'
p2
(dp3
sS'com.typemytype.robofont.layerData'
p4
(dp5
S'b'
(dp6
S'name'
p7
S'ampersand'
p8
sS'lib'
p9
(dp10
sS'unicodes'
p11
(tsS'width'
p12
I1088
sS'contours'
p13
(tsS'components'
p14
(tsS'anchors'
p15
(tsss."
HStem: -22 36<349.186 607.954> 1136 36<357.504 580.391>
VStem: 120 42<178.583 426.629> 209 36<882.49 1041> 685 42<869.791 1049.55> 877 33<328.738 400>
LayerCount: 2
Fore
SplineSet
412 656 m 1
 324 767 245 867 245 967 c 0
 245 1073 332 1136 470 1136 c 0
 608 1136 685 1075 685 966 c 0
 685 832 578 717 412 656 c 1
476 14 m 0
 274 14 162 115 162 303 c 0
 162 458 238 565 397 610 c 1
 776 134 l 1
 712 56 602 14 476 14 c 0
476 -22 m 0
 617 -22 736 26 799 106 c 1
 882 0 l 1
 1042 0 l 1
 1042 34 l 1
 901 34 l 1
 823 132 l 1
 865 199 910 349 910 400 c 1
 1042 400 l 1
 1042 433 l 1
 877 433 l 1
 877 369 838 223 803 161 c 1
 429 628 l 1
 611 700 727 825 727 966 c 0
 727 1098 635 1172 470 1172 c 0
 302 1172 209 1099 209 967 c 0
 209 869 276 765 376 642 c 1
 202 587 120 470 120 303 c 0
 120 92 247 -22 476 -22 c 0
EndSplineSet
EndChar

StartChar: apostrophemod
Encoding: 700 700 159
Width: 600
VWidth: 0
Flags: W
PickledData: "(dp1
S'org.robofab.postScriptHintData'
p2
(dp3
s."
HStem: 922 18<45 75.3125>
VStem: 104 33<966.153 1079>
AnchorPoint: "top" 58 804 mark 0
LayerCount: 2
Fore
SplineSet
45 922 m 1
 127 922 137 994 137 1073 c 2
 138 1175 l 1
 55 1176 l 1
 55 1079 l 1
 104 1079 l 1
 104 967 95 946 45 940 c 1
 45 922 l 1
EndSplineSet
EndChar

StartChar: approxequal
Encoding: 8776 8776 160
Width: 600
VWidth: 0
Flags: W
PickledData: "(dp1
S'org.robofab.postScriptHintData'
p2
(dp3
s."
HStem: 395 56<310.087 518.854> 465 56<47.5696 255.023> 595 56<310.087 518.854> 665 56<47.5696 255.023>
VStem: 28 522
LayerCount: 2
Fore
SplineSet
550 493 m 1
 496 466 462 451 421 451 c 0
 389 451 354 461 303 481 c 0
 243 504 193 521 145 521 c 0
 107 521 69 510 28 481 c 1
 28 427 l 1
 68 454 102 465 137 465 c 0
 180 465 223 449 278 429 c 0
 333 407 376 395 416 395 c 0
 459 395 500 409 550 440 c 1
 550 493 l 1
550 693 m 1
 496 666 462 651 421 651 c 0
 389 651 354 661 303 681 c 0
 243 704 193 721 145 721 c 0
 107 721 69 710 28 681 c 1
 28 627 l 1
 68 654 102 665 137 665 c 0
 180 665 223 649 278 629 c 0
 333 607 376 595 416 595 c 0
 459 595 500 609 550 640 c 1
 550 693 l 1
EndSplineSet
EndChar

StartChar: asciicircum
Encoding: 94 94 162
Width: 911
VWidth: 0
Flags: W
PickledData: "(dp1
S'org.robofab.postScriptHintData'
p2
(dp3
sS'com.typemytype.robofont.layerData'
p4
(dp5
S'b'
(dp6
S'name'
p7
S'asciicircum'
p8
sS'lib'
p9
(dp10
sS'unicodes'
p11
(tsS'width'
p12
I911
sS'contours'
p13
(tsS'components'
p14
(tsS'anchors'
p15
(tsss."
LayerCount: 2
Fore
SplineSet
70 823 m 1
 113 823 l 1
 463 1244 l 1
 795 823 l 1
 836 823 l 1
 492 1289 l 1
 434 1289 l 1
 70 823 l 1
EndSplineSet
EndChar

StartChar: asciitilde
Encoding: 126 126 163
Width: 708
VWidth: 0
Flags: W
PickledData: "(dp1
S'org.robofab.postScriptHintData'
p2
(dp3
sS'com.typemytype.robofont.layerData'
p4
(dp5
S'b'
(dp6
S'name'
p7
S'asciitilde'
p8
sS'lib'
p9
(dp10
sS'unicodes'
p11
(tsS'width'
p12
I708
sS'contours'
p13
(tsS'components'
p14
(tsS'anchors'
p15
(tsss."
HStem: 532 40<412.279 588.281>
VStem: 63 570
LayerCount: 2
Fore
SplineSet
633 620 m 1
 600 592 552 572 504 572 c 0
 403 573 314 652 219 660 c 0
 170 664 130 657 63 616 c 1
 63 572 l 1
 113 606 162 624 215 619 c 0
 302 611 378 534 500 532 c 0
 560 531 591 545 633 576 c 1
 633 620 l 1
EndSplineSet
EndChar

StartChar: asterisk
Encoding: 42 42 164
Width: 941
VWidth: 0
Flags: W
PickledData: "(dp1
S'org.robofab.postScriptHintData'
p2
(dp3
sS'com.typemytype.robofont.layerData'
p4
(dp5
S'b'
(dp6
S'name'
p7
S'asterisk'
p8
sS'lib'
p9
(dp10
sS'unicodes'
p11
(tsS'width'
p12
I941
sS'contours'
p13
(tsS'components'
p14
(tsS'anchors'
p15
(tsss."
HStem: 817 21G<410.343 452.663 489.289 531.429>
LayerCount: 2
Fore
SplineSet
240 417 m 1
 471 765 l 1
 700 417 l 1
 765 466 l 1
 493 788 l 1
 896 920 l 1
 868 992 l 1
 488 817 l 1
 515 1236 l 1
 426 1236 l 1
 454 817 l 1
 72 992 l 1
 44 920 l 1
 447 788 l 1
 176 466 l 1
 240 417 l 1
EndSplineSet
EndChar

StartChar: at
Encoding: 64 64 165
Width: 1379
VWidth: 0
Flags: W
PickledData: "(dp1
S'org.robofab.postScriptHintData'
p2
(dp3
sS'com.typemytype.robofont.layerData'
p4
(dp5
S'b'
(dp6
S'name'
p7
S'at'
p8
sS'lib'
p9
(dp10
sS'unicodes'
p11
(tsS'width'
p12
I1379
sS'contours'
p13
(tsS'components'
p14
(tsS'anchors'
p15
(tsss."
HStem: -25 29<600.349 910.517> 250 29<555.054 702.174> 862 32<619.872 789.782> 1127 29<608.677 871.2>
VStem: 118 44<384.68 702.626> 391 41<401.868 652.297> 897 23<683 734.475> 1233 34<553.558 802.609>
LayerCount: 2
Fore
SplineSet
631 279 m 0
 498 279 432 381 432 518 c 0
 432 706 538 862 703 862 c 0
 821 862 897 796 897 650 c 0
 897 483 792 279 631 279 c 0
750 -25 m 0
 916 -25 1028 10 1123 78 c 1
 1111 96 l 1
 1017 34 900 4 750 4 c 0
 377 4 162 219 162 543 c 0
 162 876 402 1127 737 1127 c 0
 1081 1127 1233 908 1233 678 c 0
 1233 420 1052 275 956 279 c 0
 893 282 879 323 912 475 c 2
 1000 874 l 1
 958 874 l 1
 920 683 l 1
 920 813 831 894 707 894 c 0
 492 894 391 699 391 519 c 0
 391 341 498 250 626 250 c 0
 750.756347919 250 835.911613419 342.095540509 879.698180057 464.420065529 c 1
 825.809746649 299.233701072 887.640441084 254.850868845 941 250 c 0
 1080 238 1267 419 1267 678 c 0
 1267 918 1117 1156 741 1156 c 0
 339 1156 118 844 118 545 c 0
 118 251 317 -25 750 -25 c 0
EndSplineSet
EndChar

StartChar: b
Encoding: 98 98 167
Width: 1037
VWidth: 0
Flags: HW
PickledData: "(dp1
S'org.robofab.postScriptHintData'
p2
(dp3
sS'com.typemytype.robofont.layerData'
p4
(dp5
S'b'
(dp6
S'name'
p7
S'b'
sS'lib'
p8
(dp9
sS'unicodes'
p10
(tsS'width'
p11
I1037
sS'contours'
p12
(tsS'components'
p13
(tsS'anchors'
p14
(tsss."
HStem: -22 34<436.339 669.7> 792 34<451.916 677.37>
VStem: 66 184 932 42<266.381 544.598>
AnchorPoint: "top" 599 804 basechar 0
LayerCount: 2
Fore
SplineSet
545 -22 m 0
 805 -22 970 141 974 400 c 0
 979 662 820 826 561 826 c 0
 459.453226019 826 342.004885703 782.479923715 250 712.284038938 c 1
 250 1174 l 1
 74 1174 l 1
 74 1140 l 1
 206 1140 l 1
 206 34 l 1
 66 34 l 1
 66 0 l 1
 250 0 l 1
 250 98.5196992715 l 1
 330.060995284 23.5534727554 440.377589689 -22 545 -22 c 0
250 674.894361696 m 1
 346.015421043 747.281195096 463.632722953 792 561 792 c 0
 789 792 932 641 932 400 c 0
 932 162 783 12 545 12 c 0
 441.958079346 12 331.563224195 60.2025705844 250 139.623119807 c 1
 250 674.894361696 l 1
EndSplineSet
EndChar

StartChar: backslash
Encoding: 92 92 168
Width: 296
VWidth: 0
Flags: W
PickledData: "(dp1
S'org.robofab.postScriptHintData'
p2
(dp3
sS'com.typemytype.robofont.layerData'
p4
(dp5
S'b'
(dp6
S'name'
p7
S'backslash'
p8
sS'lib'
p9
(dp10
sS'unicodes'
p11
(tsS'width'
p12
I296
sS'contours'
p13
(tsS'components'
p14
(tsS'anchors'
p15
(tsss."
LayerCount: 2
Fore
SplineSet
272 -25 m 1
 320 -25 l 1
 7 1172 l 1
 -35 1172 l 1
 272 -25 l 1
EndSplineSet
EndChar

StartChar: bar
Encoding: 124 124 169
Width: 348
VWidth: 0
Flags: W
PickledData: "(dp1
S'org.robofab.postScriptHintData'
p2
(dp3
sS'com.typemytype.robofont.layerData'
p4
(dp5
S'b'
(dp6
S'name'
p7
S'bar'
p8
sS'lib'
p9
(dp10
sS'unicodes'
p11
(tsS'width'
p12
I348
sS'contours'
p13
(tsS'components'
p14
(tsS'anchors'
p15
(tsss."
VStem: 159 41
LayerCount: 2
Fore
SplineSet
159 6 m 1
 200 6 l 1
 200 1180 l 1
 159 1180 l 1
 159 6 l 1
EndSplineSet
EndChar

StartChar: braceleft
Encoding: 123 123 171
Width: 404
VWidth: 0
Flags: W
PickledData: "(dp1
S'org.robofab.postScriptHintData'
p2
(dp3
sS'com.typemytype.robofont.layerData'
p4
(dp5
S'b'
(dp6
S'name'
p7
S'braceleft'
p8
sS'lib'
p9
(dp10
sS'unicodes'
p11
(tsS'width'
p12
I404
sS'contours'
p13
(tsS'components'
p14
(tsS'anchors'
p15
(tsss."
HStem: 12 33<257.518 361> 543 66<8 89.4367> 1106 35<254.441 361>
VStem: 141 61<81.2573 514.831 634.475 1070.86>
LayerCount: 2
Fore
SplineSet
304 12 m 2
 361 12 l 1
 361 45 l 1
 240 45 202 71 202 218 c 0
 202 442.25671609 194.525107802 570.274195124 89.2577168518 575.860331138 c 1
 191.740747666 579.012471733 202.000000003 707.536567245 202 920 c 0
 202 1082 233 1106 361 1106 c 1
 361 1141 l 1
 305 1141 l 2
 147 1141 141 1031 141 834 c 0
 141 657 146 609 8 609 c 1
 8 543 l 1
 136 543 141 503 141 345 c 0
 141 124 146 12 304 12 c 2
EndSplineSet
EndChar

StartChar: braceright
Encoding: 125 125 172
Width: 406
VWidth: 0
Flags: W
PickledData: "(dp1
S'org.robofab.postScriptHintData'
p2
(dp3
sS'com.typemytype.robofont.layerData'
p4
(dp5
S'b'
(dp6
S'name'
p7
S'braceright'
p8
sS'lib'
p9
(dp10
sS'unicodes'
p11
(tsS'width'
p12
I406
sS'contours'
p13
(tsS'components'
p14
(tsS'anchors'
p15
(tsss."
HStem: 12 33<32 136.134> 543 66<304.756 386> 1106 35<32 139.754>
VStem: 191 63<79.0354 515.05 639.657 1073.75>
LayerCount: 2
Fore
SplineSet
32 12 m 1
 89 12 l 2
 249 12 254 124 254 282 c 0
 254 497 250 543 386 543 c 1
 386 609 l 1
 258 609 254 650 254 870 c 0
 254 1030 248 1141 89 1141 c 2
 32 1141 l 1
 32 1106 l 1
 162 1106 192 1082 192 920 c 0
 192 708.335188104 203.107932048 579.97986657 303.695741064 575.901188423 c 1
 200.275742087 570.342652512 191 442.477610902 191 220 c 0
 191 71 155 45 32 45 c 1
 32 12 l 1
EndSplineSet
EndChar

StartChar: bracketleft
Encoding: 91 91 173
Width: 318
VWidth: 0
Flags: W
PickledData: "(dp1
S'org.robofab.postScriptHintData'
p2
(dp3
sS'com.typemytype.robofont.layerData'
p4
(dp5
S'b'
(dp6
S'name'
p7
S'bracketleft'
p8
sS'lib'
p9
(dp10
sS'unicodes'
p11
(tsS'width'
p12
I318
sS'contours'
p13
(tsS'components'
p14
(tsS'anchors'
p15
(tsss."
VStem: 157 160
LayerCount: 2
Fore
SplineSet
157 -127 m 1
 317 -127 l 1
 317 -88 l 1
 207 -88 l 1
 207 1152 l 1
 317 1152 l 1
 317 1189 l 1
 157 1189 l 1
 157 -127 l 1
EndSplineSet
EndChar

StartChar: bracketright
Encoding: 93 93 174
Width: 316
VWidth: 0
Flags: W
PickledData: "(dp1
S'org.robofab.postScriptHintData'
p2
(dp3
sS'com.typemytype.robofont.layerData'
p4
(dp5
S'b'
(dp6
S'name'
p7
S'bracketright'
p8
sS'lib'
p9
(dp10
sS'unicodes'
p11
(tsS'width'
p12
I316
sS'contours'
p13
(tsS'components'
p14
(tsS'anchors'
p15
(tsss."
VStem: -10 160
LayerCount: 2
Fore
SplineSet
-10 -127 m 1
 150 -127 l 1
 150 1189 l 1
 -10 1189 l 1
 -10 1152 l 1
 100 1152 l 1
 100 -88 l 1
 -10 -88 l 1
 -10 -127 l 1
EndSplineSet
EndChar

StartChar: breve
Encoding: 728 728 175
Width: 233
VWidth: 0
Flags: W
PickledData: "(dp1
S'org.robofab.postScriptHintData'
p2
(dp3
sS'com.typemytype.robofont.layerData'
p4
(dp5
S'b'
(dp6
S'name'
p7
S'breve'
p8
sS'lib'
p9
(dp10
sS'unicodes'
p11
(tsS'width'
p12
I233
sS'contours'
p13
(tsS'components'
p14
(tsS'anchors'
p15
(tsss."
HStem: 934 33<63.1998 175.148>
VStem: -15 30<1022.89 1059> 224 28<1025.75 1059>
AnchorPoint: "top" 122 804 mark 0
LayerCount: 2
Fore
SplineSet
120 934 m 0
 194 933 237 974 252 1059 c 1
 224 1059 l 1
 206 997 172 967 120 967 c 0
 67 967 33 997 15 1059 c 1
 -15 1059 l 1
 4 974 48 933 120 934 c 0
EndSplineSet
EndChar

StartChar: breveinvertedcomb
Encoding: 785 785 176
Width: 962
VWidth: 0
Flags: W
PickledData: "(dp1
S'org.robofab.postScriptHintData'
p2
(dp3
sS'com.typemytype.robofont.layerData'
p4
(dp5
S'b'
(dp6
S'name'
p7
S'uni0311'
p8
sS'lib'
p9
(dp10
sS'unicodes'
p11
(tsS'width'
p12
I962
sS'contours'
p13
(tsS'components'
p14
(tsS'anchors'
p15
(tsss."
AnchorPoint: "top" 488 804 mark 0
LayerCount: 2
Fore
SplineSet
352 934 m 257
 382 934 l 257
 400 996 434 1026 487 1026 c 256
 539 1026 573 996 591 934 c 257
 619 934 l 257
 604 1019 561 1060 487 1059 c 256
 415 1060 371 1019 352 934 c 257
EndSplineSet
EndChar

StartChar: brokenbar
Encoding: 166 166 177
Width: 418
VWidth: 0
Flags: W
PickledData: "(dp1
S'org.robofab.postScriptHintData'
p2
(dp3
sS'com.typemytype.robofont.layerData'
p4
(dp5
S'b'
(dp6
S'name'
p7
S'brokenbar'
p8
sS'lib'
p9
(dp10
sS'unicodes'
p11
(tsS'width'
p12
I418
sS'contours'
p13
(tsS'components'
p14
(tsS'anchors'
p15
(tsss."
VStem: 184 47
LayerCount: 2
Fore
SplineSet
184 725 m 1
 231 725 l 1
 231 1296 l 1
 184 1296 l 1
 184 725 l 1
184 -26 m 1
 231 -26 l 1
 231 544 l 1
 184 544 l 1
 184 -26 l 1
EndSplineSet
EndChar

StartChar: bullet
Encoding: 8226 8226 178
Width: 768
VWidth: 0
Flags: W
PickledData: "(dp1
S'org.robofab.postScriptHintData'
p2
(dp3
sS'com.typemytype.robofont.layerData'
p4
(dp5
S'b'
(dp6
S'name'
p7
S'bullet'
p8
sS'lib'
p9
(dp10
sS'unicodes'
p11
(tsS'width'
p12
I768
sS'contours'
p13
(tsS'components'
p14
(tsS'anchors'
p15
(tsss."
HStem: 472 493<239.719 528.158>
VStem: 128 513<581.521 857.48>
LayerCount: 2
Fore
SplineSet
384 472 m 0
 527 472 641 582 641 719 c 0
 641 858 527 965 384 965 c 0
 240 965 128 857 128 719 c 0
 128 584 240 472 384 472 c 0
EndSplineSet
EndChar

StartChar: c
Encoding: 99 99 179
Width: 956
VWidth: 0
Flags: HW
PickledData: "(dp1
S'org.robofab.postScriptHintData'
p2
(dp3
sS'com.typemytype.robofont.layerData'
p4
(dp5
S'b'
(dp6
S'name'
p7
S'c'
sS'lib'
p8
(dp9
sS'unicodes'
p10
(tsS'width'
p11
I956
sS'contours'
p12
((dp13
S'points'
p14
((dp15
S'y'
S'-14'
p16
sS'x'
I633
sS'smooth'
p17
I0
s(dp18
S'y'
I33
sS'x'
I758
sg17
I0
s(dp19
S'segmentType'
p20
S'curve'
p21
sS'x'
I868
sg17
I0
sS'y'
I142
s(dp22
g20
S'line'
p23
sS'x'
I845
sg17
I0
sS'y'
I213
s(dp24
S'y'
I105
sS'x'
I763
sg17
I0
s(dp25
S'y'
I51
sS'x'
I637
sg17
I0
s(dp26
g20
S'curve'
p27
sS'x'
I515
sg17
I1
sS'y'
I51
s(dp28
S'y'
I51
sS'x'
I316
sg17
I0
s(dp29
S'y'
I193
sS'x'
I169
sg17
I0
s(dp30
g20
S'curve'
p31
sS'x'
I169
sg17
I1
sS'y'
I406
s(dp32
S'y'
I630
sS'x'
I169
sg17
I0
s(dp33
S'y'
I755
sS'x'
I336
sg17
I0
s(dp34
g20
S'curve'
p35
sS'x'
I515
sg17
I1
sS'y'
I755
s(dp36
S'y'
I755
sS'x'
I705
sg17
I0
s(dp37
S'y'
I657
sS'x'
I768
sg17
I0
s(dp38
g20
S'curve'
p39
sS'x'
I776
sg17
I0
sS'y'
I570
s(dp40
g20
S'line'
p41
sS'x'
I840
sg17
I0
sS'y'
I570
s(dp42
g20
S'line'
p43
sS'x'
I840
sg17
I0
sS'y'
I825
s(dp44
g20
S'line'
p45
sS'x'
I767
sg17
I0
sS'y'
I825
s(dp46
g20
S'line'
p47
sS'x'
I767
sg17
I0
sS'y'
I714
s(dp48
S'y'
I764
sS'x'
I736
sg17
I0
s(dp49
S'y'
I819
sS'x'
I645
sg17
I0
s(dp50
g20
S'curve'
p51
sS'x'
I522
sg17
I1
sS'y'
I819
s(dp52
S'y'
I819
sS'x'
F268.96812951340218
sg17
I0
s(dp53
S'y'
I650
sS'x'
I90
sg17
I0
s(dp54
g20
S'curve'
p55
sS'x'
I90
sg17
I1
sS'y'
I406
s(dp56
S'y'
I145
sS'x'
I90
sg17
I0
s(dp57
S'y'
S'-14'
p58
sS'x'
I286
sg17
I0
s(dp59
g20
S'curve'
p60
sS'x'
I515
sg17
I1
sS'y'
S'-14'
p61
stp62
stp63
sS'components'
p64
(tsS'anchors'
p65
(tsss."
HStem: -22 34<367.543 606.523> 792 34<372.948 588.546>
VStem: 63 42<272.359 534.214> 759 44<578 654.309>
AnchorPoint: "top" 482 805 basechar 0
LayerCount: 2
Fore
SplineSet
475 -22 m 0
 615 -22 715 19 808 114 c 1
 809 154 l 1
 708 53 616 13 479 12 c 0
 260 10 105 173 105 403 c 0
 105 631 264 792 488 792 c 0
 631 792 746 703 765 578 c 1
 803 578 l 1
 803 804 l 1
 759 804 l 1
 757 694 l 1
 716 771 604 826 487 826 c 0
 239 826 63 652 63 405 c 0
 63 155 234 -22 475 -22 c 0
EndSplineSet
EndChar

StartChar: caron
Encoding: 711 711 181
Width: 351
VWidth: 0
Flags: W
PickledData: "(dp1
S'org.robofab.postScriptHintData'
p2
(dp3
sS'com.typemytype.robofont.layerData'
p4
(dp5
S'b'
(dp6
S'name'
p7
S'caron'
p8
sS'lib'
p9
(dp10
sS'unicodes'
p11
(tsS'width'
p12
I351
sS'contours'
p13
(tsS'components'
p14
(tsS'anchors'
p15
(tsss."
AnchorPoint: "top" 176 804 mark 0
LayerCount: 2
Fore
SplineSet
159 930 m 1
 182 930 l 1
 355 1236 l 1
 319 1236 l 1
 171 969 l 1
 21 1236 l 1
 -17 1236 l 1
 159 930 l 1
EndSplineSet
EndChar

StartChar: caron.alt
Encoding: 65539 -1 182
Width: 600
VWidth: 0
Flags: W
PickledData: "(dp1
S'org.robofab.postScriptHintData'
p2
(dp3
s."
HStem: 914 19<328 358.295>
VStem: 391 34<959.78 1091>
AnchorPoint: "caron.alt" 198 804 mark 0
LayerCount: 2
Fore
SplineSet
328 914 m 1
 419 913 425 994 425 1076 c 2
 425 1174 l 1
 343 1174 l 1
 343 1091 l 1
 391 1091 l 1
 391 1006 394 936 328 933 c 1
 328 914 l 1
EndSplineSet
EndChar

StartChar: cedilla
Encoding: 184 184 187
Width: 600
VWidth: 0
Flags: W
PickledData: "(dp1
S'org.robofab.postScriptHintData'
p2
(dp3
s."
HStem: -279 36<191.938 318.957> -144 36<259 312.502>
VStem: 333 52<-232.611 -158.802>
LayerCount: 2
Fore
SplineSet
279 -279 m 0
 335 -279 385 -255 385 -197 c 0
 385 -150 354 -108 259 -108 c 1
 298 6 l 1
 270 6 l 1
 212 -144 l 1
 305 -144 333 -166 333 -192 c 0
 333 -225 305 -243 258 -243 c 0
 236 -243 210 -239 181 -230 c 1
 181 -256 l 1
 210 -271 245 -279 279 -279 c 0
EndSplineSet
EndChar

StartChar: cent
Encoding: 162 162 188
Width: 909
VWidth: 0
Flags: HW
PickledData: "(dp1
S'org.robofab.postScriptHintData'
p2
(dp3
sS'com.typemytype.robofont.layerData'
p4
(dp5
S'b'
(dp6
S'name'
p7
S'cent'
p8
sS'lib'
p9
(dp10
sS'unicodes'
p11
(tsS'width'
p12
I909
sS'contours'
p13
(tsS'components'
p14
(tsS'anchors'
p15
(tsss."
HStem: -22 34<367.543 606.523> 792 34<372.948 588.546>
VStem: 63 42<272.359 534.214> 759 44<578 654.309>
LayerCount: 2
Fore
SplineSet
323 -200 m 1
 637 1000 l 1
 610 1004 l 1
 296 -195 l 1
 323 -200 l 1
EndSplineSet
Refer: 179 99 N 1 0 0 1 0 0 2
EndChar

StartChar: circumflex
Encoding: 710 710 189
Width: 347
VWidth: 0
Flags: W
PickledData: "(dp1
S'org.robofab.postScriptHintData'
p2
(dp3
sS'com.typemytype.robofont.layerData'
p4
(dp5
S'b'
(dp6
S'name'
p7
S'circumflex'
p8
sS'lib'
p9
(dp10
sS'unicodes'
p11
(tsS'width'
p12
I347
sS'contours'
p13
(tsS'components'
p14
(tsS'anchors'
p15
(tsss."
AnchorPoint: "top" 176 804 mark 0
LayerCount: 2
Fore
SplineSet
21 930 m 1
 171 1197 l 1
 319 930 l 1
 355 930 l 1
 182 1236 l 1
 159 1236 l 1
 -17 930 l 1
 21 930 l 1
EndSplineSet
EndChar

StartChar: colon
Encoding: 58 58 190
Width: 453
VWidth: 0
Flags: W
PickledData: "(dp1
S'org.robofab.postScriptHintData'
p2
(dp3
sS'com.typemytype.robofont.layerData'
p4
(dp5
S'b'
(dp6
S'name'
p7
S'colon'
p8
sS'lib'
p9
(dp10
sS'unicodes'
p11
(tsS'width'
p12
I453
sS'contours'
p13
(tsS'components'
p14
(tsS'anchors'
p15
(tsss."
VStem: 194 73
LayerCount: 2
Fore
SplineSet
194 729 m 1
 267 729 l 1
 267 813 l 1
 194 813 l 1
 194 729 l 1
194 272 m 1
 267 272 l 1
 267 355 l 1
 194 355 l 1
 194 272 l 1
EndSplineSet
EndChar

StartChar: comma
Encoding: 44 44 191
Width: 374
VWidth: 0
Flags: W
PickledData: "(dp1
S'org.robofab.postScriptHintData'
p2
(dp3
sS'com.typemytype.robofont.layerData'
p4
(dp5
S'b'
(dp6
S'name'
p7
S'comma'
p8
sS'lib'
p9
(dp10
sS'unicodes'
p11
(tsS'width'
p12
I374
sS'contours'
p13
(tsS'components'
p14
(tsS'anchors'
p15
(tsss."
HStem: -157 18<171 201.312>
VStem: 230 33<-112.847 0>
LayerCount: 2
Fore
SplineSet
171 -157 m 1
 253 -157 263 -85 263 -6 c 2
 264 96 l 1
 181 97 l 1
 181 0 l 1
 230 0 l 1
 230 -112 221 -133 171 -139 c 1
 171 -157 l 1
EndSplineSet
EndChar

StartChar: commaaccent
Encoding: 806 806 192
Width: 418
VWidth: 0
Flags: W
PickledData: "(dp1
S'org.robofab.postScriptHintData'
p2
(dp3
sS'com.typemytype.robofont.layerData'
p4
(dp5
S'b'
(dp6
S'name'
p7
S'uni0326'
p8
sS'lib'
p9
(dp10
sS'unicodes'
p11
(tsS'width'
p12
I418
sS'contours'
p13
(tsS'components'
p14
(tsS'anchors'
p15
(tsss."
HStem: -392 19<188 218.295>
VStem: 251 34<-346.22 -215>
LayerCount: 2
Fore
SplineSet
188 -392 m 1
 279 -393 285 -312 285 -230 c 2
 285 -132 l 1
 203 -132 l 1
 203 -215 l 1
 251 -215 l 1
 251 -300 254 -370 188 -373 c 1
 188 -392 l 1
EndSplineSet
EndChar

StartChar: commaturnedabovecomb
Encoding: 786 786 193
Width: 600
VWidth: 0
Flags: W
PickledData: "(dp1
S'org.robofab.postScriptHintData'
p2
(dp3
s."
HStem: 1168 18<309.688 340>
VStem: 248 33<1029 1141.85>
AnchorPoint: "top" 294 804 mark 0
LayerCount: 2
Fore
SplineSet
330 932 m 1
 330 1029 l 1
 281 1029 l 1
 281 1141 290 1162 340 1168 c 1
 340 1186 l 1
 258 1186 248 1114 248 1035 c 2
 247 933 l 1
 330 932 l 1
EndSplineSet
EndChar

StartChar: copyright
Encoding: 169 169 194
Width: 1512
VWidth: 0
Flags: W
PickledData: "(dp1
S'org.robofab.postScriptHintData'
p2
(dp3
sS'com.typemytype.robofont.layerData'
p4
(dp5
S'b'
(dp6
S'name'
p7
S'copyright'
p8
sS'lib'
p9
(dp10
sS'unicodes'
p11
(tsS'width'
p12
I1512
sS'contours'
p13
(tsS'components'
p14
(tsS'anchors'
p15
(tsss."
HStem: -48 34<623.055 888.945> 154 34<656.218 882.095> 968 34<658.445 887.478> 1167 34<623.055 888.945>
VStem: 115 44<422.478 731.123> 345 42<445.77 713.953> 1047 38<754 828.754> 1353 44<422.979 731.123>
LayerCount: 2
Fore
SplineSet
756 -14 m 0
 423 -14 159 243 159 577 c 0
 159 910 423 1167 756 1167 c 0
 1089 1167 1353 910 1353 577 c 0
 1353 246 1089 -14 756 -14 c 0
756 -48 m 0
 1113 -48 1397 224 1397 577 c 0
 1397 929 1113 1201 756 1201 c 0
 399 1201 115 929 115 577 c 0
 115 224 399 -48 756 -48 c 0
757 154 m 0
 882 154 1002 200 1090 290 c 1
 1091 333 l 1
 995 237 893 189 761 188 c 0
 561 187 387 344 387 579 c 0
 387 858 601 968 770 968 c 0
 937 968 1036 888 1047 754 c 1
 1085 754 l 1
 1085 980 l 1
 1050 980 l 1
 1048 870 l 1
 995 966 890 1002 769 1002 c 0
 585 1002 345 883 345 581 c 0
 345 322 536 154 757 154 c 0
EndSplineSet
EndChar

StartChar: currency
Encoding: 164 164 195
Width: 1124
VWidth: 0
Flags: W
PickledData: "(dp1
S'org.robofab.postScriptHintData'
p2
(dp3
sS'com.typemytype.robofont.layerData'
p4
(dp5
S'b'
(dp6
S'name'
p7
S'currency'
p8
sS'lib'
p9
(dp10
sS'unicodes'
p11
(tsS'width'
p12
I1124
sS'contours'
p13
(tsS'components'
p14
(tsS'anchors'
p15
(tsss."
HStem: 640 47<429.31 688.555> 1420 46<430.594 687.625>
VStem: 156 45<918.893 1189.6> 921 37<932.447 1174.4>
LayerCount: 2
Fore
SplineSet
557 687 m 0
 387 687 201 805 201 1054 c 0
 201 1302 389 1420 558 1420 c 0
 728 1420 921 1308 921 1054 c 0
 921 800 730 687 557 687 c 0
925 605 m 1
 970 648 l 1
 857 758 l 1
 924 855 958 957 958 1055 c 0
 958 1154 924 1256 856 1348 c 1
 970 1459 l 1
 925 1501 l 1
 824 1388 l 1
 727 1439 639 1466 555 1466 c 0
 476 1466 394 1441 308 1390 c 1
 206 1500 l 1
 154 1459 l 1
 265 1350 l 1
 192 1263 156 1151 156 1046 c 0
 156 941 192 835 264 756 c 1
 154 648 l 1
 206 606 l 1
 307 716 l 1
 396 664 480 640 560 640 c 0
 646 640 733 666 825 718 c 1
 925 605 l 1
EndSplineSet
EndChar

StartChar: d
Encoding: 100 100 196
Width: 1011
VWidth: 0
Flags: HW
PickledData: "(dp1
S'org.robofab.postScriptHintData'
p2
(dp3
sS'com.typemytype.robofont.layerData'
p4
(dp5
S'b'
(dp6
S'name'
p7
S'd'
sS'lib'
p8
(dp9
sS'unicodes'
p10
(tsS'width'
p11
I1011
sS'contours'
p12
(tsS'components'
p13
(tsS'anchors'
p14
(tsss."
HStem: -22 34<370.146 599.952> 792 34<355.485 585.978>
VStem: 63 42<268.732 529.796>
AnchorPoint: "caron.alt" 816 804 basechar 0
AnchorPoint: "top" 479 804 basechar 0
LayerCount: 2
Fore
SplineSet
794 0 m 1
 977 0 l 1
 977 34 l 1
 838 34 l 1
 838 1174 l 1
 662 1174 l 1
 662 1140 l 1
 794 1140 l 1
 794 709.563838881 l 1
 706.809195002 778.591207809 577.087265538 826 464 826 c 0
 226 826 60 648 63 397 c 0
 66 152 243 -22 490 -22 c 0
 594.149652647 -22 713.062912298 24.7514221813 794 93.741411537 c 1
 794 0 l 1
794 131.8332388 m 1
 710.822450447 60.6910879318 591.745862117 12 490 12 c 0
 265 12 105 172 105 397 c 0
 105 628 254 792 464 792 c 0
 575.554798082 792 704.667640538 745.178548334 794 676.000083345 c 1
 794 131.8332388 l 1
EndSplineSet
EndChar

StartChar: dagger
Encoding: 8224 8224 197
Width: 364
VWidth: 0
Flags: W
PickledData: "(dp1
S'org.robofab.postScriptHintData'
p2
(dp3
sS'com.typemytype.robofont.layerData'
p4
(dp5
S'b'
(dp6
S'name'
p7
S'dagger'
p8
sS'lib'
p9
(dp10
sS'unicodes'
p11
(tsS'width'
p12
I364
sS'contours'
p13
(tsS'components'
p14
(tsS'anchors'
p15
(tsss."
VStem: 172 22<517 627.808>
LayerCount: 2
Fore
SplineSet
172 94 m 1
 194 94 l 1
 194 267 220 384 199 521 c 1
 199 652 222 693 194 840 c 1
 374 828 l 1
 374 869 l 1
 194 865 l 1
 217 1072 l 1
 148 1072 l 1
 172 865 l 1
 -12 869 l 1
 -12 828 l 1
 172 840 l 1
 144 690 166 649 166 517 c 1
 146 383 172 271 172 94 c 1
EndSplineSet
EndChar

StartChar: daggerdbl
Encoding: 8225 8225 198
Width: 486
VWidth: 0
Flags: W
PickledData: "(dp1
S'org.robofab.postScriptHintData'
p2
(dp3
sS'com.typemytype.robofont.layerData'
p4
(dp5
S'b'
(dp6
S'name'
p7
S'daggerdbl'
p8
sS'lib'
p9
(dp10
sS'unicodes'
p11
(tsS'width'
p12
I486
sS'contours'
p13
(tsS'components'
p14
(tsS'anchors'
p15
(tsss."
VStem: 214 61<333.868 888.036>
LayerCount: 2
Fore
SplineSet
202 17 m 1
 286 17 l 1
 260 308 l 1
 472 295 l 1
 472 351 l 1
 256 331 l 1
 266 391 275 459 275 603 c 0
 275 750 266 828 256 891 c 1
 472 871 l 1
 472 927 l 1
 260 914 l 1
 286 1205 l 1
 202 1205 l 1
 229 914 l 1
 13 927 l 1
 13 871 l 1
 233 891 l 1
 221 829 214 755 214 610 c 0
 214 465 221 392 233 331 c 1
 13 351 l 1
 13 295 l 1
 229 308 l 1
 202 17 l 1
EndSplineSet
EndChar

StartChar: dblgravecmb
Encoding: 783 783 199
Width: 643
VWidth: 0
Flags: W
PickledData: "(dp1
S'org.robofab.postScriptHintData'
p2
(dp3
sS'com.typemytype.robofont.layerData'
p4
(dp5
S'b'
(dp6
S'name'
p7
S'uni030F'
p8
sS'lib'
p9
(dp10
sS'unicodes'
p11
(tsS'width'
p12
I643
sS'contours'
p13
(tsS'components'
p14
(tsS'anchors'
p15
(tsss."
HStem: 991 295
AnchorPoint: "top" 323 804 mark 0
LayerCount: 2
Fore
SplineSet
386 991 m 1
 407 991 l 1
 300 1286 l 1
 258 1286 l 1
 386 991 l 1
206 991 m 1
 227 991 l 1
 120 1286 l 1
 78 1286 l 1
 206 991 l 1
EndSplineSet
EndChar

StartChar: degree
Encoding: 176 176 203
Width: 922
VWidth: 0
Flags: W
PickledData: "(dp1
S'org.robofab.postScriptHintData'
p2
(dp3
sS'com.typemytype.robofont.layerData'
p4
(dp5
S'b'
(dp6
S'name'
p7
S'degree'
p8
sS'lib'
p9
(dp10
sS'unicodes'
p11
(tsS'width'
p12
I922
sS'contours'
p13
(tsS'components'
p14
(tsS'anchors'
p15
(tsss."
HStem: 739 44<367.044 555.894> 1147 45<366.982 555.732>
VStem: 212 53<873.841 1056.23> 658 53<874.214 1056.6>
LayerCount: 2
Fore
SplineSet
461 739 m 0
 604 739 711 836 711 965 c 0
 711 1095 604 1192 461 1192 c 0
 319 1192 212 1095 212 965 c 0
 212 836 319 739 461 739 c 0
462 783 m 0
 349 783 265 860 265 965 c 0
 266 1069 349 1147 461 1147 c 0
 574 1147 658 1070 658 966 c 0
 658 861 574 783 462 783 c 0
EndSplineSet
EndChar

StartChar: dieresis
Encoding: 168 168 204
Width: 295
VWidth: 0
Flags: W
PickledData: "(dp1
S'org.robofab.postScriptHintData'
p2
(dp3
sS'com.typemytype.robofont.layerData'
p4
(dp5
S'b'
(dp6
S'name'
p7
S'dieresis'
p8
sS'lib'
p9
(dp10
sS'unicodes'
p11
(tsS'width'
p12
I295
sS'contours'
p13
(tsS'components'
p14
(tsS'anchors'
p15
(tsss."
HStem: 947 72<-47.9898 26.9898 263.01 337.944>
VStem: -48 75<947.01 1018.99> 263 75<946.038 1018.96>
AnchorPoint: "top" 157 804 mark 0
LayerCount: 2
Fore
SplineSet
299 946 m 0
 323 946 337 959 338 982 c 0
 338 1005 324 1019 299 1019 c 0
 276 1019 263 1005 263 982 c 0
 263 959 276 946 299 946 c 0
-11 947 m 0
 13 947 27 960 27 983 c 0
 27 1006 13 1019 -11 1019 c 0
 -34 1019 -48 1006 -48 983 c 0
 -48 960 -34 947 -11 947 c 0
EndSplineSet
EndChar

StartChar: divide
Encoding: 247 247 205
Width: 712
VWidth: 0
Flags: W
PickledData: "(dp1
S'org.robofab.postScriptHintData'
p2
(dp3
sS'com.typemytype.robofont.layerData'
p4
(dp5
S'b'
(dp6
S'name'
p7
S'divide'
p8
sS'lib'
p9
(dp10
sS'unicodes'
p11
(tsS'width'
p12
I712
sS'contours'
p13
(tsS'components'
p14
(tsS'anchors'
p15
(tsss."
VStem: 128 456
LayerCount: 2
Fore
SplineSet
327 630 m 1
 388 630 l 1
 388 737 l 1
 327 737 l 1
 327 630 l 1
128 492 m 1
 584 492 l 1
 584 528 l 1
 128 528 l 1
 128 492 l 1
327 270 m 1
 388 270 l 1
 388 376 l 1
 327 376 l 1
 327 270 l 1
EndSplineSet
EndChar

StartChar: dollar
Encoding: 36 36 206
Width: 1143
VWidth: 0
Flags: HW
PickledData: "(dp1
S'org.robofab.postScriptHintData'
p2
(dp3
s."
HStem: -22 36<453.017 781.758> 1138 36<435.413 707.617>
VStem: 181 44<178.322 231 745.34 973.82> 917 44<958 1018.47> 988 42<189.603 409.051>
LayerCount: 2
Fore
SplineSet
586 -181 m 1
 619 -181 l 1
 619 1325 l 1
 586 1325 l 1
 586 -181 l 1
EndSplineSet
Refer: 104 83 N 1 0 0 1 0 0 2
EndChar

StartChar: dotaccent
Encoding: 729 729 208
Width: 496
VWidth: 0
Flags: W
PickledData: "(dp1
S'org.robofab.postScriptHintData'
p2
(dp3
s."
HStem: 1019 83<207.013 297.986>
VStem: 207 91<1019.05 1101.95>
AnchorPoint: "top" 251 804 mark 0
LayerCount: 2
Fore
SplineSet
251 1019 m 0
 279 1019 298 1036 298 1061 c 0
 298 1085 279 1102 251 1102 c 0
 225 1102 207 1085 207 1061 c 0
 207 1036 225 1019 251 1019 c 0
EndSplineSet
EndChar

StartChar: dotlessi
Encoding: 305 305 209
Width: 537
VWidth: 0
Flags: W
PickledData: "(dp1
S'org.robofab.postScriptHintData'
p2
(dp3
sS'com.typemytype.robofont.layerData'
p4
(dp5
S'b'
(dp6
S'name'
p7
S'dotlessi'
p8
sS'lib'
p9
(dp10
sS'unicodes'
p11
(tsS'width'
p12
I537
sS'contours'
p13
(tsS'components'
p14
(tsS'anchors'
p15
(tsss."
VStem: 96 401
AnchorPoint: "top" 283 804 basechar 0
LayerCount: 2
Fore
SplineSet
96 0 m 1
 497 0 l 1
 497 34 l 1
 321 34 l 1
 321 646 l 1
 321 804 l 1
 99 804 l 1
 99 770 l 1
 277 770 l 1
 277 34 l 1
 96 34 l 1
 96 0 l 1
EndSplineSet
EndChar

StartChar: dotlessj
Encoding: 567 567 210
Width: 398
VWidth: 0
Flags: W
PickledData: "(dp1
S'org.robofab.postScriptHintData'
p2
(dp3
sS'com.typemytype.robofont.layerData'
p4
(dp5
S'b'
(dp6
S'name'
p7
S'uni0237'
p8
sS'lib'
p9
(dp10
sS'unicodes'
p11
(tsS'width'
p12
I398
sS'contours'
p13
(tsS'components'
p14
(tsS'anchors'
p15
(tsss."
AnchorPoint: "top" 228 805 basechar 0
LayerCount: 2
Fore
SplineSet
23 -240 m 257
 95 -240 l 258
 293 -240 268 -101 268 -34 c 258
 268 805 l 257
 64 805 l 257
 64 774 l 257
 221 774 l 257
 221 -39 l 258
 221 -152 228 -208 85 -208 c 258
 23 -208 l 257
 23 -240 l 257
EndSplineSet
EndChar

StartChar: e
Encoding: 101 101 213
Width: 975
VWidth: 0
Flags: HW
PickledData: "(dp1
S'org.robofab.postScriptHintData'
p2
(dp3
sS'com.typemytype.robofont.layerData'
p4
(dp5
S'b'
(dp6
S'name'
p7
S'e'
sS'lib'
p8
(dp9
sS'unicodes'
p10
(tsS'width'
p11
I975
sS'contours'
p12
((dp13
S'points'
p14
((dp15
S'segmentType'
p16
S'line'
p17
sS'x'
I171
sS'smooth'
p18
I0
sS'y'
I442
s(dp19
S'y'
I592
sS'x'
I182
sg18
I0
s(dp20
S'y'
I755
sS'x'
I296
sg18
I0
s(dp21
g16
S'curve'
p22
sS'x'
I507
sg18
I1
sS'y'
I755
s(dp23
S'y'
I755
sS'x'
I699
sg18
I0
s(dp24
S'y'
I616
sS'x'
I803
sg18
I0
s(dp25
g16
S'curve'
p26
sS'x'
I820
sg18
I0
sS'y'
I442
stp27
s(dp28
g14
((dp29
g16
S'line'
p30
sS'x'
I890
sg18
I0
sS'y'
I383
s(dp31
S'y'
I601
sS'x'
I889
sg18
I0
s(dp32
S'y'
I819
sS'x'
F778.76831688899995
sg18
I0
s(dp33
g16
S'curve'
p34
sS'x'
I502
sg18
I1
sS'y'
I819
s(dp35
S'y'
I819
sS'x'
I232
sg18
I0
s(dp36
S'y'
I618
sS'x'
I90
sg18
I0
s(dp37
g16
S'curve'
p38
sS'x'
I90
sg18
I1
sS'y'
I403
s(dp39
S'y'
I150
sS'x'
I90
sg18
I0
s(dp40
S'y'
S'-14'
p41
sS'x'
I284
sg18
I0
s(dp42
g16
S'curve'
p43
sS'x'
I511
sg18
I1
sS'y'
S'-14'
p44
s(dp45
S'y'
S'-14'
p46
sS'x'
I657
sg18
I0
s(dp47
S'y'
I34
sS'x'
I761
sg18
I0
s(dp48
g16
S'curve'
p49
sS'x'
I868
sg18
I0
sS'y'
I139
s(dp50
g16
S'line'
p51
sS'x'
I836
sg18
I0
sS'y'
I197
s(dp52
S'y'
I103
sS'x'
I747
sg18
I0
s(dp53
S'y'
I50
sS'x'
I652
sg18
I0
s(dp54
g16
S'curve'
p55
sS'x'
I515
sg18
I1
sS'y'
I50
s(dp56
S'y'
I50
sS'x'
I347
sg18
I0
s(dp57
S'y'
I162
sS'x'
I182
sg18
I0
s(dp58
g16
S'curve'
p59
sS'x'
I169
sg18
I0
sS'y'
I383
stp60
stp61
sS'components'
p62
(tsS'anchors'
p63
(tsss."
HStem: -22 34<375.743 600.21> 792 34<358.682 575.545>
VStem: 63 44<274.176 390 424 547.497>
LayerCount: 2
Fore
SplineSet
485 -22 m 0
 604 -22 735 25 840 129 c 1
 827 166 l 1
 758 81 614 12 485 12 c 0
 305 12 118 140 107 390 c 1
 860 390 l 1
 852 718 642 826 466 826 c 0
 269 826 63 687 63 403 c 0
 63 133 269 -22 485 -22 c 0
106 424 m 1
 113 649 273 792 466 792 c 0
 638 792 796 678 820 424 c 1
 106 424 l 1
EndSplineSet
EndChar

StartChar: eight
Encoding: 56 56 221
Width: 964
VWidth: 0
Flags: W
PickledData: "(dp1
S'org.robofab.postScriptHintData'
p2
(dp3
sS'com.typemytype.robofont.layerData'
p4
(dp5
S'b'
(dp6
S'name'
p7
S'eight'
p8
sS'lib'
p9
(dp10
sS'unicodes'
p11
(tsS'width'
p12
I964
sS'contours'
p13
(tsS'components'
p14
(tsS'anchors'
p15
(tsss."
HStem: -22 36<354.056 609.944> 597 24<353.052 361 456.162 610.027> 1138 36<369.025 596.975>
VStem: 112 42<184.644 424.078> 152 42<777.623 992.194> 772 42<761.966 992.194> 810 42<184.644 413.906>
LayerCount: 2
Fore
SplineSet
576 621 m 1xec
 292 630 194 723 194 887 c 0
 194 1041 305 1138 483 1138 c 0
 661 1138 772 1041 772 887 c 0
 772 714 704 658 576 621 c 1xec
482 14 m 0
 281 14 154 122 154 294 c 0
 154 473 232 571 406 597 c 1
 717 584 810 473 810 294 c 0xf2
 810 122 683 14 482 14 c 0
482 -22 m 0
 709 -22 852 100 852 294 c 0xf2
 852 456 761 573 595 603 c 1
 746 625 814 745 814 887 c 0
 814 1064 686 1175 483 1174 c 0
 280 1175 152 1064 152 887 c 0xec
 152 750 210 662 361 615 c 1
 190 592 112 455 112 294 c 0
 112 100 255 -22 482 -22 c 0
EndSplineSet
EndChar

StartChar: emdash
Encoding: 8212 8212 224
Width: 849
VWidth: 0
Flags: W
PickledData: "(dp1
S'org.robofab.postScriptHintData'
p2
(dp3
sS'com.typemytype.robofont.layerData'
p4
(dp5
S'b'
(dp6
S'name'
p7
S'emdash'
p8
sS'lib'
p9
(dp10
sS'unicodes'
p11
(tsS'width'
p12
I849
sS'contours'
p13
(tsS'components'
p14
(tsS'anchors'
p15
(tsss."
HStem: 454 37
LayerCount: 2
Fore
SplineSet
0 454 m 1
 849 454 l 1
 849 491 l 1
 0 491 l 1
 0 454 l 1
EndSplineSet
EndChar

StartChar: emptyset
Encoding: 8709 8709 225
Width: 1347
VWidth: 0
Flags: W
PickledData: "(dp1
S'org.robofab.postScriptHintData'
p2
(dp3
s."
HStem: -22 39<535.597 810.844> 1034 39<535.228 811.159>
VStem: 126 39<389.212 662.844> 1182 39<387.228 660.806>
LayerCount: 2
Fore
SplineSet
673 17 m 0
 558 17 452 55 367 120 c 1
 1024 893 l 1
 1121 800 1182 669 1182 525 c 0
 1182 245 953 17 673 17 c 0
339 142 m 1
 233 236 165 373 165 525 c 0
 165 805 393 1034 673 1034 c 0
 796 1034 909 990 997 917 c 1
 339 142 l 1
230 -42 m 1
 342 90 l 1
 434 20 549 -22 673 -22 c 0
 975 -22 1221 223 1221 525 c 0
 1221 682 1155 823 1049 923 c 1
 1171 1067 l 1
 1145 1092 l 1
 1022 947 l 1
 927 1026 805 1073 673 1073 c 0
 371 1073 126 827 126 525 c 0
 126 360 199 213 314 112 c 1
 204 -17 l 1
 230 -42 l 1
EndSplineSet
EndChar

StartChar: endash
Encoding: 8211 8211 226
Width: 653
VWidth: 0
Flags: W
PickledData: "(dp1
S'org.robofab.postScriptHintData'
p2
(dp3
sS'com.typemytype.robofont.layerData'
p4
(dp5
S'b'
(dp6
S'name'
p7
S'endash'
p8
sS'lib'
p9
(dp10
sS'unicodes'
p11
(tsS'width'
p12
I653
sS'contours'
p13
(tsS'components'
p14
(tsS'anchors'
p15
(tsss."
HStem: 453 37
VStem: 0 653
LayerCount: 2
Fore
SplineSet
0 453 m 1
 653 453 l 1
 653 490 l 1
 0 490 l 1
 0 453 l 1
EndSplineSet
EndChar

StartChar: eng
Encoding: 331 331 227
Width: 1010
VWidth: 0
Flags: HW
PickledData: "(dp1
S'org.robofab.postScriptHintData'
p2
(dp3
s."
HStem: -374 34<482 608.865> 790 36<496.62 696.148>
VStem: 34 401 806 44<-158.508 -17 582 694.428>
LayerCount: 2
Fore
SplineSet
479 -374 m 1
 712 -374 850 -261 850 -17 c 2
 850 582 l 2
 850 732 756 826 607 826 c 0
 491.351334714 826 380.325816734 780.101641404 259 711.07428709 c 1
 259 804 l 1
 37 804 l 1
 37 770 l 1
 215 770 l 1
 215 34 l 1
 34 34 l 1
 34 0 l 1
 435 0 l 1
 435 34 l 1
 259 34 l 1
 259 676.280700043 l 1
 399.997749756 748.812102746 529.91803678 790 602 790 c 0
 727 790 806 719 806 605 c 2
 806 -31 l 2
 806 -220 703 -340 482 -340 c 1
 479 -374 l 1
EndSplineSet
EndChar

StartChar: equal
Encoding: 61 61 229
Width: 715
VWidth: 0
Flags: W
PickledData: "(dp1
S'org.robofab.postScriptHintData'
p2
(dp3
sS'com.typemytype.robofont.layerData'
p4
(dp5
S'b'
(dp6
S'name'
p7
S'equal'
p8
sS'lib'
p9
(dp10
sS'unicodes'
p11
(tsS'width'
p12
I715
sS'contours'
p13
(tsS'components'
p14
(tsS'anchors'
p15
(tsss."
VStem: 178 361
LayerCount: 2
Fore
SplineSet
178 539 m 1
 539 539 l 1
 539 577 l 1
 178 577 l 1
 178 539 l 1
178 311 m 1
 539 311 l 1
 539 351 l 1
 178 351 l 1
 178 311 l 1
EndSplineSet
EndChar

StartChar: estimated
Encoding: 8494 8494 230
Width: 600
VWidth: 0
Flags: W
PickledData: "(dp1
S'org.robofab.postScriptHintData'
p2
(dp3
s."
HStem: -14 44<409.585 661.308> 785 34<404.068 591.512>
VStem: 106 81<228.081 393 430 595.11>
LayerCount: 2
Fore
SplineSet
187 430 m 1
 195 634 318 785 501 785 c 0
 671 785 808 633 820 430 c 1
 187 430 l 1
521 -14 m 0
 669 -14 783 52 868 139 c 1
 840 171 l 1
 772 90 661 30 524 30 c 0
 331 30 194 184 187 393 c 1
 869 393 l 1
 869 642 704 819 497 819 c 0
 264 819 106 641 106 403 c 0
 106 165 279 -14 521 -14 c 0
EndSplineSet
EndChar

StartChar: eth
Encoding: 240 240 231
Width: 886
VWidth: 0
Flags: W
PickledData: "(dp1
S'org.robofab.postScriptHintData'
p2
(dp3
sS'com.typemytype.robofont.layerData'
p4
(dp5
S'b'
(dp6
S'name'
p7
S'eth'
p8
sS'lib'
p9
(dp10
sS'unicodes'
p11
(tsS'width'
p12
I886
sS'contours'
p13
(tsS'components'
p14
(tsS'anchors'
p15
(tsss."
HStem: -23 41<312.591 553.808> 770 38<315.464 522.003>
VStem: 38 47<270.664 548.892> 773 44<261.719 542.96>
LayerCount: 2
Fore
SplineSet
433 18 m 0
 187 18 85 225 85 413 c 0
 85 660 267 770 428 770 c 0
 591 770 773 662 773 406 c 0
 773 220 678 18 433 18 c 0
433 -23 m 0
 635 -23 817 120 817 395 c 0
 817 640.337839673 652.563335956 866.245526483 473.695959643 1049.62861893 c 1
 713 1152 l 1
 692 1187 l 1
 442.279652856 1081.27897712 l 1
 332.67800602 1189.84776107 220.970960478 1282.1581446 141 1353 c 1
 113 1327 l 1
 201.208051922 1251.80625082 307.770553766 1166.38977004 408.946053115 1067.16694219 c 1
 144 955 l 1
 166 918 l 1
 440.594022073 1035.46800944 l 1
 537.353560312 936.403759474 626.704828904 824.003621879 687 695 c 1
 608 768 499 808 424 808 c 0
 207 808 38 629 38 437 c 0
 38 210 159 -23 433 -23 c 0
EndSplineSet
EndChar

StartChar: exclam
Encoding: 33 33 232
Width: 150
VWidth: 0
Flags: W
PickledData: "(dp1
S'org.robofab.postScriptHintData'
p2
(dp3
sS'com.typemytype.robofont.layerData'
p4
(dp5
S'b'
(dp6
S'name'
p7
S'exclam'
p8
sS'lib'
p9
(dp10
sS'unicodes'
p11
(tsS'width'
p12
I150
sS'contours'
p13
(tsS'components'
p14
(tsS'anchors'
p15
(tsss."
HStem: -15 83<32.0131 122.986>
VStem: 32 91<-14.9505 67.9505> 52 47<385.093 730> 69 14<321 665.907>
LayerCount: 2
Fore
SplineSet
76 -15 m 0xc0
 104 -15 123 2 123 27 c 0
 123 51 104 68 76 68 c 0
 50 68 32 51 32 27 c 0
 32 2 50 -15 76 -15 c 0xc0
69 321 m 1x90
 83 321 l 1x90
 99 730 l 1
 99 1156 l 1
 52 1156 l 1
 52 730 l 1xa0
 69 321 l 1x90
EndSplineSet
EndChar

StartChar: f
Encoding: 102 102 234
Width: 671
VWidth: 0
Flags: HW
PickledData: "(dp1
S'org.robofab.postScriptHintData'
p2
(dp3
sS'com.typemytype.robofont.layerData'
p4
(dp5
S'b'
(dp6
S'name'
p7
S'f'
sS'lib'
p8
(dp9
sS'unicodes'
p10
(tsS'width'
p11
I671
sS'contours'
p12
(tsS'components'
p13
(tsS'anchors'
p14
(tsss."
HStem: 1155 36<360.011 489.575>
VStem: 264 48<1036 1114.24> 539 33<1055.48 1100.41>
AnchorPoint: "top" 379 1074 basechar 0
LayerCount: 2
Fore
SplineSet
114 0 m 1
 504 0 l 1
 504 34 l 1
 312 34 l 1
 312 770 l 1
 550 770 l 1
 550 804 l 1
 312 804 l 1
 312 1036 l 2
 312 1113 358 1155 424 1155 c 0
 489 1155 530 1120 539 1047 c 1
 572 1062 l 1
 564 1142 511 1191 422 1191 c 0
 326 1191 264 1134 264 1036 c 2
 264 804 l 1
 109 804 l 1
 109 770 l 1
 264 770 l 1
 264 34 l 1
 114 34 l 1
 114 0 l 1
EndSplineSet
EndChar

StartChar: ff
Encoding: 64256 64256 236
Width: 1226
VWidth: 0
Flags: HW
PickledData: "(dp1
S'org.robofab.postScriptHintData'
p2
(dp3
sS'com.typemytype.robofont.layerData'
p4
(dp5
S'b'
(dp6
S'name'
p7
S'ff'
p8
sS'lib'
p9
(dp10
sS'unicodes'
p11
(tsS'width'
p12
I1226
sS'contours'
p13
(tsS'components'
p14
(tsS'anchors'
p15
(tsss."
HStem: 1153 38<913.728 1041.38> 1155 36<360.011 489.575>
VStem: 264 48<1036 1114.24> 539 33<1055.48 1100.41> 822 44<1033 1109.36> 1086 31<1055.06 1100.89>
LayerCount: 2
Fore
SplineSet
668 0 m 1xbc
 1059 0 l 1
 1059 34 l 1
 866 34 l 1
 866 771 l 1
 1105 771 l 1
 1105 805 l 1
 866 805 l 1
 866 1039 l 2
 866 1112 921 1153 967 1153 c 0
 1015 1153 1075 1142 1086 1047 c 1
 1117 1062 l 1
 1105 1165 1033 1191 967 1191 c 0
 904 1191 822 1139 822 1033 c 2
 822 805 l 1
 511 805 l 1
 511 771 l 1
 822 771 l 1
 822 34 l 1
 668 34 l 1
 668 0 l 1xbc
EndSplineSet
Refer: 234 102 N 1 0 0 1 0 0 2
EndChar

StartChar: ffi
Encoding: 64259 64259 237
Width: 1699
VWidth: 0
Flags: W
PickledData: "(dp1
S'org.robofab.postScriptHintData'
p2
(dp3
sS'com.typemytype.robofont.layerData'
p4
(dp5
S'b'
(dp6
S'name'
p7
S'ffi'
p8
sS'lib'
p9
(dp10
sS'unicodes'
p11
(tsS'width'
p12
I1699
sS'contours'
p13
(tsS'components'
p14
(tsS'anchors'
p15
(tsss."
HStem: 1166 36<1175.59 1436.62> 1173 35<536.118 790.101>
VStem: 361 44<1005 1079.96> 953 44<950 1035.75> 1463 109<1010.01 1100.75>
LayerCount: 2
Fore
SplineSet
207 0 m 1x78
 598 0 l 1
 598 34 l 1
 405 34 l 1
 405 770 l 1
 848 770 l 1
 848 804 l 1
 405 804 l 1
 405 1011 l 2
 405 1111 506 1173 667 1173 c 0
 767 1173 896 1132 1001 1067 c 1
 1026 1092 l 1
 914 1163 774 1208 663 1208 c 0
 477 1208 361 1130 361 1005 c 2
 361 804 l 1
 202 804 l 1
 202 770 l 1
 361 770 l 1
 361 34 l 1
 207 34 l 1
 207 0 l 1x78
EndSplineSet
Refer: 239 64257 N 1 0 0 1 671 0 2
EndChar

StartChar: ffl
Encoding: 64260 64260 238
Width: 1801
VWidth: 0
Flags: W
PickledData: "(dp1
S'org.robofab.postScriptHintData'
p2
(dp3
sS'com.typemytype.robofont.layerData'
p4
(dp5
S'b'
(dp6
S'name'
p7
S'ffl'
p8
sS'lib'
p9
(dp10
sS'unicodes'
p11
(tsS'width'
p12
I1801
sS'contours'
p13
(tsS'components'
p14
(tsS'anchors'
p15
(tsss."
HStem: 1173 35<429.118 683.101> 1204 36<1091.58 1380.48>
VStem: 254 44<1005 1079.96> 860 44<959 1060.13> 1454 44<1120 1161.48>
LayerCount: 2
Fore
SplineSet
100 0 m 1xb8
 491 0 l 1
 491 34 l 1
 298 34 l 1
 298 770 l 1
 741 770 l 1
 741 804 l 1
 298 804 l 1
 298 1011 l 2
 298 1111 399 1173 560 1173 c 0
 660 1173 789 1132 894 1067 c 1
 919 1092 l 1
 807 1163 667 1208 556 1208 c 0
 370 1208 254 1130 254 1005 c 2
 254 804 l 1
 95 804 l 1
 95 770 l 1
 254 770 l 1
 254 34 l 1
 100 34 l 1
 100 0 l 1xb8
EndSplineSet
Refer: 242 64258 N 1 0 0 1 578 0 2
EndChar

StartChar: fi
Encoding: 64257 64257 239
Width: 1044
VWidth: 0
Flags: W
PickledData: "(dp1
S'org.robofab.postScriptHintData'
p2
(dp3
sS'com.typemytype.robofont.layerData'
p4
(dp5
S'b'
(dp6
S'name'
p7
S'fi'
p8
sS'lib'
p9
(dp10
sS'unicodes'
p11
(tsS'width'
p12
I1044
sS'contours'
p13
(tsS'components'
p14
(tsS'anchors'
p15
(tsss."
HStem: 1166 36<504.589 765.617>
VStem: 282 44<950 1035.75> 792 109<1010.01 1100.75>
LayerCount: 2
Fore
SplineSet
114 0 m 1
 528 0 l 1
 528 34 l 1
 326 34 l 1
 326 770 l 1
 835 770 l 1
 835 34 l 1
 682 34 l 1
 682 0 l 1
 1036 0 l 1
 1036 34 l 1
 879 34 l 1
 879 804 l 1
 326 804 l 1
 326 952 l 2
 326 1083 449 1166 644 1166 c 0
 708 1166 810 1152 831 1101 c 1
 803 1096 792 1073 792 1052 c 0
 792 1026 816 1009 850 1009 c 0
 883 1009 901 1031 901 1065 c 0
 901 1149 803 1202 648 1202 c 0
 423 1202 282 1105 282 950 c 2
 282 804 l 1
 109 804 l 1
 109 770 l 1
 282 770 l 1
 282 34 l 1
 114 34 l 1
 114 0 l 1
EndSplineSet
EndChar

StartChar: five
Encoding: 53 53 240
Width: 964
VWidth: 0
Flags: W
PickledData: "(dp1
S'org.robofab.postScriptHintData'
p2
(dp3
sS'com.typemytype.robofont.layerData'
p4
(dp5
S'b'
(dp6
S'name'
p7
S'five'
p8
sS'lib'
p9
(dp10
sS'unicodes'
p11
(tsS'width'
p12
I964
sS'contours'
p13
(tsS'components'
p14
(tsS'anchors'
p15
(tsss."
HStem: -22 36<355.674 615.446> 692 36<379.633 629.679>
VStem: 854 42<221.371 487.711>
LayerCount: 2
Fore
SplineSet
473 -22 m 0
 745 -22 896 112 896 352 c 0
 896 594 753 728 495 728 c 0
 369 728 266 684 207 605 c 1
 208 1118 l 1
 783 1118 l 1
 783 920 l 1
 826 920 l 1
 826 1152 l 1
 164 1152 l 1
 164 585 l 1
 210 567 l 1
 283 650 395 692 495 692 c 0
 726 692 854 571 854 352 c 0
 854 135 718 14 473 14 c 0
 336 14 214 80 131 200 c 1
 106 169 l 1
 199 46 330 -22 473 -22 c 0
EndSplineSet
EndChar

StartChar: fj
Encoding: 65544 -1 241
Width: 1044
VWidth: 0
Flags: W
PickledData: "(dp1
S'org.robofab.postScriptHintData'
p2
(dp3
s."
HStem: -240 32<696 787.807> 1166 36<504.589 765.617>
VStem: 282 44<950 1035.75> 792 109<1010.01 1100.75> 832 47<-177.853 -34>
LayerCount: 2
Fore
SplineSet
634 -240 m 1xe8
 706 -240 l 2
 904 -240 879 -101 879 -34 c 2
 879 804 l 1xe8
 326 804 l 1
 326 952 l 2
 326 1083 449 1166 644 1166 c 0
 708 1166 810 1152 831 1101 c 1
 803 1096 792 1073 792 1052 c 0
 792 1026 816 1009 850 1009 c 0
 883 1009 901 1031 901 1065 c 0xf0
 901 1149 803 1202 648 1202 c 0
 423 1202 282 1105 282 950 c 2
 282 804 l 1
 109 804 l 1
 109 770 l 1
 282 770 l 1
 282 34 l 1
 114 34 l 1
 114 0 l 1
 528 0 l 1
 528 34 l 1
 326 34 l 1
 326 770 l 1
 832 770 l 1
 832 -39 l 2
 832 -152 839 -208 696 -208 c 2
 634 -208 l 1
 634 -240 l 1xe8
EndSplineSet
EndChar

StartChar: fl
Encoding: 64258 64258 242
Width: 1223
VWidth: 0
Flags: W
PickledData: "(dp1
S'org.robofab.postScriptHintData'
p2
(dp3
sS'com.typemytype.robofont.layerData'
p4
(dp5
S'b'
(dp6
S'name'
p7
S'fl'
p8
sS'lib'
p9
(dp10
sS'unicodes'
p11
(tsS'width'
p12
I1223
sS'contours'
p13
(tsS'components'
p14
(tsS'anchors'
p15
(tsss."
HStem: 1204 36<513.578 802.481>
VStem: 282 44<959 1060.13> 876 44<1120 1161.48>
LayerCount: 2
Fore
SplineSet
114 0 m 1
 528 0 l 1
 528 34 l 1
 326 34 l 1
 326 770 l 1
 545 770 l 1
 545 804 l 1
 326 804 l 1
 326 967 l 2
 326 1113 450 1204 648 1204 c 0
 788 1204 876 1174 876 1127 c 2
 876 34 l 1
 876 0 l 1
 1127 0 l 1
 1127 34 l 1
 920 34 l 1
 920 1120 l 2
 920 1194 815 1240 648 1240 c 0
 423 1240 282 1132 282 959 c 2
 282 804 l 1
 109 804 l 1
 109 770 l 1
 282 770 l 1
 282 34 l 1
 114 34 l 1
 114 0 l 1
EndSplineSet
EndChar

StartChar: florin
Encoding: 402 402 243
Width: 707
VWidth: 0
Flags: W
PickledData: "(dp1
S'org.robofab.postScriptHintData'
p2
(dp3
s."
HStem: -86 28<84 173.984>
VStem: 662 37<1083.12 1135.74>
LayerCount: 2
Fore
SplineSet
414 1034 m 2
 370 804 l 1
 195 804 l 1
 190 773 l 1
 365 773 l 1
 233 60 l 2
 213 -46 173 -58 82 -58 c 1
 84 -86 l 1
 176 -86 247 -86 274 60 c 2
 408 773 l 1
 627 773 l 1
 631 804 l 1
 412 804 l 1
 456 1030 l 2
 478 1142 525 1172 587 1168 c 0
 636 1165 657 1129 662 1077 c 1
 692 1077 699 1099 699 1115 c 0
 699 1162 640 1192 590 1194 c 0
 501 1198 437 1156 414 1034 c 2
EndSplineSet
EndChar

StartChar: foundryicon
Encoding: 65545 -1 244
Width: 1347
VWidth: 0
Flags: W
PickledData: "(dp1
S'org.robofab.postScriptHintData'
p2
(dp3
sS'com.typemytype.robofont.layerData'
p4
(dp5
S'b'
(dp6
S'name'
p7
S'foundryicon'
p8
sS'lib'
p9
(dp10
sS'unicodes'
p11
(tsS'width'
p12
I1347
sS'contours'
p13
(tsS'components'
p14
(tsS'anchors'
p15
(tsss."
LayerCount: 2
Fore
SplineSet
280 2 m 1
 669 278 l 1
 1066 2 l 1
 922 461 l 1
 1313 755 l 1
 828 755 l 1
 669 1215 l 1
 519 755 l 1
 34 755 l 1
 423 461 l 1
 280 2 l 1
485 405 m 1
 485 672 l 1
 591 672 l 1
 761 523 l 1
 761 672 l 1
 867 672 l 1
 867 405 l 1
 761 405 l 1
 591 552 l 1
 591 405 l 1
 485 405 l 1
EndSplineSet
EndChar

StartChar: four
Encoding: 52 52 245
Width: 964
VWidth: 0
Flags: W
PickledData: "(dp1
S'org.robofab.postScriptHintData'
p2
(dp3
sS'com.typemytype.robofont.layerData'
p4
(dp5
S'b'
(dp6
S'name'
p7
S'four'
p8
sS'lib'
p9
(dp10
sS'unicodes'
p11
(tsS'width'
p12
I964
sS'contours'
p13
(tsS'components'
p14
(tsS'anchors'
p15
(tsss."
LayerCount: 2
Fore
SplineSet
159 404 m 1
 593 1102 l 1
 593 404 l 1
 159 404 l 1
450 0 m 1
 782 0 l 1
 782 34 l 1
 637 34 l 1
 637 370 l 1
 857 370 l 1
 857 404 l 1
 637 404 l 1
 637 1152 l 1
 582 1152 l 1
 113 408 l 1
 122 370 l 1
 593 370 l 1
 593 34 l 1
 450 34 l 1
 450 0 l 1
EndSplineSet
EndChar

StartChar: foursuperior
Encoding: 8308 8308 246
Width: 718
VWidth: 0
Flags: W
PickledData: "(dp1
S'org.robofab.postScriptHintData'
p2
(dp3
sS'com.typemytype.robofont.layerData'
p4
(dp5
S'b'
(dp6
S'name'
p7
S'uni2074'
p8
sS'lib'
p9
(dp10
sS'unicodes'
p11
(tsS'width'
p12
I718
sS'contours'
p13
(tsS'components'
p14
(tsS'anchors'
p15
(tsss."
HStem: 816 21G<96 429>
LayerCount: 2
Fore
SplineSet
96 816 m 1
 429 1275 l 1
 429 816 l 1
 96 816 l 1
307 550 m 1
 592 550 l 1
 592 584 l 1
 467 584 l 1
 467 782 l 1
 664 782 l 1
 664 816 l 1
 467 816 l 1
 467 1321 l 1
 418 1321 l 1
 45 812 l 1
 57 782 l 1
 429 782 l 1
 429 584 l 1
 307 584 l 1
 307 550 l 1
EndSplineSet
EndChar

StartChar: fraction
Encoding: 8260 8260 247
Width: 337
VWidth: 0
Flags: W
PickledData: "(dp1
S'org.robofab.postScriptHintData'
p2
(dp3
sS'com.typemytype.robofont.layerData'
p4
(dp5
S'b'
(dp6
S'name'
p7
S'fraction'
p8
sS'lib'
p9
(dp10
sS'unicodes'
p11
(tsS'width'
p12
I337
sS'contours'
p13
(tsS'components'
p14
(tsS'anchors'
p15
(tsss."
LayerCount: 2
Fore
SplineSet
-35 -25 m 1
 19 -25 l 1
 360 1289 l 1
 312 1289 l 1
 -35 -25 l 1
EndSplineSet
EndChar

StartChar: g
Encoding: 103 103 248
Width: 1013
VWidth: 0
Flags: HW
PickledData: "(dp1
S'org.robofab.postScriptHintData'
p2
(dp3
sS'com.typemytype.robofont.layerData'
p4
(dp5
S'b'
(dp6
S'name'
p7
S'g'
sS'lib'
p8
(dp9
sS'unicodes'
p10
(tsS'width'
p11
I1013
sS'contours'
p12
((dp13
S'points'
p14
((dp15
S'segmentType'
p16
S'curve'
p17
sS'x'
I510
sS'smooth'
p18
I1
sS'y'
S'-333'
p19
s(dp20
S'y'
S'-333'
p21
sS'x'
I722
sg18
I0
s(dp22
S'y'
S'-225'
p23
sS'x'
I880
sg18
I0
s(dp24
g16
S'curve'
p25
sS'x'
I880
sg18
I0
sS'y'
I15
s(dp26
g16
S'line'
p27
sS'x'
I880
sg18
I0
sS'y'
I735
s(dp28
g16
S'line'
p29
sS'x'
I1005
sg18
I0
sS'y'
I735
s(dp30
g16
S'line'
p31
sS'x'
I1005
sg18
I0
sS'y'
I789
s(dp32
g16
S'line'
p33
sS'x'
I804
sg18
I0
sS'y'
I789
s(dp34
g16
S'line'
p35
sS'x'
I804
sg18
I0
sS'y'
I673
s(dp36
S'y'
I673
sS'x'
I804
sg18
I0
s(dp37
S'y'
S'-2'
p38
sS'x'
I804
sg18
I0
s(dp39
g16
S'curve'
p40
sS'x'
I804
sg18
I1
sS'y'
S'-2'
p41
s(dp42
S'y'
S'-173'
p43
sS'x'
I804
sg18
I0
s(dp44
S'y'
S'-271'
p45
sS'x'
I695
sg18
I0
s(dp46
g16
S'curve'
p47
sS'x'
I515
sg18
I1
sS'y'
S'-271'
p48
s(dp49
S'y'
S'-271'
p50
sS'x'
I444
sg18
I0
s(dp51
S'y'
S'-255'
p52
sS'x'
I362
sg18
I0
s(dp53
g16
S'curve'
p54
sS'x'
I272
sg18
I0
sS'y'
S'-224'
p55
s(dp56
g16
S'line'
p57
sS'x'
I257
sg18
I0
sS'y'
S'-289'
p58
s(dp59
S'y'
S'-318'
p60
sS'x'
I345
sg18
I0
s(dp61
S'y'
S'-333'
p62
sS'x'
I431
sg18
I0
stp63
stp64
sS'components'
p65
(tsS'anchors'
p66
(tsss."
HStem: -374 34<324.396 607.557> -6.56 33.32<370.146 599.952> 791.16 33.32<355.485 585.978>
VStem: 63 42<278.358 534.2> 804 44<-158.508 -17>
AnchorPoint: "top" 486 804 basechar 0
LayerCount: 2
Fore
SplineSet
477 -374 m 0
 710 -374 848 -261 848 -17 c 2
 848 770 l 1
 984 770 l 1
 984 804 l 1
 804 804 l 1
 804 702.365594076 l 1
 716.948921926 774.32638054 581.495983956 824.48046875 464 824.48046875 c 0
 226 824.48046875 60 650.040039062 63 404.059570312 c 0
 66 163.959960938 243 -6.5595703125 490 -6.5595703125 c 0
 598.526980052 -6.5595703125 723.084651763 43.1884528471 804 115.504813095 c 1
 804 -31 l 2
 804 -220 701 -340 480 -340 c 0
 405 -340 314 -326 200 -294 c 1
 193 -328 l 1
 298 -355 394 -374 477 -374 c 0
804 669.664578269 m 1
 804 152.84003826 l 1
 720.56990214 78.451281771 595.897922601 26.759765625 490 26.759765625 c 0
 265 26.759765625 105 183.559570312 105 404.059570312 c 0
 105 630.440429688 254 791.16015625 464 791.16015625 c 0
 579.790252094 791.16015625 714.49712822 741.724817676 804 669.664578269 c 1
EndSplineSet
EndChar

StartChar: germandbls
Encoding: 223 223 255
Width: 1198
VWidth: 0
Flags: W
PickledData: "(dp1
S'org.robofab.postScriptHintData'
p2
(dp3
sS'com.typemytype.robofont.layerData'
p4
(dp5
S'b'
(dp6
S'name'
p7
S'germandbls'
p8
sS'lib'
p9
(dp10
sS'unicodes'
p11
(tsS'width'
p12
I1198
sS'contours'
p13
(tsS'components'
p14
(tsS'anchors'
p15
(tsss."
HStem: 0 40<575 757.012> 670 24<602 679.029> 1230 34<494.55 729.263>
VStem: 264 45<877 1035.09> 900 42<870.364 1093.78> 1055 42<249.348 462.977>
LayerCount: 2
Fore
SplineSet
110 0 m 1
 431 0 l 1
 431 40 l 1
 309 40 l 1
 309 882 l 2
 309 1096 400 1230 602 1230 c 0
 806 1230 900 1136 900 987 c 0
 900 815 798 705 602 694 c 1
 602 670 l 1
 887 669 1055 550 1055 353 c 0
 1055 149 857 40 575 40 c 1
 575 0 l 1
 901 0 1097 141 1097 353 c 0
 1097 531 987 666 713 687 c 1
 853 716 942 828 942 986 c 0
 942 1171 820 1264 602 1264 c 0
 379 1264 264 1130 264 877 c 2
 264 40 l 1
 110 40 l 1
 110 0 l 1
EndSplineSet
EndChar

StartChar: grave
Encoding: 96 96 256
Width: 137
VWidth: 0
Flags: W
PickledData: "(dp1
S'org.robofab.postScriptHintData'
p2
(dp3
sS'com.typemytype.robofont.layerData'
p4
(dp5
S'b'
(dp6
S'name'
p7
S'grave'
p8
sS'lib'
p9
(dp10
sS'unicodes'
p11
(tsS'width'
p12
I137
sS'contours'
p13
(tsS'components'
p14
(tsS'anchors'
p15
(tsss."
HStem: 991 245
AnchorPoint: "top" 133 804 mark 0
LayerCount: 2
Fore
SplineSet
116 991 m 1
 137 991 l 1
 50 1236 l 1
 8 1236 l 1
 116 991 l 1
EndSplineSet
EndChar

StartChar: greater
Encoding: 62 62 257
Width: 896
VWidth: 0
Flags: W
PickledData: "(dp1
S'org.robofab.postScriptHintData'
p2
(dp3
sS'com.typemytype.robofont.layerData'
p4
(dp5
S'b'
(dp6
S'name'
p7
S'greater'
p8
sS'lib'
p9
(dp10
sS'unicodes'
p11
(tsS'width'
p12
I896
sS'contours'
p13
(tsS'components'
p14
(tsS'anchors'
p15
(tsss."
LayerCount: 2
Fore
SplineSet
141 -122 m 1
 945 556 l 1
 945 575 l 1
 141 1261 l 1
 141 1185 l 1
 892 566 l 1
 141 -50 l 1
 141 -122 l 1
EndSplineSet
EndChar

StartChar: greaterequal
Encoding: 8805 8805 258
Width: 595
VWidth: 0
Flags: W
PickledData: "(dp1
S'org.robofab.postScriptHintData'
p2
(dp3
sS'com.typemytype.robofont.layerData'
p4
(dp5
S'b'
(dp6
S'name'
p7
S'greaterequal'
p8
sS'lib'
p9
(dp10
sS'unicodes'
p11
(tsS'width'
p12
I595
sS'contours'
p13
(tsS'components'
p14
(tsS'anchors'
p15
(tsss."
VStem: -1 611
LayerCount: 2
Fore
SplineSet
-1 0 m 1
 610 0 l 1
 610 33 l 1
 -1 33 l 1
 -1 0 l 1
-1 182 m 1
 610 496 l 1
 610 519 l 1
 -1 836 l 1
 -1 793 l 1
 538 507 l 1
 -1 222 l 1
 -1 182 l 1
EndSplineSet
EndChar

StartChar: guillemotleft
Encoding: 171 171 259
Width: 744
VWidth: 0
Flags: W
PickledData: "(dp1
S'org.robofab.postScriptHintData'
p2
(dp3
sS'com.typemytype.robofont.layerData'
p4
(dp5
S'b'
(dp6
S'name'
p7
S'guillemotleft'
p8
sS'lib'
p9
(dp10
sS'unicodes'
p11
(tsS'width'
p12
I744
sS'contours'
p13
(tsS'components'
p14
(tsS'anchors'
p15
(tsss."
LayerCount: 2
Fore
SplineSet
560 309 m 1
 589 309 l 1
 374 686 l 1
 589 1059 l 1
 560 1059 l 1
 295 686 l 1
 560 309 l 1
327 309 m 1
 356 309 l 1
 143 686 l 1
 356 1059 l 1
 327 1059 l 1
 63 686 l 1
 327 309 l 1
EndSplineSet
EndChar

StartChar: guillemotright
Encoding: 187 187 260
Width: 744
VWidth: 0
Flags: W
PickledData: "(dp1
S'org.robofab.postScriptHintData'
p2
(dp3
sS'com.typemytype.robofont.layerData'
p4
(dp5
S'b'
(dp6
S'name'
p7
S'guillemotright'
p8
sS'lib'
p9
(dp10
sS'unicodes'
p11
(tsS'width'
p12
I744
sS'contours'
p13
(tsS'components'
p14
(tsS'anchors'
p15
(tsss."
LayerCount: 2
Fore
SplineSet
387 309 m 1
 416 309 l 1
 681 686 l 1
 416 1059 l 1
 387 1059 l 1
 601 686 l 1
 387 309 l 1
155 309 m 1
 184 309 l 1
 448 686 l 1
 184 1059 l 1
 155 1059 l 1
 368 686 l 1
 155 309 l 1
EndSplineSet
EndChar

StartChar: guilsinglleft
Encoding: 8249 8249 261
Width: 405
VWidth: 0
Flags: W
PickledData: "(dp1
S'org.robofab.postScriptHintData'
p2
(dp3
sS'com.typemytype.robofont.layerData'
p4
(dp5
S'b'
(dp6
S'name'
p7
S'guilsinglleft'
p8
sS'lib'
p9
(dp10
sS'unicodes'
p11
(tsS'width'
p12
I405
sS'contours'
p13
(tsS'components'
p14
(tsS'anchors'
p15
(tsss."
LayerCount: 2
Fore
SplineSet
270 309 m 1
 299 309 l 1
 86 686 l 1
 299 1059 l 1
 270 1059 l 1
 7 686 l 1
 270 309 l 1
EndSplineSet
EndChar

StartChar: guilsinglright
Encoding: 8250 8250 262
Width: 405
VWidth: 0
Flags: W
PickledData: "(dp1
S'org.robofab.postScriptHintData'
p2
(dp3
sS'com.typemytype.robofont.layerData'
p4
(dp5
S'b'
(dp6
S'name'
p7
S'guilsinglright'
p8
sS'lib'
p9
(dp10
sS'unicodes'
p11
(tsS'width'
p12
I405
sS'contours'
p13
(tsS'components'
p14
(tsS'anchors'
p15
(tsss."
LayerCount: 2
Fore
SplineSet
106 309 m 1
 135 309 l 1
 399 686 l 1
 135 1059 l 1
 106 1059 l 1
 319 686 l 1
 106 309 l 1
EndSplineSet
EndChar

StartChar: h
Encoding: 104 104 263
Width: 965
VWidth: 0
Flags: HW
PickledData: "(dp1
S'org.robofab.postScriptHintData'
p2
(dp3
sS'com.typemytype.robofont.layerData'
p4
(dp5
S'b'
(dp6
S'name'
p7
S'h'
sS'lib'
p8
(dp9
sS'unicodes'
p10
(tsS'width'
p11
I965
sS'contours'
p12
(tsS'components'
p13
(tsS'anchors'
p14
(tsss."
HStem: 790 36<451.62 651.148>
VStem: 25 343 761 44<582 694.428>
AnchorPoint: "top" 499 1005 basechar 0
LayerCount: 2
Fore
SplineSet
25 0 m 1
 368 0 l 1
 368 34 l 1
 218 34 l 1
 218 678.331483148 l 1
 357.45158294 749.587981095 485.600187722 790 557 790 c 0
 682 790 761 719 761 605 c 2
 761 34 l 1
 581 34 l 1
 581 0 l 1
 959 0 l 1
 959 34 l 1
 805 34 l 1
 805 582 l 2
 805 732 711 826 562 826 c 0
 472.048947441 826 341.658785227 783.033445993 218 713.339357969 c 1
 218 1174 l 1
 33 1174 l 1
 33 1140 l 1
 174 1140 l 1
 174 34 l 1
 25 34 l 1
 25 0 l 1
EndSplineSet
EndChar

StartChar: hungarumlaut
Encoding: 733 733 266
Width: 356
VWidth: 0
Flags: W
PickledData: "(dp1
S'org.robofab.postScriptHintData'
p2
(dp3
sS'com.typemytype.robofont.layerData'
p4
(dp5
S'b'
(dp6
S'name'
p7
S'hungarumlaut'
p8
sS'lib'
p9
(dp10
sS'unicodes'
p11
(tsS'width'
p12
I356
sS'contours'
p13
(tsS'components'
p14
(tsS'anchors'
p15
(tsss."
HStem: 991 295
AnchorPoint: "top" 134 804 mark 0
LayerCount: 2
Fore
SplineSet
157 1286 m 1
 50 991 l 1
 71 991 l 1
 199 1286 l 1
 157 1286 l 1
337 1286 m 1
 230 991 l 1
 251 991 l 1
 379 1286 l 1
 337 1286 l 1
EndSplineSet
EndChar

StartChar: hyphen
Encoding: 45 45 267
Width: 915
VWidth: 0
Flags: W
PickledData: "(dp1
S'org.robofab.postScriptHintData'
p2
(dp3
sS'com.typemytype.robofont.layerData'
p4
(dp5
S'b'
(dp6
S'name'
p7
S'hyphen'
p8
sS'lib'
p9
(dp10
sS'unicodes'
p11
(tsS'width'
p12
I915
sS'contours'
p13
(tsS'components'
p14
(tsS'anchors'
p15
(tsss."
HStem: 437 34
VStem: 195 523
LayerCount: 2
Fore
SplineSet
195 437 m 1
 718 437 l 1
 718 471 l 1
 195 471 l 1
 195 437 l 1
EndSplineSet
EndChar

StartChar: i
Encoding: 105 105 268
Width: 537
VWidth: 0
Flags: HW
PickledData: "(dp1
S'org.robofab.postScriptHintData'
p2
(dp3
sS'com.typemytype.robofont.layerData'
p4
(dp5
S'b'
(dp6
S'name'
p7
S'i'
sS'lib'
p8
(dp9
sS'unicodes'
p10
(tsS'width'
p11
I537
sS'contours'
p12
(tsS'components'
p13
(tsS'anchors'
p14
(tsss."
HStem: 1019 83<239.013 329.986>
VStem: 96 401 239 91<1019.05 1101.95>
LayerCount: 2
Fore
SplineSet
283 1019 m 0
 311 1019 330 1036 330 1061 c 0
 330 1085 311 1102 283 1102 c 0
 257 1102 239 1085 239 1061 c 0
 239 1036 257 1019 283 1019 c 0
96 0 m 1
 497 0 l 1
 497 34 l 1
 321 34 l 1
 321 646 l 1
 321 804 l 1
 99 804 l 1
 99 770 l 1
 277 770 l 1
 277 34 l 1
 96 34 l 1
 96 0 l 1
EndSplineSet
EndChar

StartChar: infinity
Encoding: 8734 8734 276
Width: 1244
VWidth: 0
Flags: W
PickledData: "(dp1
S'org.robofab.postScriptHintData'
p2
(dp3
sS'com.typemytype.robofont.layerData'
p4
(dp5
S'b'
(dp6
S'name'
p7
S'infinity'
p8
sS'lib'
p9
(dp10
sS'unicodes'
p11
(tsS'width'
p12
I1244
sS'contours'
p13
(tsS'components'
p14
(tsS'anchors'
p15
(tsss."
HStem: 278 34<302.272 430.842 798.238 948.204> 767 35<287.178 447.431 804.244 947.308>
VStem: 137 55<410.311 665.074> 1051 56<411.335 668.461>
LayerCount: 2
Fore
SplineSet
877 312 m 0
 775 312 711 374 637 539 c 1
 707 690 779 767 876 767 c 0
 982 767 1051 668 1051 541 c 0
 1051 400 979 312 877 312 c 0
368 315 m 0
 252 315 192 414 192 543 c 0
 192 646 244 772 366 772 c 0
 463 772 543 688 606 544 c 1
 531 383 456 315 368 315 c 0
872 278 m 0
 980 278 1107 362 1107 539 c 0
 1107 720 985 802 873 802 c 0
 764 802 679 735 619 624 c 1
 553 754 448 805 376 805 c 0
 227 805 137 680 137 544 c 0
 137 405 209 283 376 283 c 0
 464 283 556 332 628 464 c 1
 695 321 783 278 872 278 c 0
EndSplineSet
EndChar

StartChar: integral
Encoding: 8747 8747 277
Width: 600
VWidth: 0
Flags: W
PickledData: "(dp1
S'org.robofab.postScriptHintData'
p2
(dp3
s."
HStem: -83 26<25.8911 113.294>
VStem: -45 37<-26.261 27.8832> 594 37<1083.12 1135.74>
LayerCount: 2
Fore
SplineSet
64 -83 m 0
 155 -83 191 -23 210 77 c 2
 388 1030 l 2
 408 1140 457 1172 519 1168 c 0
 568 1165 589 1129 594 1077 c 1
 624 1077 631 1099 631 1115 c 0
 631 1162 572 1192 522 1194 c 0
 433 1198 368 1154 346 1034 c 2
 168 81 l 2
 152 -9 131 -57 67 -57 c 0
 18 -57 -3 -18 -8 34 c 1
 -38 34 -45 12 -45 -4 c 0
 -45 -51 14 -83 64 -83 c 0
EndSplineSet
EndChar

StartChar: j
Encoding: 106 106 280
Width: 398
VWidth: 0
Flags: HW
PickledData: "(dp1
S'org.robofab.postScriptHintData'
p2
(dp3
sS'com.typemytype.robofont.layerData'
p4
(dp5
S'b'
(dp6
S'name'
p7
S'j'
sS'lib'
p8
(dp9
sS'unicodes'
p10
(tsS'width'
p11
I398
sS'contours'
p12
(tsS'components'
p13
(tsS'anchors'
p14
(tsss."
HStem: 1020 83<184.013 274.986>
VStem: 184 91<1020.05 1102.95>
LayerCount: 2
Fore
SplineSet
228 1020 m 0
 256 1020 275 1037 275 1062 c 0
 275 1086 256 1103 228 1103 c 0
 202 1103 184 1086 184 1062 c 0
 184 1037 202 1020 228 1020 c 0
23 -240 m 1
 95 -240 l 2
 293 -240 268 -101 268 -34 c 2
 268 805 l 1
 64 805 l 1
 64 774 l 1
 221 774 l 1
 221 -39 l 2
 221 -152 228 -208 85 -208 c 2
 23 -208 l 1
 23 -240 l 1
EndSplineSet
EndChar

StartChar: k
Encoding: 107 107 282
Width: 972
VWidth: 0
Flags: HW
PickledData: "(dp1
S'org.robofab.postScriptHintData'
p2
(dp3
sS'com.typemytype.robofont.guides'
p4
((dp5
S'y'
I421
sS'x'
I474
sS'magnetic'
p6
I5
sS'angle'
p7
I0
sS'isGlobal'
p8
I0
stp9
sS'com.typemytype.robofont.layerData'
p10
(dp11
S'b'
(dp12
S'name'
p13
S'k'
sS'lib'
p14
(dp15
sS'unicodes'
p16
(tsS'width'
p17
I972
sS'contours'
p18
(tsS'components'
p19
(tsS'anchors'
p20
(tsss."
VStem: 63 343
AnchorPoint: "top" 551 1004 basechar 0
LayerCount: 2
Fore
SplineSet
723 0 m 1
 926 0 l 1
 926 34 l 1
 742 34 l 1
 314 419 l 1
 767 770 l 1
 921 770 l 1
 921 804 l 1
 545 804 l 1
 545 770 l 1
 713 770 l 1
 256 423 l 1
 256 1174 l 1
 71 1174 l 1
 71 1140 l 1
 212 1140 l 1
 212 34 l 1
 63 34 l 1
 63 0 l 1
 406 0 l 1
 406 34 l 1
 256 34 l 1
 256 423 l 1
 723 0 l 1
EndSplineSet
EndChar

StartChar: kgreenlandic
Encoding: 312 312 284
Width: 927
VWidth: 0
Flags: W
PickledData: "(dp1
S'org.robofab.postScriptHintData'
p2
(dp3
sS'com.typemytype.robofont.layerData'
p4
(dp5
S'b'
(dp6
S'name'
p7
S'kgreenlandic'
p8
sS'lib'
p9
(dp10
sS'unicodes'
p11
(tsS'width'
p12
I927
sS'contours'
p13
(tsS'components'
p14
(tsS'anchors'
p15
(tsss."
LayerCount: 2
Fore
SplineSet
72 0 m 1
 395 0 l 1
 395 34 l 1
 256 34 l 1
 256 804 l 1
 80 804 l 1
 80 770 l 1
 212 770 l 1
 212 34 l 1
 72 34 l 1
 72 0 l 1
681 0 m 1
 879 0 l 1
 879 34 l 1
 706 34 l 1
 343 411 l 1
 731 770 l 1
 874 770 l 1
 874 804 l 1
 522 804 l 1
 522 770 l 1
 674 770 l 1
 286 413 l 1
 681 0 l 1
EndSplineSet
EndChar

StartChar: l
Encoding: 108 108 285
Width: 445
VWidth: 0
Flags: HW
PickledData: "(dp1
S'org.robofab.postScriptHintData'
p2
(dp3
sS'com.typemytype.robofont.layerData'
p4
(dp5
S'b'
(dp6
S'name'
p7
S'l'
sS'lib'
p8
(dp9
sS'unicodes'
p10
(tsS'width'
p11
I445
sS'contours'
p12
(tsS'components'
p13
(tsS'anchors'
p14
(tsss."
VStem: 57 343
AnchorPoint: "top" 227 1152 basechar 0
LayerCount: 2
Fore
SplineSet
57 0 m 1
 400 0 l 1
 400 34 l 1
 250 34 l 1
 250 1174 l 1
 65 1174 l 1
 65 1140 l 1
 206 1140 l 1
 206 34 l 1
 57 34 l 1
 57 0 l 1
EndSplineSet
EndChar

StartChar: less
Encoding: 60 60 290
Width: 896
VWidth: 0
Flags: W
PickledData: "(dp1
S'org.robofab.postScriptHintData'
p2
(dp3
sS'com.typemytype.robofont.layerData'
p4
(dp5
S'b'
(dp6
S'name'
p7
S'less'
p8
sS'lib'
p9
(dp10
sS'unicodes'
p11
(tsS'width'
p12
I896
sS'contours'
p13
(tsS'components'
p14
(tsS'anchors'
p15
(tsss."
LayerCount: 2
Fore
SplineSet
757 -122 m 1
 757 -50 l 1
 6 566 l 1
 757 1185 l 1
 757 1261 l 1
 -49 572 l 1
 -49 559 l 1
 757 -122 l 1
EndSplineSet
EndChar

StartChar: lessequal
Encoding: 8804 8804 291
Width: 593
VWidth: 0
Flags: W
PickledData: "(dp1
S'org.robofab.postScriptHintData'
p2
(dp3
sS'com.typemytype.robofont.layerData'
p4
(dp5
S'b'
(dp6
S'name'
p7
S'lessequal'
p8
sS'lib'
p9
(dp10
sS'unicodes'
p11
(tsS'width'
p12
I593
sS'contours'
p13
(tsS'components'
p14
(tsS'anchors'
p15
(tsss."
VStem: -4 611
LayerCount: 2
Fore
SplineSet
-4 0 m 1
 607 0 l 1
 607 33 l 1
 -4 33 l 1
 -4 0 l 1
607 182 m 1
 607 222 l 1
 68 507 l 1
 607 793 l 1
 607 836 l 1
 -4 519 l 1
 -4 496 l 1
 607 182 l 1
EndSplineSet
EndChar

StartChar: logicalnot
Encoding: 172 172 293
Width: 827
VWidth: 0
Flags: W
PickledData: "(dp1
S'org.robofab.postScriptHintData'
p2
(dp3
sS'com.typemytype.robofont.layerData'
p4
(dp5
S'b'
(dp6
S'name'
p7
S'logicalnot'
p8
sS'lib'
p9
(dp10
sS'unicodes'
p11
(tsS'width'
p12
I827
sS'contours'
p13
(tsS'components'
p14
(tsS'anchors'
p15
(tsss."
HStem: 304 335
VStem: 101 635
LayerCount: 2
Fore
SplineSet
698 304 m 1
 736 304 l 1
 736 639 l 1
 101 639 l 1
 101 603 l 1
 698 603 l 1
 698 304 l 1
EndSplineSet
EndChar

StartChar: lozenge
Encoding: 9674 9674 294
Width: 948
VWidth: 0
Flags: W
PickledData: "(dp1
S'org.robofab.postScriptHintData'
p2
(dp3
sS'com.typemytype.robofont.layerData'
p4
(dp5
S'b'
(dp6
S'name'
p7
S'lozenge'
p8
sS'lib'
p9
(dp10
sS'unicodes'
p11
(tsS'width'
p12
I948
sS'contours'
p13
(tsS'components'
p14
(tsS'anchors'
p15
(tsss."
LayerCount: 2
Fore
SplineSet
477 7 m 1
 103 630 l 1
 477 1254 l 1
 851 630 l 1
 477 7 l 1
455 -32 m 1
 494 -32 l 1
 910 630 l 1
 494 1295 l 1
 455 1295 l 1
 38 628 l 1
 455 -32 l 1
EndSplineSet
EndChar

StartChar: lslash
Encoding: 322 322 295
Width: 445
VWidth: 0
Flags: HW
PickledData: "(dp1
S'org.robofab.postScriptHintData'
p2
(dp3
sS'com.typemytype.robofont.layerData'
p4
(dp5
S'b'
(dp6
S'name'
p7
S'lslash'
p8
sS'lib'
p9
(dp10
sS'unicodes'
p11
(tsS'width'
p12
I445
sS'contours'
p13
(tsS'components'
p14
(tsS'anchors'
p15
(tsss."
VStem: 53 340 57 343
LayerCount: 2
Fore
SplineSet
53 460 m 1x80
 393 679 l 1
 393 727 l 1
 52 506 l 1
 53 460 l 1x80
EndSplineSet
Refer: 285 108 N 1 0 0 1 0 0 2
EndChar

StartChar: m
Encoding: 109 109 296
Width: 1571
VWidth: 0
Flags: HW
PickledData: "(dp1
S'org.robofab.postScriptHintData'
p2
(dp3
sS'com.typemytype.robofont.layerData'
p4
(dp5
S'b'
(dp6
S'name'
p7
S'm'
sS'lib'
p8
(dp9
sS'unicodes'
p10
(tsS'width'
p11
I1571
sS'contours'
p12
(tsS'components'
p13
(tsS'anchors'
p14
(tsss."
HStem: 790 36<479.62 679.148 1057.62 1257.15>
VStem: 34 401 789 44<582 694.428> 1367 44<582 694.428>
AnchorPoint: "top" 803 804 basechar 0
LayerCount: 2
Fore
SplineSet
34 0 m 1
 435 0 l 1
 435 34 l 1
 259 34 l 1
 259 646 l 1
 259 684.901588845 l 1
 393.381710658 752.066912503 515.824725274 790 585 790 c 0
 710 790 789 719 789 605 c 2
 789 34 l 1
 609 34 l 1
 609 0 l 1
 987 0 l 1
 987 34 l 1
 833 34 l 1
 833 582 l 2
 833 616.286361228 828.088794257 647.646897757 818.732135081 675.627799644 c 1
 960.218576023 748.564880475 1090.70203151 790 1163 790 c 0
 1288 790 1367 719 1367 605 c 2
 1367 34 l 1
 1187 34 l 1
 1187 0 l 1
 1565 0 l 1
 1565 34 l 1
 1411 34 l 1
 1411 582 l 2
 1411 732 1317 826 1168 826 c 0
 1073.98809846 826 935.803414077 779.066418239 807.297733844 703.738394497 c 1
 769.755594076 781.058797598 693.02548923 826 590 826 c 0
 503.195569745 826 378.731785328 785.986936203 259 720.554553171 c 1
 259 804 l 1
 37 804 l 1
 37 770 l 1
 215 770 l 1
 215 695.21519185 l 2
 214.333012134 694.810882693 213.66634291 694.405817862 213 694 c 2
 213 661 l 2
 213.666841492 661.359743436 214.333509763 661.718813236 215 662.077208384 c 2
 215 34 l 1
 34 34 l 1
 34 0 l 1
EndSplineSet
EndChar

StartChar: macron
Encoding: 175 175 297
Width: 316
VWidth: 0
Flags: W
PickledData: "(dp1
S'org.robofab.postScriptHintData'
p2
(dp3
sS'com.typemytype.robofont.layerData'
p4
(dp5
S'b'
(dp6
S'name'
p7
S'macron'
p8
sS'lib'
p9
(dp10
sS'unicodes'
p11
(tsS'width'
p12
I316
sS'contours'
p13
(tsS'components'
p14
(tsS'anchors'
p15
(tsss."
HStem: 918 32
VStem: -22 369
AnchorPoint: "top" 164 804 mark 0
LayerCount: 2
Fore
SplineSet
-22 918 m 1
 347 918 l 1
 347 950 l 1
 -22 950 l 1
 -22 918 l 1
EndSplineSet
EndChar

StartChar: minus
Encoding: 8722 8722 299
Width: 912
VWidth: 0
Flags: W
PickledData: "(dp1
S'org.robofab.postScriptHintData'
p2
(dp3
sS'com.typemytype.robofont.layerData'
p4
(dp5
S'b'
(dp6
S'name'
p7
S'minus'
p8
sS'lib'
p9
(dp10
sS'unicodes'
p11
(tsS'width'
p12
I912
sS'contours'
p13
(tsS'components'
p14
(tsS'anchors'
p15
(tsss."
HStem: 569 47
LayerCount: 2
Fore
SplineSet
100 569 m 1
 812 569 l 1
 812 616 l 1
 100 616 l 1
 100 569 l 1
EndSplineSet
EndChar

StartChar: mu
Encoding: 956 956 300
Width: 1025
VWidth: 0
Flags: HW
PickledData: "(dp1
S'org.robofab.postScriptHintData'
p2
(dp3
s."
HStem: -22 34<351.604 564.754>
VStem: 199 44<109.097 204> 782 44<120.27 133>
LayerCount: 2
Fore
SplineSet
199 -313 m 1
 243 -313 l 1
 243 377 l 1
 199 377 l 1
 199 -313 l 1
EndSplineSet
Refer: 392 117 N 1 0 0 1 0 0 2
EndChar

StartChar: multiply
Encoding: 215 215 301
Width: 520
VWidth: 0
Flags: W
PickledData: "(dp1
S'org.robofab.postScriptHintData'
p2
(dp3
sS'com.typemytype.robofont.layerData'
p4
(dp5
S'b'
(dp6
S'name'
p7
S'multiply'
p8
sS'lib'
p9
(dp10
sS'unicodes'
p11
(tsS'width'
p12
I520
sS'contours'
p13
(tsS'components'
p14
(tsS'anchors'
p15
(tsss."
LayerCount: 2
Fore
SplineSet
467 387 m 1
 495 415 l 1
 297 617 l 1
 495 819 l 1
 467 849 l 1
 266 647 l 1
 66 846 l 1
 37 818 l 1
 237 617 l 1
 37 417 l 1
 65 388 l 1
 266 589 l 1
 467 387 l 1
EndSplineSet
EndChar

StartChar: n
Encoding: 110 110 302
Width: 1010
VWidth: 0
Flags: HW
PickledData: "(dp1
S'org.robofab.postScriptHintData'
p2
(dp3
sS'com.typemytype.robofont.layerData'
p4
(dp5
S'b'
(dp6
S'name'
p7
S'n'
sS'lib'
p8
(dp9
sS'unicodes'
p10
(tsS'width'
p11
I1010
sS'contours'
p12
(tsS'components'
p13
(tsS'anchors'
p14
(tsss."
HStem: 790 36<496.62 696.148>
VStem: 34 401 806 44<582 694.428>
AnchorPoint: "top" 596 804 basechar 0
LayerCount: 2
Fore
SplineSet
34 0 m 1
 435 0 l 1
 435 34 l 1
 259 34 l 1
 259 646 l 1
 259 676.280700043 l 1
 399.997749756 748.812102746 529.91803678 790 602 790 c 0
 727 790 806 719 806 605 c 2
 806 34 l 1
 626 34 l 1
 626 0 l 1
 1004 0 l 1
 1004 34 l 1
 850 34 l 1
 850 582 l 2
 850 732 756 826 607 826 c 0
 516.078478647 826 383.840557236 782.101324938 259 711.07428709 c 1
 259 804 l 1
 37 804 l 1
 37 770 l 1
 215 770 l 1
 215 34 l 1
 34 34 l 1
 34 0 l 1
EndSplineSet
EndChar

StartChar: nine
Encoding: 57 57 307
Width: 830
VWidth: 0
Flags: W
PickledData: "(dp1
S'org.robofab.postScriptHintData'
p2
(dp3
sS'com.typemytype.robofont.layerData'
p4
(dp5
S'b'
(dp6
S'name'
p7
S'nine'
p8
sS'lib'
p9
(dp10
sS'unicodes'
p11
(tsS'width'
p12
I830
sS'contours'
p13
(tsS'components'
p14
(tsS'anchors'
p15
(tsss."
HStem: 489 32<317.076 519.271> 1142 32<321.576 532.015>
VStem: 67 42<711.84 951.638> 738 42<728.549 956.452>
LayerCount: 2
Fore
SplineSet
424 521 m 0
 231 521 109 641 109 832 c 0
 109 1022 233 1142 431 1142 c 0
 611 1142 738 1019 738 845 c 0
 738 638 580 521 424 521 c 0
332 -76 m 1
 695 554 l 2
 724 604 780 708 780 845 c 0
 780 1038 635 1174 431 1174 c 0
 207 1174 67 1042 67 832 c 0
 67 621 205 489 424 489 c 0
 488 489 604 515 665 580 c 1
 290 -56 l 1
 332 -76 l 1
EndSplineSet
EndChar

StartChar: notequal
Encoding: 8800 8800 309
Width: 793
VWidth: 0
Flags: W
PickledData: "(dp1
S'org.robofab.postScriptHintData'
p2
(dp3
sS'com.typemytype.robofont.layerData'
p4
(dp5
S'b'
(dp6
S'name'
p7
S'notequal'
p8
sS'lib'
p9
(dp10
sS'unicodes'
p11
(tsS'width'
p12
I793
sS'contours'
p13
(tsS'components'
p14
(tsS'anchors'
p15
(tsss."
HStem: 88 652
LayerCount: 2
Fore
SplineSet
298 88 m 1
 330 88 l 1
 378 269 l 1
 723 269 l 1
 723 296 l 1
 386 296 l 1
 447 529 l 1
 713 529 l 1
 713 561 l 1
 454 561 l 1
 502 740 l 1
 474 740 l 1
 425 561 l 1
 80 561 l 1
 80 529 l 1
 416 529 l 1
 355 296 l 1
 90 296 l 1
 90 269 l 1
 347 269 l 1
 298 88 l 1
EndSplineSet
EndChar

StartChar: numbersign
Encoding: 35 35 311
Width: 917
VWidth: 0
Flags: W
PickledData: "(dp1
S'org.robofab.postScriptHintData'
p2
(dp3
sS'com.typemytype.robofont.layerData'
p4
(dp5
S'b'
(dp6
S'name'
p7
S'numbersign'
p8
sS'lib'
p9
(dp10
sS'unicodes'
p11
(tsS'width'
p12
I917
sS'contours'
p13
(tsS'components'
p14
(tsS'anchors'
p15
(tsss."
HStem: 815 21G<296 645.446>
LayerCount: 2
Fore
SplineSet
269 421 m 1
 298 782 l 1
 645 782 l 1
 617 421 l 1
 269 421 l 1
186 0 m 1
 241 0 l 1
 270 388 l 1
 617 388 l 1
 586 0 l 1
 641 0 l 1
 670 388 l 1
 825 388 l 1
 826 421 l 1
 671 421 l 1
 699 782 l 1
 863 782 l 1
 865 815 l 1
 698 815 l 1
 721 1147 l 1
 668 1147 l 1
 644 815 l 1
 296 815 l 1
 321 1147 l 1
 266 1147 l 1
 242 815 l 1
 98 815 l 1
 96 782 l 1
 243 782 l 1
 217 421 l 1
 59 421 l 1
 56 388 l 1
 216 388 l 1
 186 0 l 1
EndSplineSet
EndChar

StartChar: o
Encoding: 111 111 312
Width: 986
VWidth: 0
Flags: HW
PickledData: "(dp1
S'org.robofab.postScriptHintData'
p2
(dp3
sS'com.typemytype.robofont.layerData'
p4
(dp5
S'b'
(dp6
S'name'
p7
S'o'
sS'lib'
p8
(dp9
sS'unicodes'
p10
(tsS'width'
p11
I986
sS'contours'
p12
(tsS'components'
p13
(tsS'anchors'
p14
(tsss."
HStem: -22 34<375.306 607.715> 792 34<370.057 613.009>
VStem: 63 42<274.587 536.15> 881 42<275.293 536.857>
AnchorPoint: "top" 488 805 basechar 0
LayerCount: 2
Fore
SplineSet
491 12 m 0
 265 12 105 176 105 407 c 0
 105 633 265 792 491 792 c 0
 719 792 881 633 881 408 c 0
 881 176 719 12 491 12 c 0
491 -22 m 0
 744 -22 923 156 923 408 c 0
 923 653 744 826 491 826 c 0
 240 826 63 652 63 407 c 0
 63 155 240 -22 491 -22 c 0
EndSplineSet
EndChar

StartChar: oe
Encoding: 339 339 317
Width: 1793
VWidth: 0
Flags: W
PickledData: "(dp1
S'org.robofab.postScriptHintData'
p2
(dp3
sS'com.typemytype.robofont.layerData'
p4
(dp5
S'b'
(dp6
S'name'
p7
S'oe'
p8
sS'lib'
p9
(dp10
sS'unicodes'
p11
(tsS'width'
p12
I1793
sS'contours'
p13
(tsS'components'
p14
(tsS'anchors'
p15
(tsss."
HStem: -22 34<375.306 609.493 1195.79 1418.21> 792 34<370.057 609.497 1179.53 1393.54>
VStem: 63 42<274.587 536.15> 881 44<275.847 390 424 536.161>
LayerCount: 2
Fore
SplineSet
924 424 m 1
 931 649 1091 792 1284 792 c 0
 1456 792 1614 678 1638 424 c 1
 924 424 l 1
491 12 m 0
 265 12 105 176 105 407 c 0
 105 633 265 792 491 792 c 0
 719 792 881 633 881 408 c 0
 881 176 719 12 491 12 c 0
491 -22 m 0
 692 -22 847 91 901 264 c 1
 959 80 1127 -22 1303 -22 c 0
 1422 -22 1553 25 1658 129 c 1
 1645 166 l 1
 1576 81 1432 12 1303 12 c 0
 1123 12 936 140 925 390 c 1
 1678 390 l 1
 1670 718 1460 826 1284 826 c 0
 1124 826 958 734 902 548 c 1
 847 716 692 826 491 826 c 0
 240 826 63 652 63 407 c 0
 63 155 240 -22 491 -22 c 0
EndSplineSet
EndChar

StartChar: ogonek
Encoding: 731 731 318
Width: 390
VWidth: 0
Flags: W
PickledData: "(dp1
S'org.robofab.postScriptHintData'
p2
(dp3
sS'com.typemytype.robofont.layerData'
p4
(dp5
S'b'
(dp6
S'name'
p7
S'ogonek'
p8
sS'lib'
p9
(dp10
sS'unicodes'
p11
(tsS'width'
p12
I390
sS'contours'
p13
(tsS'components'
p14
(tsS'anchors'
p15
(tsss."
HStem: -308 36<191.164 310.723>
VStem: 107 48<-242.82 -112.627>
LayerCount: 2
Fore
SplineSet
234 -308 m 0
 271 -308 312 -295 345 -270 c 1
 345 -235 l 1
 315 -259 280 -272 248 -272 c 0
 197 -272 155 -240 155 -177 c 0
 155 -127 194 -61 263 0 c 1
 232 0 l 1
 151 -62 107 -134 107 -192 c 0
 107 -268 167 -308 234 -308 c 0
EndSplineSet
EndChar

StartChar: one
Encoding: 49 49 322
Width: 559
VWidth: 0
Flags: W
PickledData: "(dp1
S'org.robofab.postScriptHintData'
p2
(dp3
sS'com.typemytype.robofont.layerData'
p4
(dp5
S'b'
(dp6
S'name'
p7
S'one'
p8
sS'lib'
p9
(dp10
sS'unicodes'
p11
(tsS'width'
p12
I559
sS'contours'
p13
(tsS'components'
p14
(tsS'anchors'
p15
(tsss."
VStem: 126 368
LayerCount: 2
Fore
SplineSet
126 0 m 1
 494 0 l 1
 494 34 l 1
 334 34 l 1
 334 1154 l 1
 133 1091 l 1
 147 1058 l 1
 290 1104 l 1
 290 34 l 1
 126 34 l 1
 126 0 l 1
EndSplineSet
EndChar

StartChar: onehalf
Encoding: 189 189 323
Width: 1651
VWidth: 0
Flags: W
PickledData: "(dp1
S'org.robofab.postScriptHintData'
p2
(dp3
s."
HStem: 761 34<1200.75 1390.3>
VStem: 1040 38<476 643.293> 1502 39<480.795 667.873>
LayerCount: 2
Fore
SplineSet
351 0 m 1
 393 0 l 1
 1167 1152 l 1
 1128 1152 l 1
 351 0 l 1
114 366 m 1
 395 366 l 1
 395 400 l 1
 273 400 l 1
 273 1152 l 1
 114 1152 l 1
 115 1118 l 1
 235 1118 l 1
 235 400 l 1
 114 400 l 1
 114 366 l 1
1049 0 m 1
 1563 0 l 1
 1563 179 l 1
 1527 179 l 1
 1528 34 l 1
 1102 34 l 1
 1386 305 l 2
 1489 403 1541 475 1541 584 c 0
 1541 726 1429 795 1293 795 c 0
 1120 795 1040 681 1040 549 c 0
 1040 525 1043 501 1048 476 c 1
 1087 476 l 1
 1081 500 1078 524 1078 547 c 0
 1078 663 1146 761 1293 761 c 0
 1416 761 1502 699 1502 586 c 0
 1502 481 1468 434 1365 336 c 2
 1049 34 l 1
 1049 0 l 1
EndSplineSet
EndChar

StartChar: onequarter
Encoding: 188 188 324
Width: 1395
VWidth: 0
Flags: W
PickledData: "(dp1
S'org.robofab.postScriptHintData'
p2
(dp3
sS'com.typemytype.robofont.layerData'
p4
(dp5
S'b'
(dp6
S'name'
p7
S'onequarter'
p8
sS'lib'
p9
(dp10
sS'unicodes'
p11
(tsS'width'
p12
I1395
sS'contours'
p13
(tsS'components'
p14
(tsS'anchors'
p15
(tsss."
LayerCount: 2
Fore
SplineSet
890 296 m 1
 1208 759 l 1
 1208 296 l 1
 890 296 l 1
339 0 m 1
 381 0 l 1
 1155 1152 l 1
 1116 1152 l 1
 339 0 l 1
113 366 m 1
 394 366 l 1
 394 400 l 1
 272 400 l 1
 272 1152 l 1
 113 1152 l 1
 114 1118 l 1
 234 1118 l 1
 234 400 l 1
 113 400 l 1
 113 366 l 1
1088 0 m 1
 1355 0 l 1
 1355 34 l 1
 1246 34 l 1
 1246 262 l 1
 1353 262 l 1
 1353 296 l 1
 1246 296 l 1
 1246 804 l 1
 1197 804 l 1
 839 286 l 1
 852 262 l 1
 1208 262 l 1
 1208 34 l 1
 1088 34 l 1
 1088 0 l 1
EndSplineSet
EndChar

StartChar: onesuperior
Encoding: 185 185 325
Width: 531
VWidth: 0
Flags: W
PickledData: "(dp1
S'org.robofab.postScriptHintData'
p2
(dp3
sS'com.typemytype.robofont.layerData'
p4
(dp5
S'b'
(dp6
S'name'
p7
S'uni00B9'
p8
sS'lib'
p9
(dp10
sS'unicodes'
p11
(tsS'width'
p12
I531
sS'contours'
p13
(tsS'components'
p14
(tsS'anchors'
p15
(tsss."
VStem: 131 281
LayerCount: 2
Fore
SplineSet
131 550 m 1
 412 550 l 1
 412 584 l 1
 296 584 l 1
 296 1308 l 1
 135 1273 l 1
 146 1237 l 1
 252 1262 l 1
 252 584 l 1
 131 584 l 1
 131 550 l 1
EndSplineSet
EndChar

StartChar: ordfeminine
Encoding: 170 170 326
Width: 801
VWidth: 0
Flags: W
PickledData: "(dp1
S'org.robofab.postScriptHintData'
p2
(dp3
sS'com.typemytype.robofont.layerData'
p4
(dp5
S'b'
(dp6
S'name'
p7
S'ordfeminine'
p8
sS'lib'
p9
(dp10
sS'unicodes'
p11
(tsS'width'
p12
I801
sS'contours'
p13
(tsS'components'
p14
(tsS'anchors'
p15
(tsss."
HStem: 572 36<243.789 439.98> 875 35<251.857 551.322> 1138 36<262.022 476.839>
VStem: 128 44<668.609 816.069> 554 44<669.164 685 862 863.994 979 1073.19>
LayerCount: 2
Fore
SplineSet
331 608 m 0
 224 608 172 664 172 744 c 0
 172 849 261 875 375 875 c 0
 431 875 494 868 554 862 c 1
 554 685 l 1
 496 634 410 608 331 608 c 0
331 572 m 0
 406 572 504 604 554 645 c 1
 555 580 l 1
 702 580 l 1
 702 616 l 1
 598 616 l 1
 598 990 l 2
 598 1056 570 1174 378 1174 c 0
 298 1174 222 1158 156 1109 c 1
 177 1076 l 1
 233 1121 306 1138 382 1138 c 0
 500 1138 554 1086 554 979 c 2
 554 893 l 1
 500 901 431 910 365 910 c 0
 243 910 128 878 128 745 c 0
 128 655 189 572 331 572 c 0
EndSplineSet
EndChar

StartChar: ordmasculine
Encoding: 186 186 327
Width: 806
VWidth: 0
Flags: W
PickledData: "(dp1
S'org.robofab.postScriptHintData'
p2
(dp3
sS'com.typemytype.robofont.layerData'
p4
(dp5
S'b'
(dp6
S'name'
p7
S'ordmasculine'
p8
sS'lib'
p9
(dp10
sS'unicodes'
p11
(tsS'width'
p12
I806
sS'contours'
p13
(tsS'components'
p14
(tsS'anchors'
p15
(tsss."
HStem: 562 36<303.097 502.903> 1138 36<303.097 502.903>
VStem: 104 44<746.4 989.6> 658 44<746.4 989.6>
LayerCount: 2
Fore
SplineSet
403 598 m 0
 274 598 148 677 148 868 c 0
 148 1059 274 1138 403 1138 c 0
 532 1138 658 1059 658 868 c 0
 658 677 532 598 403 598 c 0
403 562 m 0
 561 562 702 661 702 868 c 0
 702 1075 561 1174 403 1174 c 0
 245 1174 104 1075 104 868 c 0
 104 661 245 562 403 562 c 0
EndSplineSet
EndChar

StartChar: oslash
Encoding: 248 248 328
Width: 1023
VWidth: 0
Flags: HW
PickledData: "(dp1
S'org.robofab.postScriptHintData'
p2
(dp3
sS'com.typemytype.robofont.layerData'
p4
(dp5
S'b'
(dp6
S'name'
p7
S'oslash'
p8
sS'lib'
p9
(dp10
sS'unicodes'
p11
(tsS'width'
p12
I1023
sS'contours'
p13
(tsS'components'
p14
(tsS'anchors'
p15
(tsss."
HStem: -22 34<375.306 607.715> 792 34<370.057 613.009>
VStem: 63 42<274.587 536.15> 881 42<275.293 536.857>
LayerCount: 2
Fore
SplineSet
187 -193 m 1
 890 979 l 1
 870 995 l 1
 168 -176 l 1
 187 -193 l 1
EndSplineSet
Refer: 312 111 N 1 0 0 1 0 0 2
EndChar

StartChar: p
Encoding: 112 112 331
Width: 1037
VWidth: 0
Flags: HW
PickledData: "(dp1
S'org.robofab.postScriptHintData'
p2
(dp3
sS'com.typemytype.robofont.layerData'
p4
(dp5
S'b'
(dp6
S'name'
p7
S'p'
sS'lib'
p8
(dp9
sS'unicodes'
p10
(tsS'width'
p11
I1037
sS'contours'
p12
(tsS'components'
p13
(tsS'anchors'
p14
(tsss."
HStem: -22 34<436.339 669.7> 792 34<451.916 677.37>
VStem: 65 318 932 42<266.381 544.598>
AnchorPoint: "top" 563 805 basechar 0
LayerCount: 2
Fore
SplineSet
65 -316 m 1
 383 -316 l 1
 383 -282 l 1
 249 -282 l 1
 249.395318466 99.0870015805 l 1
 329.50496589 23.7833505464 440.113942354 -22 545 -22 c 0
 805 -22 970 141 974 400 c 0
 979 662 820 826 561 826 c 0
 459.362446833 826 341.79488376 782.40207815 249.753313794 712.095717159 c 1
 249 804 l 1
 81 804 l 1
 81 770 l 1
 205 770 l 1
 205 -282 l 1
 65 -282 l 1
 65 -316 l 1
249.437937093 140.171357559 m 1
 249.992623237 674.888800206 l 1
 346.00939672 747.278904588 463.630229397 792 561 792 c 0
 789 792 932 641 932 400 c 0
 932 162 783 12 545 12 c 0
 441.721194849 12 331.055608816 60.4244524477 249.437937093 140.171357559 c 1
EndSplineSet
EndChar

StartChar: paragraph
Encoding: 182 182 332
Width: 953
VWidth: 0
Flags: W
PickledData: "(dp1
S'org.robofab.postScriptHintData'
p2
(dp3
sS'com.typemytype.robofont.layerData'
p4
(dp5
S'b'
(dp6
S'name'
p7
S'paragraph'
p8
sS'lib'
p9
(dp10
sS'unicodes'
p11
(tsS'width'
p12
I953
sS'contours'
p13
(tsS'components'
p14
(tsS'anchors'
p15
(tsss."
VStem: 115 362<802.932 1045.63>
LayerCount: 2
Fore
SplineSet
477 737 m 1
 477 1123 l 1
 654 1123 l 1
 654 737 l 1
 477 737 l 1
488 -19 m 1
 837 -19 l 1
 837 16 l 1
 698 16 l 1
 698 1123 l 1
 860 1123 l 1
 860 1152 l 1
 406 1152 l 2
 207 1152 115 1023 115 930 c 0
 115 826 205 688 414 690 c 2
 654 690 l 1
 654 16 l 1
 488 16 l 1
 488 -19 l 1
EndSplineSet
EndChar

StartChar: parenleft
Encoding: 40 40 333
Width: 500
VWidth: 0
Flags: W
PickledData: "(dp1
S'org.robofab.postScriptHintData'
p2
(dp3
sS'com.typemytype.robofont.layerData'
p4
(dp5
S'b'
(dp6
S'name'
p7
S'parenleft'
p8
sS'lib'
p9
(dp10
sS'unicodes'
p11
(tsS'width'
p12
I500
sS'contours'
p13
(tsS'components'
p14
(tsS'anchors'
p15
(tsss."
VStem: 97 43<335.929 717.941>
LayerCount: 2
Fore
SplineSet
474 -114 m 1
 476 -88 l 1
 252 5 140 268 140 531 c 0
 140 794 252 1057 476 1149 c 1
 474 1174 l 1
 223 1086 97 807 97 529 c 0
 97 250 223 -28 474 -114 c 1
EndSplineSet
EndChar

StartChar: parenright
Encoding: 41 41 334
Width: 501
VWidth: 0
Flags: W
PickledData: "(dp1
S'org.robofab.postScriptHintData'
p2
(dp3
sS'com.typemytype.robofont.layerData'
p4
(dp5
S'b'
(dp6
S'name'
p7
S'parenright'
p8
sS'lib'
p9
(dp10
sS'unicodes'
p11
(tsS'width'
p12
I501
sS'contours'
p13
(tsS'components'
p14
(tsS'anchors'
p15
(tsss."
VStem: 419 43<335.929 717.941>
LayerCount: 2
Fore
SplineSet
84 -114 m 1
 336 -28 462 250 462 529 c 0
 462 807 336 1086 84 1174 c 1
 82 1149 l 1
 306 1057 419 794 419 531 c 0
 419 268 306 5 82 -88 c 1
 84 -114 l 1
EndSplineSet
EndChar

StartChar: partialdiff
Encoding: 8706 8706 335
Width: 1018
VWidth: 0
Flags: W
PickledData: "(dp1
S'org.robofab.postScriptHintData'
p2
(dp3
s."
HStem: -22 31<310.856 503.665> 661 33<453.021 669.625> 1132 34<394.482 597.351>
VStem: 140 40<127.074 362.083> 266 34<976.84 1048.47> 815.752 27.248<565.686 754.975>
LayerCount: 2
Fore
SplineSet
410 9 m 0
 232 9 180 120 180 236 c 0
 180 378 272 661 560 661 c 0
 702 661 786 600 809 507 c 1
 785 259 649 9 410 9 c 0
401 -22 m 0
 735 -22 843 335 843 626 c 0
 843 954 729 1166 496 1166 c 0
 357 1166 266 1104 266 1020 c 0
 266 978 284 971 300 971 c 1
 300 1095 392 1132 498 1132 c 0
 670.701441698 1132 809.130216962 1021.5658526 815.752023208 565.686330148 c 1
 784.712111183 629.115975634 694.856959702 693.99999998 561 694 c 0
 259 694 140 410 140 236 c 0
 140 100 205 -22 401 -22 c 0
EndSplineSet
EndChar

StartChar: percent
Encoding: 37 37 337
Width: 1578
VWidth: 0
Flags: W
PickledData: "(dp1
S'org.robofab.postScriptHintData'
p2
(dp3
sS'com.typemytype.robofont.layerData'
p4
(dp5
S'b'
(dp6
S'name'
p7
S'percent'
p8
sS'lib'
p9
(dp10
sS'unicodes'
p11
(tsS'width'
p12
I1578
sS'contours'
p13
(tsS'components'
p14
(tsS'anchors'
p15
(tsss."
HStem: -22 35<1108.7 1298.16> 483 33<1111.41 1295.43> 636 35<295.698 485.163> 1141 33<298.412 482.427>
VStem: 111 42<805.185 1007.53> 629 42<808.334 1007.53> 924 42<147.185 349.529> 1442 42<150.334 349.529>
LayerCount: 2
Fore
SplineSet
1203 -22 m 0
 1368 -22 1484 90 1484 249 c 0
 1484 405 1368 516 1203 516 c 0
 1040 516 924 405 924 249 c 0
 924 90 1040 -22 1203 -22 c 0
1203 13 m 0
 1064 13 966 111 966 249 c 0
 966 386 1064 483 1203 483 c 0
 1343 483 1442 386 1442 249 c 0
 1442 111 1343 13 1203 13 c 0
303 -36 m 1
 1324 1203 l 1
 1299 1222 l 1
 274 -11 l 1
 303 -36 l 1
390 636 m 0
 555 636 671 748 671 907 c 0
 671 1063 555 1174 390 1174 c 0
 227 1174 111 1063 111 907 c 0
 111 748 227 636 390 636 c 0
390 671 m 0
 251 671 153 769 153 907 c 0
 153 1044 251 1141 390 1141 c 0
 530 1141 629 1044 629 907 c 0
 629 769 530 671 390 671 c 0
EndSplineSet
EndChar

StartChar: period
Encoding: 46 46 338
Width: 452
VWidth: 0
Flags: W
PickledData: "(dp1
S'org.robofab.postScriptHintData'
p2
(dp3
sS'com.typemytype.robofont.layerData'
p4
(dp5
S'b'
(dp6
S'name'
p7
S'period'
p8
sS'lib'
p9
(dp10
sS'unicodes'
p11
(tsS'width'
p12
I452
sS'contours'
p13
(tsS'components'
p14
(tsS'anchors'
p15
(tsss."
HStem: 0 84
VStem: 197 71
LayerCount: 2
Fore
SplineSet
197 0 m 1
 268 0 l 1
 268 84 l 1
 197 84 l 1
 197 0 l 1
EndSplineSet
EndChar

StartChar: periodcentered
Encoding: 183 183 339
Width: 453
VWidth: 0
Flags: W
PickledData: "(dp1
S'org.robofab.postScriptHintData'
p2
(dp3
sS'com.typemytype.robofont.layerData'
p4
(dp5
S'b'
(dp6
S'name'
p7
S'periodcentered'
p8
sS'lib'
p9
(dp10
sS'unicodes'
p11
(tsS'width'
p12
I453
sS'contours'
p13
(tsS'components'
p14
(tsS'anchors'
p15
(tsss."
HStem: 512 83<192.013 282.986>
VStem: 192 91<512.05 594.951>
LayerCount: 2
Fore
SplineSet
236 512 m 0
 264 512 283 529 283 554 c 0
 283 578 264 595 236 595 c 0
 210 595 192 578 192 554 c 0
 192 529 210 512 236 512 c 0
EndSplineSet
EndChar

StartChar: perthousand
Encoding: 8240 8240 340
Width: 2272
VWidth: 0
Flags: W
PickledData: "(dp1
S'org.robofab.postScriptHintData'
p2
(dp3
s."
HStem: -22 35<1108.7 1298.16 1809.7 1999.16> 483 33<1111.41 1295.43 1812.41 1996.43> 636 35<295.698 485.163> 1141 33<298.412 482.427>
VStem: 111 42<805.185 1007.53> 629 42<808.334 1007.53> 924 42<147.185 349.529> 1442 42<150.334 349.529> 1625 42<147.185 349.529> 2143 42<150.334 349.529>
LayerCount: 2
Fore
SplineSet
1904 13 m 0
 1765 13 1667 111 1667 249 c 0
 1667 386 1765 483 1904 483 c 0
 2044 483 2143 386 2143 249 c 0
 2143 111 2044 13 1904 13 c 0
1904 -22 m 0
 2069 -22 2185 90 2185 249 c 0
 2185 405 2069 516 1904 516 c 0
 1741 516 1625 405 1625 249 c 0
 1625 90 1741 -22 1904 -22 c 0
EndSplineSet
Refer: 337 37 N 1 0 0 1 0 0 2
EndChar

StartChar: pi
Encoding: 960 960 341
Width: 1111
VWidth: 0
Flags: W
PickledData: "(dp1
S'org.robofab.postScriptHintData'
p2
(dp3
s."
HStem: -10 36<120 210.809 853.117 992.492> 770 34<242.528 294 863.223 867>
VStem: 171 33<636 726.188> 731 46<109.597 429.957>
LayerCount: 2
Fore
SplineSet
901 -10 m 0
 926 -10 963 -3 996 9 c 1
 996 40 l 1
 968 31 944 26 922 26 c 0
 825 26 777 102 777 247 c 0
 777 353 827 594 867 770 c 1
 1027 770 l 1
 1027 804 l 1
 294 804 l 2
 195 804 171 723 171 636 c 1
 204 636 l 1
 204 739 241 770 293 770 c 2
 390 770 l 1
 312 237 l 2
 292 103 276 30 120 30 c 1
 120 -4 l 1
 309 -4 342 58 363 237 c 2
 426 770 l 1
 832 770 l 1
 789 614 731 366 731 238 c 0
 731 67 795 -10 901 -10 c 0
EndSplineSet
EndChar

StartChar: plus
Encoding: 43 43 342
Width: 690
VWidth: 0
Flags: W
PickledData: "(dp1
S'org.robofab.postScriptHintData'
p2
(dp3
sS'com.typemytype.robofont.layerData'
p4
(dp5
S'b'
(dp6
S'name'
p7
S'plus'
p8
sS'lib'
p9
(dp10
sS'unicodes'
p11
(tsS'width'
p12
I690
sS'contours'
p13
(tsS'components'
p14
(tsS'anchors'
p15
(tsss."
LayerCount: 2
Fore
SplineSet
328 156 m 1
 365 156 l 1
 365 554 l 1
 700 554 l 1
 700 596 l 1
 365 596 l 1
 365 977 l 1
 328 977 l 1
 328 596 l 1
 -10 596 l 1
 -10 554 l 1
 328 554 l 1
 328 156 l 1
EndSplineSet
EndChar

StartChar: plusminus
Encoding: 177 177 343
Width: 659
VWidth: 0
Flags: W
PickledData: "(dp1
S'org.robofab.postScriptHintData'
p2
(dp3
sS'com.typemytype.robofont.layerData'
p4
(dp5
S'b'
(dp6
S'name'
p7
S'plusminus'
p8
sS'lib'
p9
(dp10
sS'unicodes'
p11
(tsS'width'
p12
I659
sS'contours'
p13
(tsS'components'
p14
(tsS'anchors'
p15
(tsss."
LayerCount: 2
Fore
SplineSet
-38 0 m 1
 694 0 l 1
 694 38 l 1
 -38 38 l 1
 -38 0 l 1
313 76 m 1
 350 76 l 1
 350 479 l 1
 697 479 l 1
 697 520 l 1
 350 520 l 1
 350 906 l 1
 313 906 l 1
 313 520 l 1
 -35 520 l 1
 -35 479 l 1
 313 479 l 1
 313 76 l 1
EndSplineSet
EndChar

StartChar: product
Encoding: 8719 8719 344
Width: 1305
VWidth: 0
Flags: W
PickledData: "(dp1
S'org.robofab.postScriptHintData'
p2
(dp3
sS'com.typemytype.robofont.layerData'
p4
(dp5
S'b'
(dp6
S'name'
p7
S'product'
p8
sS'lib'
p9
(dp10
sS'unicodes'
p11
(tsS'width'
p12
I1305
sS'contours'
p13
(tsS'components'
p14
(tsS'anchors'
p15
(tsss."
LayerCount: 2
Fore
SplineSet
116 0 m 1
 454 0 l 1
 454 36 l 1
 306 36 l 1
 306 1117 l 1
 999 1117 l 1
 999 36 l 1
 851 36 l 1
 851 0 l 1
 1189 0 l 1
 1189 36 l 1
 1041 36 l 1
 1041 1117 l 1
 1189 1117 l 1
 1189 1152 l 1
 116 1152 l 1
 116 1117 l 1
 264 1117 l 1
 264 36 l 1
 116 36 l 1
 116 0 l 1
EndSplineSet
EndChar

StartChar: q
Encoding: 113 113 345
Width: 1049
VWidth: 0
Flags: HW
PickledData: "(dp1
S'org.robofab.postScriptHintData'
p2
(dp3
sS'com.typemytype.robofont.layerData'
p4
(dp5
S'b'
(dp6
S'name'
p7
S'q'
sS'lib'
p8
(dp9
sS'unicodes'
p10
(tsS'width'
p11
I1049
sS'contours'
p12
(tsS'components'
p13
(tsS'anchors'
p14
(tsss."
HStem: -22 34<370.146 599.952> 792 34<355.485 585.978>
VStem: 63 42<268.732 529.796>
LayerCount: 2
Fore
SplineSet
658 -330 m 1
 975 -330 l 1
 975 -296 l 1
 837 -296 l 1
 837 770 l 1
 966 770 l 1
 966 804 l 1
 799 804 l 1
 794.267590913 709.351818253 l 1
 707.074758451 778.494110434 577.203012635 826 464 826 c 0
 226 826 60 648 63 397 c 0
 66 152 243 -22 490 -22 c 0
 593.721544215 -22 712.085572908 24.3678675131 793 92.8917878828 c 1
 793 -296 l 1
 658 -296 l 1
 658 -330 l 1
793 676.772265363 m 1
 793 130.980485079 l 1
 709.869972771 60.3022803136 591.338817855 12 490 12 c 0
 265 12 105 172 105 397 c 0
 105 628 254 792 464 792 c 0
 575.139232433 792 703.705937905 745.526738564 793 676.772265363 c 1
EndSplineSet
EndChar

StartChar: question
Encoding: 63 63 346
Width: 629
VWidth: 0
Flags: W
PickledData: "(dp1
S'org.robofab.postScriptHintData'
p2
(dp3
sS'com.typemytype.robofont.layerData'
p4
(dp5
S'b'
(dp6
S'name'
p7
S'question'
p8
sS'lib'
p9
(dp10
sS'unicodes'
p11
(tsS'width'
p12
I629
sS'contours'
p13
(tsS'components'
p14
(tsS'anchors'
p15
(tsss."
HStem: -22 91<227.015 325.985> 1138 36<174.997 420.329>
VStem: 7 30<949 998.752> 227 99<-21.6573 68.6578> 571 36<803.771 1001.02>
LayerCount: 2
Fore
SplineSet
275 -22 m 0
 305 -22 326 -3 326 24 c 0
 326 50 305 69 275 69 c 0
 247 69 227 50 227 24 c 0
 227 -3 247 -22 275 -22 c 0
268 279 m 1
 288 279 l 1
 352 690 607 619 607 907 c 0
 607 1071 499 1174 307 1174 c 0
 137 1174 24 1115 7 949 c 1
 37 949 l 1
 68 1094 153 1138 307 1138 c 0
 477 1138 571 1049 571 907 c 0
 571 640 308 706 268 279 c 1
EndSplineSet
EndChar

StartChar: quotedbl
Encoding: 34 34 348
Width: 514
VWidth: 0
Flags: W
PickledData: "(dp1
S'org.robofab.postScriptHintData'
p2
(dp3
sS'com.typemytype.robofont.layerData'
p4
(dp5
S'b'
(dp6
S'name'
p7
S'quotedbl'
p8
sS'lib'
p9
(dp10
sS'unicodes'
p11
(tsS'width'
p12
I514
sS'contours'
p13
(tsS'components'
p14
(tsS'anchors'
p15
(tsss."
HStem: 909 350
VStem: 166 49<994.916 1259> 308 49<1030.93 1259>
LayerCount: 2
Fore
SplineSet
317 909 m 1
 335 909 l 1
 357 1259 l 1
 308 1259 l 1
 317 909 l 1
185 909 m 1
 204 909 l 1
 215 1259 l 1
 166 1259 l 1
 185 909 l 1
EndSplineSet
EndChar

StartChar: quotedblbase
Encoding: 8222 8222 349
Width: 652
VWidth: 0
Flags: W
PickledData: "(dp1
S'org.robofab.postScriptHintData'
p2
(dp3
sS'com.typemytype.robofont.layerData'
p4
(dp5
S'b'
(dp6
S'name'
p7
S'quotedblbase'
p8
sS'lib'
p9
(dp10
sS'unicodes'
p11
(tsS'width'
p12
I652
sS'contours'
p13
(tsS'components'
p14
(tsS'anchors'
p15
(tsss."
HStem: -157 27<190 214.216 382 408.8>
VStem: 245 47<-112.098 -6> 435 49<-114.331 -6>
LayerCount: 2
Fore
SplineSet
382 -157 m 1
 461 -156 484 -81 484 -8 c 2
 484 78 l 1
 394 78 l 1
 394 -6 l 1
 435 -6 l 1
 435 -84 441 -107 382 -130 c 1
 382 -157 l 1
190 -157 m 1
 270 -156 292 -81 292 -8 c 2
 292 78 l 1
 202 78 l 1
 202 -6 l 1
 245 -6 l 1
 244 -83 249 -107 190 -130 c 1
 190 -157 l 1
EndSplineSet
EndChar

StartChar: quotedblleft
Encoding: 8220 8220 350
Width: 642
VWidth: 0
Flags: W
PickledData: "(dp1
S'org.robofab.postScriptHintData'
p2
(dp3
sS'com.typemytype.robofont.layerData'
p4
(dp5
S'b'
(dp6
S'name'
p7
S'quotedblleft'
p8
sS'lib'
p9
(dp10
sS'unicodes'
p11
(tsS'width'
p12
I642
sS'contours'
p13
(tsS'components'
p14
(tsS'anchors'
p15
(tsss."
HStem: 1262 27<252.458 277 435.458 460>
VStem: 173 49<1137 1244.46> 356 49<1137 1244.07>
LayerCount: 2
Fore
SplineSet
356 1053 m 1
 446 1053 l 1
 446 1137 l 1
 405 1137 l 1
 405 1215 401 1238 460 1262 c 1
 460 1289 l 1
 379 1287 356 1214 356 1140 c 2
 356 1053 l 1
173 1053 m 1
 263 1053 l 1
 263 1137 l 1
 222 1137 l 1
 222 1215 217 1238 277 1262 c 1
 277 1289 l 1
 196 1288 173 1214 173 1140 c 2
 173 1053 l 1
EndSplineSet
EndChar

StartChar: quotedblright
Encoding: 8221 8221 351
Width: 649
VWidth: 0
Flags: W
PickledData: "(dp1
S'org.robofab.postScriptHintData'
p2
(dp3
sS'com.typemytype.robofont.layerData'
p4
(dp5
S'b'
(dp6
S'name'
p7
S'quotedblright'
p8
sS'lib'
p9
(dp10
sS'unicodes'
p11
(tsS'width'
p12
I649
sS'contours'
p13
(tsS'components'
p14
(tsS'anchors'
p15
(tsss."
HStem: 1030 28<190 216.899 373 399.985>
VStem: 245 48<1074.9 1183> 428 49<1074.9 1183>
LayerCount: 2
Fore
SplineSet
373 1030 m 1
 454 1031 477 1106 477 1179 c 2
 477 1266 l 1
 387 1266 l 1
 387 1183 l 1
 428 1183 l 1
 428 1105 432 1080 373 1058 c 1
 373 1030 l 1
190 1030 m 1
 270 1031 294 1106 293 1179 c 2
 293 1266 l 1
 204 1266 l 1
 204 1183 l 1
 245 1183 l 1
 244 1105 249 1080 190 1058 c 1
 190 1030 l 1
EndSplineSet
EndChar

StartChar: quoteleft
Encoding: 8216 8216 352
Width: 399
VWidth: 0
Flags: W
PickledData: "(dp1
S'org.robofab.postScriptHintData'
p2
(dp3
sS'com.typemytype.robofont.layerData'
p4
(dp5
S'b'
(dp6
S'name'
p7
S'quoteleft'
p8
sS'lib'
p9
(dp10
sS'unicodes'
p11
(tsS'width'
p12
I399
sS'contours'
p13
(tsS'components'
p14
(tsS'anchors'
p15
(tsss."
HStem: 1262 27<212.751 237>
VStem: 134 48<1137 1244.46>
LayerCount: 2
Fore
SplineSet
134 1053 m 1
 223 1053 l 1
 223 1137 l 1
 182 1137 l 1
 182 1215 178 1238 237 1262 c 1
 237 1289 l 1
 157 1288 134 1214 134 1140 c 2
 134 1053 l 1
EndSplineSet
EndChar

StartChar: quoteright
Encoding: 8217 8217 353
Width: 409
VWidth: 0
Flags: W
PickledData: "(dp1
S'org.robofab.postScriptHintData'
p2
(dp3
sS'com.typemytype.robofont.layerData'
p4
(dp5
S'b'
(dp6
S'name'
p7
S'quoteright'
p8
sS'lib'
p9
(dp10
sS'unicodes'
p11
(tsS'width'
p12
I409
sS'contours'
p13
(tsS'components'
p14
(tsS'anchors'
p15
(tsss."
HStem: 1030 28<174 201.356>
VStem: 229 49<1074.9 1183>
LayerCount: 2
Fore
SplineSet
174 1030 m 1
 255 1031 278 1106 278 1179 c 2
 278 1266 l 1
 188 1266 l 1
 188 1183 l 1
 229 1183 l 1
 229 1105 234 1080 174 1058 c 1
 174 1030 l 1
EndSplineSet
EndChar

StartChar: quotesinglbase
Encoding: 8218 8218 354
Width: 403
VWidth: 0
Flags: W
PickledData: "(dp1
S'org.robofab.postScriptHintData'
p2
(dp3
sS'com.typemytype.robofont.layerData'
p4
(dp5
S'b'
(dp6
S'name'
p7
S'quotesinglbase'
p8
sS'lib'
p9
(dp10
sS'unicodes'
p11
(tsS'width'
p12
I403
sS'contours'
p13
(tsS'components'
p14
(tsS'anchors'
p15
(tsss."
HStem: -157 27<180 204.508>
VStem: 235 47<-112.098 -6>
LayerCount: 2
Fore
SplineSet
180 -157 m 1
 261 -156 283 -81 282 -8 c 2
 282 78 l 1
 193 78 l 1
 193 -6 l 1
 235 -6 l 1
 235 -83 239 -107 180 -130 c 1
 180 -157 l 1
EndSplineSet
EndChar

StartChar: quotesingle
Encoding: 39 39 355
Width: 239
VWidth: 0
Flags: W
PickledData: "(dp1
S'org.robofab.postScriptHintData'
p2
(dp3
sS'com.typemytype.robofont.layerData'
p4
(dp5
S'b'
(dp6
S'name'
p7
S'quotesingle'
p8
sS'lib'
p9
(dp10
sS'unicodes'
p11
(tsS'width'
p12
I239
sS'contours'
p13
(tsS'components'
p14
(tsS'anchors'
p15
(tsss."
HStem: 909 350
VStem: 99 49<994.916 1259>
LayerCount: 2
Fore
SplineSet
118 909 m 1
 137 909 l 1
 148 1259 l 1
 99 1259 l 1
 118 909 l 1
EndSplineSet
EndChar

StartChar: r
Encoding: 114 114 356
Width: 773
VWidth: 0
Flags: HW
PickledData: "(dp1
S'org.robofab.postScriptHintData'
p2
(dp3
sS'com.typemytype.robofont.layerData'
p4
(dp5
S'b'
(dp6
S'name'
p7
S'r'
sS'lib'
p8
(dp9
sS'unicodes'
p10
(tsS'width'
p11
I773
sS'contours'
p12
((dp13
S'points'
p14
((dp15
S'segmentType'
p16
S'line'
p17
sS'x'
I338
sS'smooth'
p18
I0
sS'y'
I449
s(dp19
S'y'
I643
sS'x'
I338
sg18
I0
s(dp20
S'y'
I756
sS'x'
I441
sg18
I0
s(dp21
g16
S'curve'
p22
sS'x'
I570
sg18
I1
sS'y'
I756
s(dp23
S'y'
I756
sS'x'
I614
sg18
I0
s(dp24
S'y'
I742
sS'x'
I651
sg18
I0
s(dp25
g16
S'curve'
p26
sS'x'
I704
sg18
I0
sS'y'
I716
s(dp27
g16
S'line'
p28
sS'x'
I722
sg18
I0
sS'y'
I784
s(dp29
S'y'
I810
sS'x'
I664
sg18
I0
s(dp30
S'y'
I820
sS'x'
I622
sg18
I0
s(dp31
g16
S'curve'
p32
sS'x'
I575
sg18
I1
sS'y'
I820
s(dp33
S'y'
I820
sS'x'
I467
sg18
I0
s(dp34
S'y'
I769
sS'x'
I381
sg18
I0
s(dp35
g16
S'curve'
p36
sS'x'
I316
sg18
I0
sS'y'
I582
stp37
stp38
sS'components'
p39
(tsS'anchors'
p40
(tsss."
HStem: 791 34<488.544 649.139>
VStem: 120 401 323 24<500.019 577.079>
AnchorPoint: "top" 503 805 basechar 0
LayerCount: 2
Fore
SplineSet
347 467 m 1
 347 670 447 791 557 791 c 0
 612 791 647 778 689 755 c 1
 698 787 l 1
 653 813 609 825 554 825 c 0
 472.907692475 825 389.076541825 777.070245337 345 643.816498296 c 1
 345 646 l 1
 345 804 l 1
 123 804 l 1
 123 770 l 1
 301 770 l 1
 301 34 l 1
 120 34 l 1
 120 0 l 1
 521 0 l 1
 521 34 l 1
 345 34 l 1
 345 473.833333333 l 1
 347 467 l 1
EndSplineSet
EndChar

StartChar: radical
Encoding: 8730 8730 358
Width: 1118
VWidth: 0
Flags: W
PickledData: "(dp1
S'org.robofab.postScriptHintData'
p2
(dp3
sS'com.typemytype.robofont.layerData'
p4
(dp5
S'b'
(dp6
S'name'
p7
S'radical'
p8
sS'lib'
p9
(dp10
sS'unicodes'
p11
(tsS'width'
p12
I1118
sS'contours'
p13
(tsS'components'
p14
(tsS'anchors'
p15
(tsss."
LayerCount: 2
Fore
SplineSet
514 -14 m 1
 532 -14 l 1
 986 1363 l 1
 946 1363 l 1
 524 75 l 1
 286 621 l 1
 56 621 l 1
 56 587 l 1
 246 587 l 1
 514 -14 l 1
EndSplineSet
EndChar

StartChar: registered
Encoding: 174 174 361
Width: 1512
VWidth: 0
Flags: W
PickledData: "(dp1
S'org.robofab.postScriptHintData'
p2
(dp3
sS'com.typemytype.robofont.layerData'
p4
(dp5
S'b'
(dp6
S'name'
p7
S'registered'
p8
sS'lib'
p9
(dp10
sS'unicodes'
p11
(tsS'width'
p12
I1512
sS'contours'
p13
(tsS'components'
p14
(tsS'anchors'
p15
(tsss."
HStem: -22 36<581.92 874.08> 577 35<794 882.014> 935 32<796 883.324> 1136 36<580.246 875.119>
VStem: 128 42<415.858 725.703> 974 38<686.217 851.109> 1286 42<423.982 718.884>
LayerCount: 2
Fore
SplineSet
728 -22 m 0
 1147 -22 1328 289 1328 571 c 0
 1328 851 1144 1172 728 1172 c 0
 313 1172 128 852 128 571 c 0
 128 291 309 -23 728 -22 c 0
728 14 m 0
 337 14 170 300 170 572 c 0
 170 832 341 1136 728 1136 c 0
 1110 1136 1286 832 1286 572 c 0
 1286 310 1110 14 728 14 c 0
558 612 m 1
 558 935 l 1
 796 935 l 2
 909 935 974 874 974 763 c 0
 974 666 909 612 797 612 c 2
 558 612 l 1
422 217 m 1
 657 217 l 1
 657 249 l 1
 558 249 l 1
 558 577 l 1
 752 577 l 1
 955 217 l 1
 1086 217 l 1
 1086 251 l 1
 981 251 l 1
 794 580 l 1
 934 585 1012 650 1012 763 c 0
 1012 894 935 967 796 967 c 2
 414 967 l 1
 414 935 l 1
 519 935 l 1
 519 249 l 1
 422 249 l 1
 422 217 l 1
EndSplineSet
EndChar

StartChar: ring
Encoding: 730 730 362
Width: 317
VWidth: 0
Flags: W
PickledData: "(dp1
S'org.robofab.postScriptHintData'
p2
(dp3
sS'com.typemytype.robofont.layerData'
p4
(dp5
S'b'
(dp6
S'name'
p7
S'ring'
p8
sS'lib'
p9
(dp10
sS'unicodes'
p11
(tsS'width'
p12
I317
sS'contours'
p13
(tsS'components'
p14
(tsS'anchors'
p15
(tsss."
HStem: 887 27<107.72 203.369> 1080 28<106.71 205.019>
VStem: 41 33<943.762 1052.08> 236 32<943.762 1052.08>
AnchorPoint: "top" 155 804 mark 0
LayerCount: 2
Fore
SplineSet
156 914 m 0
 105 914 74 945 74 999 c 0
 74 1050 105 1080 156 1080 c 0
 206 1080 236 1050 236 999 c 0
 236 945 206 914 156 914 c 0
156 887 m 0
 227 887 268 928 268 999 c 0
 268 1068 226 1108 155 1108 c 0
 84 1108 42 1068 41 999 c 0
 42 928 84 887 156 887 c 0
EndSplineSet
EndChar

StartChar: s
Encoding: 115 115 363
Width: 919
VWidth: 0
Flags: HW
PickledData: "(dp1
S'org.robofab.postScriptHintData'
p2
(dp3
sS'com.typemytype.robofont.layerData'
p4
(dp5
S'b'
(dp6
S'name'
p7
S's'
sS'lib'
p8
(dp9
sS'unicodes'
p10
(tsS'width'
p11
I919
sS'contours'
p12
(tsS'components'
p13
(tsS'anchors'
p14
(tsss."
HStem: -22 34<353.823 603.174> 792 34<337.445 549.107>
VStem: 148 40<107.901 125 557.297 664.851> 710 42<682 701.797> 756 40<123.441 280.357>
AnchorPoint: "top" 458 805 basechar 0
LayerCount: 2
Fore
SplineSet
479 -22 m 0
 638 -22 796 44 796 193 c 0
 796 364 685 388 511 426 c 2
 372 456 l 2
 279 476 199 514 197 606 c 0
 196 735 322 792 445 792 c 0
 540 792 663 744 707 682 c 1
 712 545 l 1
 752 545 l 1
 752 804 l 1
 710 804 l 1
 710 728 l 1
 646 790 541 826 445 826 c 0
 296 826 155 761 155 604 c 0
 155 496 241 443 366 417 c 2
 503 389 l 2
 678 353 755 322 756 193 c 0
 758 84 642 12 479 12 c 0
 359 12 257 49 190 125 c 1
 187 233 l 1
 148 233 l 1
 148 0 l 1
 188 0 l 1
 188 84 l 1
 238 27 353 -22 479 -22 c 0
EndSplineSet
EndChar

StartChar: section
Encoding: 167 167 371
Width: 954
VWidth: 0
Flags: W
PickledData: "(dp1
S'org.robofab.postScriptHintData'
p2
(dp3
s."
HStem: -131 30<369.401 614.376> 1209 30<406.427 604.707>
VStem: 206 42<543.646 709.045> 234 29<-7.17731 60.2434> 242 40<926.614 1108.72> 729 25<1015.62 1075.28> 743 37<5.04091 189.286> 790 38<364.96 537.402>
LayerCount: 2
Fore
SplineSet
704 273 m 1xe1
 653 312 569 354 482 400 c 0
 308 492 248 516 248 629 c 0
 248 707 295 770 384 798 c 1
 513 727 l 2
 724 611 790 558 790 469 c 0
 790 391 770 325 704 273 c 1xe1
505 -131 m 0
 694 -131 780 -41 780 99 c 0xd3
 780 183 755 222 720 257 c 1
 795 306 831 385 828 476 c 0
 824 587 739 639 531 759 c 0
 350 863 282 888 282 1022 c 0
 282 1131 356 1209 506 1209 c 0
 660 1209 717 1134 729 1014 c 1
 749 1014 754 1025 754 1051 c 0
 754 1136 694 1239 506 1239 c 0
 335 1239 242 1145 242 1022 c 0xcd
 242 919 287 861 366 811 c 1
 278 793 206 730 206 629 c 0xe1
 206 508 265 468 465 366 c 0
 706 243 743 212 743 97 c 0
 743 -24 676 -101 505 -101 c 0
 357 -101 267 -73 263 63 c 1
 249 63 234 59 234 25 c 0xd3
 234 -83 328 -131 505 -131 c 0
EndSplineSet
EndChar

StartChar: semicolon
Encoding: 59 59 372
Width: 294
VWidth: 0
Flags: W
PickledData: "(dp1
S'org.robofab.postScriptHintData'
p2
(dp3
sS'com.typemytype.robofont.layerData'
p4
(dp5
S'b'
(dp6
S'name'
p7
S'semicolon'
p8
sS'lib'
p9
(dp10
sS'unicodes'
p11
(tsS'width'
p12
I294
sS'contours'
p13
(tsS'components'
p14
(tsS'anchors'
p15
(tsss."
HStem: 121 29<78 104.648>
VStem: 129 48<164.188 274>
LayerCount: 2
Fore
SplineSet
100 729 m 1
 173 729 l 1
 173 813 l 1
 100 813 l 1
 100 729 l 1
78 121 m 1
 156 122 177 199 177 270 c 2
 177 358 l 1
 92 358 l 1
 92 274 l 1
 129 274 l 1
 129 197 135 172 78 150 c 1
 78 121 l 1
EndSplineSet
EndChar

StartChar: seven
Encoding: 55 55 373
Width: 964
VWidth: 0
Flags: W
PickledData: "(dp1
S'org.robofab.postScriptHintData'
p2
(dp3
sS'com.typemytype.robofont.layerData'
p4
(dp5
S'b'
(dp6
S'name'
p7
S'seven'
p8
sS'lib'
p9
(dp10
sS'unicodes'
p11
(tsS'width'
p12
I964
sS'contours'
p13
(tsS'components'
p14
(tsS'anchors'
p15
(tsss."
VStem: 427 43<0 59.3786>
LayerCount: 2
Fore
SplineSet
427 0 m 1
 470 0 l 1
 470 0 688 691 849 1119 c 1
 849 1152 l 1
 125 1152 l 1
 125 852 l 1
 169 852 l 1
 169 1118 l 1
 803 1118 l 1
 580 507 427 0 427 0 c 1
EndSplineSet
EndChar

StartChar: six
Encoding: 54 54 374
Width: 829
VWidth: 0
Flags: W
PickledData: "(dp1
S'org.robofab.postScriptHintData'
p2
(dp3
sS'com.typemytype.robofont.layerData'
p4
(dp5
S'b'
(dp6
S'name'
p7
S'six'
p8
sS'lib'
p9
(dp10
sS'unicodes'
p11
(tsS'width'
p12
I829
sS'contours'
p13
(tsS'components'
p14
(tsS'anchors'
p15
(tsss."
HStem: -22 32<304.985 515.424> 631 32<317.729 519.924>
VStem: 57 42<195.548 423.451> 728 42<200.362 440.16>
LayerCount: 2
Fore
SplineSet
406 10 m 0
 226 10 99 133 99 307 c 0
 99 514 257 631 413 631 c 0
 606 631 728 511 728 320 c 0
 728 130 604 10 406 10 c 0
406 -22 m 0
 630 -22 770 110 770 320 c 0
 770 531 632 663 413 663 c 0
 349 663 233 637 172 572 c 1
 547 1208 l 1
 505 1228 l 1
 142 598 l 2
 113 548 57 444 57 307 c 0
 57 114 202 -22 406 -22 c 0
EndSplineSet
EndChar

StartChar: slash
Encoding: 47 47 375
Width: 295
VWidth: 0
Flags: W
PickledData: "(dp1
S'org.robofab.postScriptHintData'
p2
(dp3
sS'com.typemytype.robofont.layerData'
p4
(dp5
S'b'
(dp6
S'name'
p7
S'slash'
p8
sS'lib'
p9
(dp10
sS'unicodes'
p11
(tsS'width'
p12
I295
sS'contours'
p13
(tsS'components'
p14
(tsS'anchors'
p15
(tsss."
LayerCount: 2
Fore
SplineSet
-36 -25 m 1
 10 -25 l 1
 318 1172 l 1
 277 1172 l 1
 -36 -25 l 1
EndSplineSet
EndChar

StartChar: sterling
Encoding: 163 163 377
Width: 1047
VWidth: 0
Flags: W
PickledData: "(dp1
S'org.robofab.postScriptHintData'
p2
(dp3
s."
HStem: -22 36<197.761 376.531> -4 36<728.738 899.024> 289 36<204.653 376.657> 1219 36<564.271 790.621>
VStem: 78 42<77.8606 218.673> 332 44<833.449 1047.88> 949 39<968 1073.18> 1012 35<167.315 287>
LayerCount: 2
Fore
SplineSet
292 14 m 0xbf
 186 14 120 65 120 145 c 0
 120 233 188 289 297 289 c 0
 364 289 456 241 511 173 c 1
 488 74 380 14 292 14 c 0xbf
291 -22 m 0
 413 -22 501 51 541 146 c 1
 618 52 717 -4 814 -4 c 0
 970 -4 1047 103 1047 243 c 0
 1047 258 1046 272 1044 287 c 1
 1012 287 l 1
 1012 138 955 32 812 32 c 0x7f
 722 32 619 99 555 182 c 1
 588 284 595 397 532 562 c 1
 911 562 l 1
 911 596 l 1
 516 596 l 1
 452 719 376 824 376 942 c 0
 376 1107 506 1219 675 1219 c 0
 868 1219 949 1111 949 968 c 1
 988 968 l 1
 988 1146 882 1255 675 1255 c 0
 485 1255 332 1130 332 940 c 0
 332 831 415 699 469 596 c 1
 213 596 l 1
 213 562 l 1
 487 562 l 1
 556 400 548 284 525 212 c 1
 480 273 380 325 296 325 c 0
 162 325 78 256 78 145 c 0
 78 42 160 -22 291 -22 c 0
EndSplineSet
EndChar

StartChar: summation
Encoding: 8721 8721 378
Width: 1212
VWidth: 0
Flags: W
PickledData: "(dp1
S'org.robofab.postScriptHintData'
p2
(dp3
sS'com.typemytype.robofont.layerData'
p4
(dp5
S'b'
(dp6
S'name'
p7
S'summation'
p8
sS'lib'
p9
(dp10
sS'unicodes'
p11
(tsS'width'
p12
I1212
sS'contours'
p13
(tsS'components'
p14
(tsS'anchors'
p15
(tsss."
LayerCount: 2
Fore
SplineSet
119 0 m 1
 1062 0 l 1
 1062 362 l 1
 1022 362 l 1
 1022 34 l 1
 314 34 l 1
 710 586 l 1
 710 617 l 1
 319 1118 l 1
 996 1118 l 1
 996 796 l 1
 1034 796 l 1
 1034 1152 l 1
 119 1152 l 1
 119 1118 l 1
 274 1118 l 1
 673 601 l 1
 265 34 l 1
 119 34 l 1
 119 0 l 1
EndSplineSet
EndChar

StartChar: t
Encoding: 116 116 379
Width: 572
VWidth: 0
Flags: HW
PickledData: "(dp1
S'org.robofab.postScriptHintData'
p2
(dp3
sS'com.typemytype.robofont.layerData'
p4
(dp5
S'b'
(dp6
S'name'
p7
S't'
sS'lib'
p8
(dp9
sS'unicodes'
p10
(tsS'width'
p11
I572
sS'contours'
p12
(tsS'components'
p13
(tsS'anchors'
p14
(tsss."
HStem: 0 34<331.288 449>
VStem: 195 44<111.439 219>
AnchorPoint: "top" 217 989 basechar 0
LayerCount: 2
Fore
SplineSet
449 0 m 2
 522 0 l 1
 522 34 l 1
 449 34 l 2
 301 34 239 82 239 219 c 2
 239 770 l 1
 478 770 l 1
 479 804 l 1
 239 804 l 1
 239 1096 l 1
 195 1084 l 1
 195 804 l 1
 41 804 l 1
 41 770 l 1
 195 770 l 1
 195 216 l 2
 195 46 304 0 449 0 c 2
EndSplineSet
EndChar

StartChar: thorn
Encoding: 254 254 384
Width: 1026
VWidth: 0
Flags: W
PickledData: "(dp1
S'org.robofab.postScriptHintData'
p2
(dp3
sS'com.typemytype.robofont.layerData'
p4
(dp5
S'b'
(dp6
S'name'
p7
S'thorn'
p8
sS'lib'
p9
(dp10
sS'unicodes'
p11
(tsS'width'
p12
I1026
sS'contours'
p13
(tsS'components'
p14
(tsS'anchors'
p15
(tsss."
HStem: -1 34<425.339 658.7> 813 34<440.916 666.37>
VStem: 921 42<287.381 565.598>
LayerCount: 2
Fore
SplineSet
534 -1 m 0
 794 -1 959 162 963 421 c 0
 968 683 809 847 550 847 c 0
 439 847 309 795 214 713 c 1
 214 676 l 1
 314 760 444 813 550 813 c 0
 778 813 921 662 921 421 c 0
 921 183 772 33 534 33 c 0
 420 33 297 92 214 187 c 1
 214 145 l 1
 295 55 418 -1 534 -1 c 0
21 -383 m 1
 239 -383 l 1
 243 1152 l 1
 43 1152 l 1
 43 1114 l 1
 195 1114 l 1
 195 -348 l 1
 21 -348 l 1
 21 -383 l 1
EndSplineSet
EndChar

StartChar: three
Encoding: 51 51 385
Width: 964
VWidth: 0
Flags: W
PickledData: "(dp1
S'org.robofab.postScriptHintData'
p2
(dp3
sS'com.typemytype.robofont.layerData'
p4
(dp5
S'b'
(dp6
S'name'
p7
S'three'
p8
sS'lib'
p9
(dp10
sS'unicodes'
p11
(tsS'width'
p12
I964
sS'contours'
p13
(tsS'components'
p14
(tsS'anchors'
p15
(tsss."
HStem: -20 36<351.694 602.365> 590 34<419 564.374> 1138 36<336.601 603.376>
VStem: 811 42<203.803 429.204 805.771 953.147>
LayerCount: 2
Fore
SplineSet
469 -20 m 0
 716 -20 853 105 853 329 c 0
 853 487 748 586 560 606 c 1
 742 624 843 720 843 875 c 0
 843 1067 705 1174 456 1174 c 0
 278 1174 149 1091 95 943 c 1
 127 929 l 1
 182 1063 300 1138 456 1138 c 0
 678 1138 801 1044 801 875 c 0
 801 714 665 624 419 624 c 1
 419 590 l 1
 671 590 811 497 811 329 c 0
 811 128 689 16 469 16 c 0
 318 16 198 90 132 224 c 1
 100 200 l 1
 163 59 295 -20 469 -20 c 0
EndSplineSet
EndChar

StartChar: threequarters
Encoding: 190 190 386
Width: 1497
VWidth: 0
Flags: W
PickledData: "(dp1
S'org.robofab.postScriptHintData'
p2
(dp3
s."
HStem: 369 36<227.005 441.716> 761 36<308 400.51> 1140 34<241.831 431.904>
VStem: 561 42<498.377 658.783 915.645 1010.12>
LayerCount: 2
Fore
SplineSet
1020 296 m 1
 1350 759 l 1
 1350 296 l 1
 1020 296 l 1
481 0 m 1
 523 0 l 1
 1297 1152 l 1
 1258 1152 l 1
 481 0 l 1
1230 0 m 1
 1497 0 l 1
 1497 34 l 1
 1388 34 l 1
 1388 262 l 1
 1495 262 l 1
 1495 296 l 1
 1388 296 l 1
 1388 804 l 1
 1339 804 l 1
 969 286 l 1
 982 262 l 1
 1350 262 l 1
 1350 34 l 1
 1230 34 l 1
 1230 0 l 1
328 369 m 0
 497 369 603 451 603 581 c 0
 603 687 524 764 397 780 c 1
 515 793 589 862 589 960 c 0
 589 1091 492 1174 338 1174 c 0
 225 1174 127 1121 84 1036 c 1
 113 1017 l 1
 153 1093 239 1140 336 1140 c 0
 466 1140 547 1070 547 959 c 0
 547 859 454 797 306 797 c 1
 308 761 l 1
 463 761 561 691 561 579 c 0
 561 472 472 405 329 405 c 0
 223 405 134 454 98 531 c 1
 68 509 l 1
 107 423 207 369 328 369 c 0
EndSplineSet
EndChar

StartChar: threesuperior
Encoding: 179 179 387
Width: 964
VWidth: 0
Flags: W
PickledData: "(dp1
S'org.robofab.postScriptHintData'
p2
(dp3
s."
HStem: 530 36<377.179 591.927> 922 36<458 539.061> 1301 34<391.798 584.822>
VStem: 711 42<661.82 824.463 1076.91 1171.42>
LayerCount: 2
Fore
SplineSet
479 530 m 0
 647 530 753 612 753 741 c 0
 753 848 668 932 543 940 c 1
 661 953 739 1023 739 1121 c 0
 739 1252 642 1335 487 1335 c 0
 375 1335 277 1282 234 1197 c 1
 263 1178 l 1
 303 1254 389 1301 487 1301 c 0
 616 1301 697 1231 697 1121 c 0
 697 1020 604 958 456 958 c 1
 458 922 l 1
 633 922 711 852 711 741 c 0
 711 633 622 566 479 566 c 0
 373 566 284 615 248 692 c 1
 218 670 l 1
 257 584 357 530 479 530 c 0
EndSplineSet
EndChar

StartChar: tilde
Encoding: 732 732 388
Width: 429
VWidth: 0
Flags: W
PickledData: "(dp1
S'org.robofab.postScriptHintData'
p2
(dp3
sS'com.typemytype.robofont.layerData'
p4
(dp5
S'b'
(dp6
S'name'
p7
S'tilde'
p8
sS'lib'
p9
(dp10
sS'unicodes'
p11
(tsS'width'
p12
I429
sS'contours'
p13
(tsS'components'
p14
(tsS'anchors'
p15
(tsss."
HStem: 940 32<277.315 369.132> 1027 32<71.601 160.113>
VStem: 23 24<942 984.385>
AnchorPoint: "top" 220 789 mark 0
LayerCount: 2
Fore
SplineSet
334 940 m 0
 397 940 409 978 417 1055 c 1
 394 1055 l 1
 378 979 362 972 329 972 c 0
 270 972 187 1059 109 1059 c 0
 53 1059 32 1012 23 942 c 1
 47 942 l 1
 63 1012 75 1027 107 1027 c 0
 170 1027 244 940 334 940 c 0
EndSplineSet
EndChar

StartChar: trademark
Encoding: 8482 8482 389
Width: 1581
VWidth: 0
Flags: W
PickledData: "(dp1
S'org.robofab.postScriptHintData'
p2
(dp3
sS'com.typemytype.robofont.layerData'
p4
(dp5
S'b'
(dp6
S'name'
p7
S'trademark'
p8
sS'lib'
p9
(dp10
sS'unicodes'
p11
(tsS'width'
p12
I1581
sS'contours'
p13
(tsS'components'
p14
(tsS'anchors'
p15
(tsss."
LayerCount: 2
Fore
SplineSet
293 584 m 1
 470 584 l 1
 470 613 l 1
 397 613 l 1
 397 1116 l 1
 601 1116 l 1
 601 960 l 1
 639 960 l 1
 639 1152 l 1
 131 1152 l 1
 131 960 l 1
 168 960 l 1
 168 1116 l 1
 365 1116 l 1
 365 613 l 1
 293 613 l 1
 293 584 l 1
800 584 m 1
 982 584 l 1
 982 615 l 1
 907 615 l 1
 907 1039 l 1
 1118 639 l 1
 1119 639 l 1
 1318 1036 l 1
 1318 615 l 1
 1245 615 l 1
 1245 584 l 1
 1422 584 l 1
 1422 615 l 1
 1353 615 l 1
 1353 1121 l 1
 1422 1121 l 1
 1422 1152 l 1
 1337 1152 l 1
 1118 693 l 1
 886 1152 l 1
 800 1152 l 1
 800 1121 l 1
 870 1121 l 1
 870 615 l 1
 800 615 l 1
 800 584 l 1
EndSplineSet
EndChar

StartChar: two
Encoding: 50 50 390
Width: 964
VWidth: 0
Flags: W
PickledData: "(dp1
S'org.robofab.postScriptHintData'
p2
(dp3
sS'com.typemytype.robofont.layerData'
p4
(dp5
S'b'
(dp6
S'name'
p7
S'two'
p8
sS'lib'
p9
(dp10
sS'unicodes'
p11
(tsS'width'
p12
I964
sS'contours'
p13
(tsS'components'
p14
(tsS'anchors'
p15
(tsss."
HStem: 1138 36<360.48 597.061>
VStem: 133 42<741.922 960.506> 786 35<784.887 931.641>
LayerCount: 2
Fore
SplineSet
118 0 m 1
 821 0 l 1
 821 243 l 1
 786 243 l 1
 786 34 l 1
 171 34 l 1
 563 426 l 2
 743 606 820 734 820 854 c 0
 820 1051 689 1174 480 1174 c 0
 267 1174 133 1048 133 847 c 0
 133 819 139 777 149 740 c 1
 190 740 l 1
 181 785 175 826 175 847 c 0
 175 1026 293 1138 480 1138 c 0
 663 1138 778 1028 778 854 c 0
 778 742 705 622 534 452 c 2
 118 37 l 1
 118 0 l 1
EndSplineSet
EndChar

StartChar: twosuperior
Encoding: 178 178 391
Width: 897
VWidth: 0
Flags: W
PickledData: "(dp1
S'org.robofab.postScriptHintData'
p2
(dp3
sS'com.typemytype.robofont.layerData'
p4
(dp5
S'b'
(dp6
S'name'
p7
S'uni00B2'
p8
sS'lib'
p9
(dp10
sS'unicodes'
p11
(tsS'width'
p12
I897
sS'contours'
p13
(tsS'components'
p14
(tsS'anchors'
p15
(tsss."
HStem: 1301 34<350.376 536.303>
VStem: 186 38<1016 1179.87> 648 39<1022.72 1207.87>
LayerCount: 2
Fore
SplineSet
195 574 m 1
 195 540 l 1
 709 540 l 1
 709 719 l 1
 673 719 l 1
 674 574 l 1
 246 574 l 1
 532 845 l 2
 635 943 687 1015 687 1124 c 0
 687 1266 575 1335 439 1335 c 0
 266 1335 186 1221 186 1089 c 0
 186 1065 189 1041 194 1016 c 1
 233 1016 l 1
 227 1040 224 1064 224 1087 c 0
 224 1200 294 1301 439 1301 c 0
 562 1301 648 1239 648 1126 c 0
 648 1021 611 975 509 876 c 2
 195 574 l 1
EndSplineSet
EndChar

StartChar: u
Encoding: 117 117 392
Width: 1025
VWidth: 0
Flags: HW
PickledData: "(dp1
S'org.robofab.postScriptHintData'
p2
(dp3
sS'com.typemytype.robofont.layerData'
p4
(dp5
S'b'
(dp6
S'name'
p7
S'u'
sS'lib'
p8
(dp9
sS'unicodes'
p10
(tsS'width'
p11
I1025
sS'contours'
p12
(tsS'components'
p13
(tsS'anchors'
p14
(tsss."
HStem: -22 34<351.604 564.754>
VStem: 199 44<109.097 204> 782 44<120.27 133>
AnchorPoint: "top" 488 804 basechar 0
LayerCount: 2
Fore
SplineSet
443 -22 m 0
 571 -22 681 30 785 101 c 1
 791 0 l 1
 978 0 l 1
 978 32 l 1
 826 32 l 1
 826 804 l 1
 630 804 l 1
 630 770 l 1
 782 770 l 1
 782 133 l 1
 675 64 580 12 442 12 c 0
 302 12 243 108 243 204 c 2
 243 804 l 1
 40 804 l 1
 40 770 l 1
 199 770 l 1
 199 203 l 2
 199 130 238 -22 443 -22 c 0
EndSplineSet
EndChar

StartChar: underscore
Encoding: 95 95 400
Width: 762
VWidth: 0
Flags: W
PickledData: "(dp1
S'org.robofab.postScriptHintData'
p2
(dp3
sS'com.typemytype.robofont.layerData'
p4
(dp5
S'b'
(dp6
S'name'
p7
S'underscore'
p8
sS'lib'
p9
(dp10
sS'unicodes'
p11
(tsS'width'
p12
I762
sS'contours'
p13
(tsS'components'
p14
(tsS'anchors'
p15
(tsss."
HStem: -123 36
VStem: 48 666
LayerCount: 2
Fore
SplineSet
48 -123 m 1
 714 -123 l 1
 714 -87 l 1
 48 -87 l 1
 48 -123 l 1
EndSplineSet
EndChar

StartChar: uni00B5
Encoding: 181 181 407
Width: 1025
VWidth: 0
Flags: HW
PickledData: "(dp1
S'org.robofab.postScriptHintData'
p2
(dp3
sS'com.typemytype.robofont.layerData'
p4
(dp5
S'b'
(dp6
S'name'
p7
S'uni00B5'
p8
sS'lib'
p9
(dp10
sS'unicodes'
p11
(tsS'width'
p12
I1025
sS'contours'
p13
(tsS'components'
p14
(tsS'anchors'
p15
(tsss."
HStem: -22 34<351.604 564.754>
VStem: 199 44<109.097 204> 782 44<120.27 133>
LayerCount: 2
Fore
SplineSet
199 -261 m 1
 243 -261 l 1
 243 365 l 1
 199 365 l 1
 199 -261 l 1
EndSplineSet
Refer: 392 117 N 1 0 0 1 0 0 2
EndChar

StartChar: uni0237
Encoding: 567 567 473
Width: 398
VWidth: 0
Flags: W
PickledData: "(dp1
S'org.robofab.postScriptHintData'
p2
(dp3
sS'com.typemytype.robofont.layerData'
p4
(dp5
S'b'
(dp6
S'name'
p7
S'uni0237'
p8
sS'lib'
p9
(dp10
sS'unicodes'
p11
(tsS'width'
p12
I398
sS'contours'
p13
(tsS'components'
p14
(tsS'anchors'
p15
(tsss."
HStem: -240 32<85 176.807>
VStem: 221 44<-174.011 -34>
AnchorPoint: "top" 228 804 basechar 0
LayerCount: 2
Fore
SplineSet
23 -240 m 1
 95 -240 l 2
 290 -240 265 -101 265 -34 c 2
 265 804 l 1
 48 804 l 1
 48 770 l 1
 221 770 l 1
 221 -39 l 2
 221 -152 228 -208 85 -208 c 2
 23 -208 l 1
 23 -240 l 1
EndSplineSet
EndChar

StartChar: uni02C9
Encoding: 713 713 474
Width: 600
VWidth: 0
Flags: W
PickledData: "(dp1
S'org.robofab.postScriptHintData'
p2
(dp3
s."
HStem: 903 48
VStem: 118 369
LayerCount: 2
Fore
SplineSet
118 903 m 1
 487 903 l 1
 487 951 l 1
 118 951 l 1
 118 903 l 1
EndSplineSet
EndChar

StartChar: uni0307
Encoding: 775 775 475
Width: 342
VWidth: 0
Flags: W
PickledData: "(dp1
S'org.robofab.postScriptHintData'
p2
(dp3
sS'com.typemytype.robofont.layerData'
p4
(dp5
S'b'
(dp6
S'name'
p7
S'uni0307'
p8
sS'lib'
p9
(dp10
sS'unicodes'
p11
(tsS'width'
p12
I342
sS'contours'
p13
(tsS'components'
p14
(tsS'anchors'
p15
(tsss."
HStem: 978 101<115.611 225.548>
VStem: 115 111<978.992 1078.07>
AnchorPoint: "top" 172 805 mark 0
LayerCount: 2
Fore
SplineSet
170 978 m 0
 209 978 226 1006 226 1028 c 0
 226 1050 212 1079 170 1079 c 0
 129 1079 116 1052 115 1028 c 0
 115 1007 129 978 170 978 c 0
EndSplineSet
EndChar

StartChar: uni0311
Encoding: 785 785 476
Width: 962
VWidth: 0
Flags: W
PickledData: "(dp1
S'org.robofab.postScriptHintData'
p2
(dp3
sS'com.typemytype.robofont.layerData'
p4
(dp5
S'b'
(dp6
S'name'
p7
S'uni0311'
p8
sS'lib'
p9
(dp10
sS'unicodes'
p11
(tsS'width'
p12
I962
sS'contours'
p13
(tsS'components'
p14
(tsS'anchors'
p15
(tsss."
HStem: 1026 33<430.2 542.148>
VStem: 352 30<934 970.115> 591 28<934 967.255>
AnchorPoint: "top" 488 804 mark 0
LayerCount: 2
Fore
SplineSet
352 934 m 1
 382 934 l 1
 400 996 434 1026 487 1026 c 0
 539 1026 573 996 591 934 c 1
 619 934 l 1
 604 1019 561 1060 487 1059 c 0
 415 1060 371 1019 352 934 c 1
EndSplineSet
EndChar

StartChar: uni2113
Encoding: 8467 8467 495
Width: 552
VWidth: 0
Flags: W
PickledData: "(dp1
S'org.robofab.postScriptHintData'
p2
(dp3
s."
HStem: -12 27<257.359 365>
LayerCount: 2
Fore
SplineSet
365 -12 m 1
 374 15 l 1
 226 15 168 28 204 257 c 2
 355 1215 l 1
 129 1215 l 1
 130 1178 l 1
 319 1178 l 1
 167 258 l 2
 134 55 150 -14 365 -12 c 1
EndSplineSet
EndChar

StartChar: uni2126
Encoding: 8486 8486 496
Width: 1426
VWidth: 0
Flags: W
PickledData: "(dp1
S'org.robofab.postScriptHintData'
p2
(dp3
s."
HStem: 1139 35<570.876 855.124>
VStem: 172 41<476.931 782.79> 1213 41<476.931 782.79>
LayerCount: 2
Fore
SplineSet
191 0 m 1
 548 0 l 1
 548 38 l 1
 324 177 213 420 213 636 c 0
 213 901 380 1139 713 1139 c 0
 1046 1139 1213 901 1213 636 c 0
 1213 420 1102 177 878 38 c 1
 878 0 l 1
 1235 0 l 1
 1235 34 l 1
 915 34 l 1
 1143 168 1254 409 1254 629 c 0
 1254 913 1070 1174 713 1174 c 0
 356 1174 172 913 172 629 c 0
 172 409 283 168 511 34 c 1
 191 34 l 1
 191 0 l 1
EndSplineSet
EndChar

StartChar: uni2206
Encoding: 8710 8710 497
Width: 679
VWidth: 0
Flags: W
PickledData: "(dp1
S'org.robofab.postScriptHintData'
p2
(dp3
sS'com.typemytype.robofont.layerData'
p4
(dp5
S'b'
(dp6
S'name'
p7
S'uni2206'
p8
sS'lib'
p9
(dp10
sS'unicodes'
p11
(tsS'width'
p12
I679
sS'contours'
p13
(tsS'components'
p14
(tsS'anchors'
p15
(tsss."
VStem: 58 588<45 91.6167>
LayerCount: 2
Fore
SplineSet
85 47 m 1
 350 919 l 1
 614 47 l 1
 85 47 l 1
58 0 m 1
 646 0 l 1
 646 45 l 1
 356 988 l 1
 344 988 l 1
 58 48 l 1
 58 0 l 1
EndSplineSet
EndChar

StartChar: v
Encoding: 118 118 503
Width: 1054
VWidth: 0
Flags: HW
PickledData: "(dp1
S'org.robofab.postScriptHintData'
p2
(dp3
sS'com.typemytype.robofont.layerData'
p4
(dp5
S'b'
(dp6
S'name'
p7
S'v'
sS'lib'
p8
(dp9
sS'unicodes'
p10
(tsS'width'
p11
I1054
sS'contours'
p12
(tsS'components'
p13
(tsS'anchors'
p14
(tsss."
LayerCount: 2
Fore
SplineSet
504 0 m 1
 561 0 l 1
 891 771 l 1
 1035 771 l 1
 1035 805 l 1
 668 805 l 1
 668 771 l 1
 842 771 l 1
 533 30 l 1
 212 771 l 1
 389 771 l 1
 389 805 l 1
 18 805 l 1
 18 771 l 1
 166 771 l 1
 504 0 l 1
EndSplineSet
EndChar

StartChar: w
Encoding: 119 119 504
Width: 1574
VWidth: 0
Flags: HW
PickledData: "(dp1
S'org.robofab.postScriptHintData'
p2
(dp3
sS'com.typemytype.robofont.layerData'
p4
(dp5
S'b'
(dp6
S'name'
p7
S'w'
sS'lib'
p8
(dp9
sS'unicodes'
p10
(tsS'width'
p11
I1574
sS'contours'
p12
(tsS'components'
p13
(tsS'anchors'
p14
(tsss."
AnchorPoint: "top" 783 804 basechar 0
LayerCount: 2
Fore
SplineSet
450 0 m 1
 511 0 l 1
 783 731 l 1
 1056 0 l 1
 1114 0 l 1
 1380 771 l 1
 1520 771 l 1
 1520 805 l 1
 1191 805 l 1
 1191 771 l 1
 1335 771 l 1
 1084 30 l 1
 805 771 l 1
 959 771 l 1
 959 805 l 1
 607 805 l 1
 607 771 l 1
 757 771 l 1
 482 28 l 1
 218 771 l 1
 380 771 l 1
 380 805 l 1
 35 805 l 1
 35 771 l 1
 172 771 l 1
 450 0 l 1
EndSplineSet
EndChar

StartChar: x
Encoding: 120 120 509
Width: 1088
VWidth: 0
Flags: HW
PickledData: "(dp1
S'org.robofab.postScriptHintData'
p2
(dp3
sS'com.typemytype.robofont.layerData'
p4
(dp5
S'b'
(dp6
S'name'
p7
S'x'
sS'lib'
p8
(dp9
sS'unicodes'
p10
(tsS'width'
p11
I1088
sS'contours'
p12
(tsS'components'
p13
(tsS'anchors'
p14
(tsss."
LayerCount: 2
Fore
SplineSet
50 0 m 1
 410 0 l 1
 410 34 l 1
 252 34 l 1
 543 390 l 1
 843 34 l 1
 660 34 l 1
 660 0 l 1
 1042 0 l 1
 1042 34 l 1
 884 34 l 1
 569 411 l 1
 861 770 l 1
 1030 770 l 1
 1030 804 l 1
 648 804 l 1
 648 770 l 1
 817 770 l 1
 547 440 l 1
 271 770 l 1
 439 770 l 1
 439 804 l 1
 78 804 l 1
 78 770 l 1
 228 770 l 1
 521 417 l 1
 204 34 l 1
 50 34 l 1
 50 0 l 1
EndSplineSet
EndChar

StartChar: y
Encoding: 121 121 510
Width: 1072
VWidth: 0
Flags: HW
PickledData: "(dp1
S'org.robofab.postScriptHintData'
p2
(dp3
sS'com.typemytype.robofont.layerData'
p4
(dp5
S'b'
(dp6
S'name'
p7
S'y'
sS'lib'
p8
(dp9
sS'unicodes'
p10
(tsS'width'
p11
I1072
sS'contours'
p12
(tsS'components'
p13
(tsS'anchors'
p14
(tsss."
HStem: -237 43<318 443.634>
AnchorPoint: "top" 569 804 basechar 0
LayerCount: 2
Fore
SplineSet
240 -237 m 1
 318 -237 l 2
 448 -237 493 -218 542 -104 c 2
 920 770 l 1
 1051 770 l 1
 1051 804 l 1
 699 804 l 1
 699 770 l 1
 874 770 l 1
 577 72 l 1
 268 770 l 1
 417 770 l 1
 417 804 l 1
 52 804 l 1
 52 770 l 1
 221 770 l 1
 539 64 l 1
 571 64 l 1
 503 -87 l 2
 462 -179 441 -194 318 -194 c 2
 240 -194 l 1
 240 -237 l 1
EndSplineSet
EndChar

StartChar: yen
Encoding: 165 165 514
Width: 1477
VWidth: 0
Flags: HW
PickledData: "(dp1
S'org.robofab.postScriptHintData'
p2
(dp3
sS'com.typemytype.robofont.layerData'
p4
(dp5
S'b'
(dp6
S'name'
p7
S'yen'
p8
sS'lib'
p9
(dp10
sS'unicodes'
p11
(tsS'width'
p12
I1477
sS'contours'
p13
(tsS'components'
p14
(tsS'anchors'
p15
(tsss."
LayerCount: 2
Fore
SplineSet
308 359 m 1
 942 359 l 1
 942 390 l 1
 308 390 l 1
 308 359 l 1
308 206 m 1
 942 206 l 1
 942 237 l 1
 308 237 l 1
 308 206 l 1
EndSplineSet
Refer: 137 89 N 1 0 0 1 0 0 2
EndChar

StartChar: z
Encoding: 122 122 516
Width: 955
VWidth: 0
Flags: HW
PickledData: "(dp1
S'org.robofab.postScriptHintData'
p2
(dp3
sS'com.typemytype.robofont.layerData'
p4
(dp5
S'b'
(dp6
S'name'
p7
S'z'
sS'lib'
p8
(dp9
sS'unicodes'
p10
(tsS'width'
p11
I955
sS'contours'
p12
(tsS'components'
p13
(tsS'anchors'
p14
(tsss."
VStem: 150 638
AnchorPoint: "top" 482 804 basechar 0
LayerCount: 2
Fore
SplineSet
150 0 m 1
 788 0 l 1
 788 262 l 1
 747 262 l 1
 747 34 l 1
 200 34 l 1
 774 756 l 1
 774 805 l 1
 179 805 l 1
 179 572 l 1
 223 572 l 1
 223 771 l 1
 735 771 l 1
 150 43 l 1
 150 0 l 1
EndSplineSet
EndChar

StartChar: zero
Encoding: 48 48 520
Width: 1090
VWidth: 0
Flags: W
PickledData: "(dp1
S'org.robofab.postScriptHintData'
p2
(dp3
sS'com.typemytype.robofont.layerData'
p4
(dp5
S'b'
(dp6
S'name'
p7
S'zero'
p8
sS'lib'
p9
(dp10
sS'unicodes'
p11
(tsS'width'
p12
I1090
sS'contours'
p13
(tsS'components'
p14
(tsS'anchors'
p15
(tsss."
HStem: -22 32<441.235 649.165> 1140 34<440.733 649.65>
VStem: 132 42<360.216 788.389> 917 42<360.729 788.389>
LayerCount: 2
Fore
SplineSet
545 -22 m 0
 811 -22 959 191 959 574 c 0
 959 960 811 1174 545 1174 c 0
 280 1174 132 960 132 574 c 0
 132 191 280 -22 545 -22 c 0
545 10 m 0
 307 8 174 209 174 574 c 0
 174 938 307 1140 545 1140 c 0
 784 1140 917 938 917 574 c 0
 917 211 784 10 545 10 c 0
EndSplineSet
EndChar
